{
.appVersion = "1280";
DisplayStrings = (
oOHnpdbqoHt0123456789
);
classes = (
{
automatic = 1;
code = "M Q R a j t u";
name = salt1;
},
{
automatic = 1;
code = "M.1 Q.1 R.1 a.1 j.1 t.1 u.1";
name = salt2;
}
);
customParameters = (
{
name = Axes;
value = (
{
Name = Weight;
Tag = wght;
}
);
}
);
date = "2019-12-18 14:15:49 +0000";
designer = "Matt Bailey";
designerURL = mtbailey.com;
familyName = "Spartan MB";
featurePrefixes = (
{
code = "languagesystem latn dflt;\012\012\012\012\012\012\012\012\012\012\012\012\012\012\012\012\012\012\012\012\012\012\012\012\012\012\012\012\012\012\012\012\012\012\012\012\012\012\012\012\012\012\012\012\012\012\012\012\012";
name = Languagesystems;
}
);
features = (
{
automatic = 1;
code = "feature locl;\012feature sups;\012feature frac;\012feature ordn;\012";
name = aalt;
},
{
automatic = 1;
code = "lookup ccmp_Other_1 {\012	@CombiningTopAccents = [acutecomb brevecomb caroncomb circumflexcomb commaturnedabovecomb dieresiscomb dotaccentcomb gravecomb hungarumlautcomb macroncomb ringcomb tildecomb];\012	@CombiningNonTopAccents = [cedillacomb ogonekcomb];\012	sub [i]' @CombiningTopAccents by [idotless];\012	sub [i]' @CombiningNonTopAccents @CombiningTopAccents by [idotless];\012} ccmp_Other_1;\012";
name = ccmp;
},
{
automatic = 1;
code = "lookup locl_latn_0 {\012	script latn;\012	language AZE;\012	language CRT;\012	language KAZ;\012	language TAT;\012	language TRK;\012	sub i by idotaccent;\012} locl_latn_0;\012\012lookup locl_latn_1 {\012	script latn;\012	language ROM;\012	language MOL;\012	sub Scedilla by Scommaaccent;\012} locl_latn_1;\012";
name = locl;
},
{
automatic = 1;
code = "sub one by onesuperior;\012sub two by twosuperior;\012sub three by threesuperior;\012";
name = sups;
},
{
automatic = 1;
code = "sub one slash four by onequarter;\012sub one slash two by onehalf;\012sub three slash four by threequarters;\012";
name = frac;
},
{
automatic = 1;

glyphs = (
{
color = 5;
glyphname = A;
lastChange = "2019-12-19 20:13:21 +0000";
layers = (
{
anchors = (
{
name = bottom;
position = "{835, 0}";
},
{
name = ogonek;
position = "{1711, 10}";
},
{
name = top;
position = "{835, 1650}";
}
);
layerId = "9d3a33de-08d4-49ee-85e3-2813f64ed4e4";
paths = (
{
closed = 1;
nodes = (
"433 0 LINE",
"532 274 LINE",
"1138 274 LINE",
"1237 0 LINE",
"1711 0 LINE",
"1039 1650 LINE",
"631 1650 LINE",
"-41 0 LINE"
);
},
{
closed = 1;
nodes = (
"835 1052 LINE",
"988 660 LINE",
"682 660 LINE"
);
}
);
width = 1670;
},
{
anchors = (
{
name = bottom;
position = "{826, 0}";
},
{
name = ogonek;
position = "{1494, 0}";
},
{
name = top;
position = "{826, 1650}";
}
);
layerId = "0ac4930a-26e9-4cfa-a42f-96cf237e936b";
paths = (
{
closed = 1;
nodes = (
"218 0 LINE",
"454 610 LINE",
"1198 610 LINE",
"1434 0 LINE",
"1494 0 LINE",
"852 1650 LINE",
"800 1650 LINE",
"158 0 LINE"
);
},
{
closed = 1;
nodes = (
"826 1582 LINE",
"1179 660 LINE",
"473 660 LINE"
);
}
);
width = 1652;
}
);
leftKerningGroup = _A;
rightKerningGroup = _A1;
unicode = 0041;
},
{
color = 5;
glyphname = B;
lastChange = "2019-12-19 19:35:46 +0000";
layers = (
{
anchors = (
{
name = bottom;
position = "{641, 0}";
},
{
name = top;
position = "{641, 1650}";
}
);
layerId = "0ac4930a-26e9-4cfa-a42f-96cf237e936b";
paths = (
{
closed = 1;
nodes = (
"658 0 LINE SMOOTH",
"978 0 OFFCURVE",
"1166 159 OFFCURVE",
"1166 430 CURVE SMOOTH",
"1166 668 OFFCURVE",
"1021 822 OFFCURVE",
"768 854 CURVE",
"932 917 OFFCURVE",
"1020 1049 OFFCURVE",
"1020 1232 CURVE SMOOTH",
"1020 1498 OFFCURVE",
"835 1650 OFFCURVE",
"512 1650 CURVE SMOOTH",
"232 1650 LINE",
"232 0 LINE"
);
},
{
closed = 1;
nodes = (
"288 1601 LINE",
"512 1601 LINE SMOOTH",
"803 1601 OFFCURVE",
"968 1468 OFFCURVE",
"968 1232 CURVE SMOOTH",
"968 998 OFFCURVE",
"805 867 OFFCURVE",
"512 867 CURVE SMOOTH",
"288 867 LINE"
);
},
{
closed = 1;
nodes = (
"288 814 LINE",
"658 814 LINE SMOOTH",
"944 814 OFFCURVE",
"1114 671 OFFCURVE",
"1114 430 CURVE SMOOTH",
"1114 191 OFFCURVE",
"946 52 OFFCURVE",
"658 52 CURVE SMOOTH",
"288 52 LINE"
);
}
);
width = 1282;
},
{
anchors = (
{
name = bottom;
position = "{671, 0}";
},
{
name = top;
position = "{671, 1650}";
}
);
layerId = "9d3a33de-08d4-49ee-85e3-2813f64ed4e4";
paths = (
{
closed = 1;
nodes = (
"764 0 LINE SMOOTH",
"1096 0 OFFCURVE",
"1310 180 OFFCURVE",
"1310 478 CURVE SMOOTH",
"1310 701 OFFCURVE",
"1191 841 OFFCURVE",
"968 880 CURVE",
"1098 953 OFFCURVE",
"1164 1073 OFFCURVE",
"1164 1236 CURVE SMOOTH",
"1164 1516 OFFCURVE",
"971 1650 OFFCURVE",
"656 1650 CURVE SMOOTH",
"98 1650 LINE",
"98 0 LINE"
);
},
{
closed = 1;
nodes = (
"538 1312 LINE",
"548 1312 LINE SMOOTH",
"679 1312 OFFCURVE",
"738 1269 OFFCURVE",
"738 1176 CURVE SMOOTH",
"738 1082 OFFCURVE",
"672 1032 OFFCURVE",
"548 1032 CURVE SMOOTH",
"538 1032 LINE"
);
},
{
closed = 1;
nodes = (
"538 654 LINE",
"606 654 LINE SMOOTH",
"764 654 OFFCURVE",
"846 598 OFFCURVE",
"846 492 CURVE SMOOTH",
"846 386 OFFCURVE",
"771 338 OFFCURVE",
"606 338 CURVE SMOOTH",
"538 338 LINE"
);
}
);
width = 1342;
}
);
unicode = 0042;
},
{
color = 5;
glyphname = C;
lastChange = "2019-12-19 19:35:46 +0000";
layers = (
{
anchors = (
{
name = bottom;
position = "{1001, -32}";
},
{
name = top;
position = "{1001, 1680}";
}
);
layerId = "0ac4930a-26e9-4cfa-a42f-96cf237e936b";
paths = (
{
closed = 1;
nodes = (
"1210 -32 OFFCURVE",
"1392 34 OFFCURVE",
"1536 146 CURVE",
"1502 190 LINE",
"1370 82 OFFCURVE",
"1196 24 OFFCURVE",
"1005 24 CURVE SMOOTH",
"536 24 OFFCURVE",
"210 376 OFFCURVE",
"210 824 CURVE SMOOTH",
"210 1272 OFFCURVE",
"536 1624 OFFCURVE",
"1005 1624 CURVE SMOOTH",
"1196 1624 OFFCURVE",
"1370 1566 OFFCURVE",
"1502 1458 CURVE",
"1536 1502 LINE",
"1392 1614 OFFCURVE",
"1210 1680 OFFCURVE",
"1001 1680 CURVE SMOOTH",
"507 1680 OFFCURVE",
"148 1311 OFFCURVE",
"148 824 CURVE SMOOTH",
"148 337 OFFCURVE",
"507 -32 OFFCURVE",
"1001 -32 CURVE SMOOTH"
);
}
);
width = 1652;
},
{
anchors = (
{
name = bottom;
position = "{953, -32}";
},
{
name = top;
position = "{951, 1680}";
}
);
layerId = "9d3a33de-08d4-49ee-85e3-2813f64ed4e4";
paths = (
{
closed = 1;
nodes = (
"1160 -32 OFFCURVE",
"1353 34 OFFCURVE",
"1472 114 CURVE",
"1286 490 LINE",
"1214 435 OFFCURVE",
"1096 400 OFFCURVE",
"980 400 CURVE SMOOTH",
"714 400 OFFCURVE",
"502 582 OFFCURVE",
"502 824 CURVE SMOOTH",
"502 1066 OFFCURVE",
"714 1248 OFFCURVE",
"980 1248 CURVE SMOOTH",
"1096 1248 OFFCURVE",
"1214 1213 OFFCURVE",
"1286 1158 CURVE",
"1472 1534 LINE",
"1347 1618 OFFCURVE",
"1151 1680 OFFCURVE",
"951 1680 CURVE SMOOTH",
"455 1680 OFFCURVE",
"26 1296 OFFCURVE",
"26 823 CURVE SMOOTH",
"26 352 OFFCURVE",
"453 -32 OFFCURVE",
"953 -32 CURVE SMOOTH"
);
}
);
width = 1476;
}
);
unicode = 0043;
},
{
color = 5;
glyphname = D;
lastChange = "2019-12-19 19:35:46 +0000";
layers = (
{
anchors = (
{
name = bottom;
position = "{797, 0}";
},
{
name = center;
position = "{797, 825}";
},
{
name = top;
position = "{797, 1650}";
}
);
layerId = "9d3a33de-08d4-49ee-85e3-2813f64ed4e4";
paths = (
{
closed = 1;
nodes = (
"704 0 LINE SMOOTH",
"1174 0 OFFCURVE",
"1536 358 OFFCURVE",
"1536 823 CURVE SMOOTH",
"1536 1288 OFFCURVE",
"1172 1650 OFFCURVE",
"704 1650 CURVE SMOOTH",
"196 1650 LINE",
"196 0 LINE"
);
},
{
closed = 1;
nodes = (
"636 1256 LINE",
"652 1256 LINE SMOOTH",
"891 1256 OFFCURVE",
"1060 1077 OFFCURVE",
"1060 824 CURVE SMOOTH",
"1060 572 OFFCURVE",
"891 394 OFFCURVE",
"652 394 CURVE SMOOTH",
"636 394 LINE"
);
}
);
width = 1594;
},
{
anchors = (
{
name = bottom;
position = "{827, 0}";
},
{
name = center;
position = "{827, 825}";
},
{
name = top;
position = "{827, 1650}";
}
);
layerId = "0ac4930a-26e9-4cfa-a42f-96cf237e936b";
paths = (
{
closed = 1;
nodes = (
"619 0 LINE SMOOTH",
"1089 0 OFFCURVE",
"1451 359 OFFCURVE",
"1451 825 CURVE SMOOTH",
"1451 1290 OFFCURVE",
"1088 1650 OFFCURVE",
"619 1650 CURVE SMOOTH",
"293 1650 LINE",
"293 0 LINE"
);
},
{
closed = 1;
nodes = (
"349 1600 LINE",
"619 1600 LINE SMOOTH",
"1054 1600 OFFCURVE",
"1397 1259 OFFCURVE",
"1397 825 CURVE SMOOTH",
"1397 390 OFFCURVE",
"1055 50 OFFCURVE",
"619 50 CURVE SMOOTH",
"349 50 LINE"
);
}
);
width = 1653;
}
);
rightKerningGroup = _A1;
unicode = 0044;
},
{
color = 0;
glyphname = Eth;
lastChange = "2019-12-18 16:57:23 +0000";
layers = (
{
associatedMasterId = "9d3a33de-08d4-49ee-85e3-2813f64ed4e4";
layerId = "cf2a3b8c-bb53-4d9e-827a-d6f64e11d495";
name = public.background;
width = 0;
},
{
layerId = "9d3a33de-08d4-49ee-85e3-2813f64ed4e4";
paths = (
{
closed = 1;
nodes = (
"755 0 LINE SMOOTH",
"1209 0 OFFCURVE",
"1587 342 OFFCURVE",
"1587 824 CURVE SMOOTH",
"1587 1304 OFFCURVE",
"1207 1650 OFFCURVE",
"755 1650 CURVE SMOOTH",
"247 1650 LINE",
"247 1004 LINE",
"83 1004 LINE",
"83 646 LINE",
"247 646 LINE",
"247 0 LINE"
);
},
{
closed = 1;
nodes = (
"687 646 LINE",
"841 646 LINE",
"841 1004 LINE",
"687 1004 LINE",
"687 1256 LINE",
"703 1256 LINE SMOOTH",
"957 1256 OFFCURVE",
"1112 1060 OFFCURVE",
"1111 824 CURVE SMOOTH",
"1110 586 OFFCURVE",
"953 394 OFFCURVE",
"703 394 CURVE SMOOTH",
"687 394 LINE"
);
}
);
width = 1645;
},
{
associatedMasterId = "0ac4930a-26e9-4cfa-a42f-96cf237e936b";
layerId = "67144369-4DC7-4872-B7A0-4907EC98E0D1";
name = public.background;
width = 0;
},
{
layerId = "0ac4930a-26e9-4cfa-a42f-96cf237e936b";
paths = (
{
closed = 1;
nodes = (
"648 0 LINE SMOOTH",
"1102 0 OFFCURVE",
"1480 344 OFFCURVE",
"1480 826 CURVE SMOOTH",
"1480 1306 OFFCURVE",
"1100 1650 OFFCURVE",
"648 1650 CURVE SMOOTH",
"322 1650 LINE",
"322 848 LINE",
"158 848 LINE",
"158 802 LINE",
"322 802 LINE",
"322 0 LINE"
);
},
{
closed = 1;
nodes = (
"378 802 LINE",
"916 802 LINE",
"916 848 LINE",
"378 848 LINE",
"378 1600 LINE",
"648 1600 LINE SMOOTH",
"1066 1600 OFFCURVE",
"1426 1276 OFFCURVE",
"1426 826 CURVE SMOOTH",
"1426 374 OFFCURVE",
"1068 50 OFFCURVE",
"648 50 CURVE SMOOTH",
"378 50 LINE"
);
}
);
width = 1682;
}
);
rightKerningGroup = _A1;
unicode = 00D0;
},
{
color = 0;
glyphname = Dcroat;
lastChange = "2019-12-18 16:57:23 +0000";
layers = (
{
layerId = "9d3a33de-08d4-49ee-85e3-2813f64ed4e4";
paths = (
{
closed = 1;
nodes = (
"755 0 LINE SMOOTH",
"1209 0 OFFCURVE",
"1587 342 OFFCURVE",
"1587 824 CURVE SMOOTH",
"1587 1304 OFFCURVE",
"1207 1650 OFFCURVE",
"755 1650 CURVE SMOOTH",
"247 1650 LINE",
"247 1004 LINE",
"83 1004 LINE",
"83 646 LINE",
"247 646 LINE",
"247 0 LINE"
);
},
{
closed = 1;
nodes = (
"687 646 LINE",
"841 646 LINE",
"841 1004 LINE",
"687 1004 LINE",
"687 1256 LINE",
"703 1256 LINE SMOOTH",
"957 1256 OFFCURVE",
"1112 1060 OFFCURVE",
"1111 824 CURVE SMOOTH",
"1110 586 OFFCURVE",
"953 394 OFFCURVE",
"703 394 CURVE SMOOTH",
"687 394 LINE"
);
}
);
width = 1645;
},
{
associatedMasterId = "0ac4930a-26e9-4cfa-a42f-96cf237e936b";
layerId = "68E94E86-29AA-46B5-AB99-6896939C4604";
name = public.background;
width = 0;
},
{
layerId = "0ac4930a-26e9-4cfa-a42f-96cf237e936b";
paths = (
{
closed = 1;
nodes = (
"648 0 LINE SMOOTH",
"1102 0 OFFCURVE",
"1480 344 OFFCURVE",
"1480 826 CURVE SMOOTH",
"1480 1306 OFFCURVE",
"1100 1650 OFFCURVE",
"648 1650 CURVE SMOOTH",
"322 1650 LINE",
"322 848 LINE",
"158 848 LINE",
"158 802 LINE",
"322 802 LINE",
"322 0 LINE"
);
},
{
closed = 1;
nodes = (
"378 802 LINE",
"916 802 LINE",
"916 848 LINE",
"378 848 LINE",
"378 1600 LINE",
"648 1600 LINE SMOOTH",
"1066 1600 OFFCURVE",
"1426 1276 OFFCURVE",
"1426 826 CURVE SMOOTH",
"1426 374 OFFCURVE",
"1068 50 OFFCURVE",
"648 50 CURVE SMOOTH",
"378 50 LINE"
);
}
);
width = 1682;
}
);
rightKerningGroup = _A1;
unicode = 0110;
},
{
color = 5;
glyphname = E;
lastChange = "2019-12-19 19:35:46 +0000";
layers = (
{
anchors = (
{
name = bottom;
position = "{670, 0}";
},
{
name = ogonek;
position = "{1172, 0}";
},
{
name = top;
position = "{670, 1650}";
},
{
name = topleft;
position = "{196, 1650}";
}
);
layerId = "9d3a33de-08d4-49ee-85e3-2813f64ed4e4";
paths = (
{
closed = 1;
nodes = (
"1172 0 LINE",
"1172 386 LINE",
"546 386 LINE",
"636 296 LINE",
"636 724 LINE",
"546 634 LINE",
"1148 634 LINE",
"1148 1020 LINE",
"546 1020 LINE",
"636 930 LINE",
"636 1354 LINE",
"546 1264 LINE",
"1172 1264 LINE",
"1172 1650 LINE",
"196 1650 LINE",
"196 0 LINE"
);
}
);
width = 1340;
},
{
anchors = (
{
name = bottom;
position = "{727, 0}";
},
{
name = ogonek;
position = "{1077, 0}";
},
{
name = top;
position = "{706, 1650}";
},
{
name = topleft;
position = "{293, 1650}";
}
);
layerId = "0ac4930a-26e9-4cfa-a42f-96cf237e936b";
paths = (
{
closed = 1;
nodes = (
"1077 0 LINE",
"1077 50 LINE",
"319 50 LINE",
"349 14 LINE",
"349 892 LINE",
"319 802 LINE",
"1053 802 LINE",
"1053 852 LINE",
"319 852 LINE",
"349 762 LINE",
"349 1636 LINE",
"319 1600 LINE",
"1077 1600 LINE",
"1077 1650 LINE",
"293 1650 LINE",
"293 0 LINE"
);
}
);
width = 1254;
}
);
rightKerningGroup = _E;
unicode = 0045;
},
{
color = 5;
glyphname = F;
lastChange = "2019-12-19 19:35:46 +0000";
layers = (
{
anchors = (
{
name = bottom;
position = "{630, 0}";
},
{
name = top;
position = "{630, 1650}";
}
);
layerId = "9d3a33de-08d4-49ee-85e3-2813f64ed4e4";
paths = (
{
closed = 1;
nodes = (
"636 0 LINE",
"636 724 LINE",
"546 634 LINE",
"1140 634 LINE",
"1140 1020 LINE",
"546 1020 LINE",
"636 930 LINE",
"636 1354 LINE",
"546 1264 LINE",
"1184 1264 LINE",
"1184 1650 LINE",
"196 1650 LINE",
"196 0 LINE"
);
}
);
width = 1260;
},
{
anchors = (
{
name = bottom;
position = "{620, 0}";
},
{
name = top;
position = "{620, 1650}";
}
);
layerId = "0ac4930a-26e9-4cfa-a42f-96cf237e936b";
paths = (
{
closed = 1;
nodes = (
"349 0 LINE",
"349 892 LINE",
"299 802 LINE",
"1031 802 LINE",
"1031 852 LINE",
"299 852 LINE",
"349 762 LINE",
"349 1630 LINE",
"299 1600 LINE",
"1077 1600 LINE",
"1077 1650 LINE",
"293 1650 LINE",
"293 0 LINE"
);
}
);
width = 1239;
}
);
rightKerningGroup = _A1;
unicode = 0046;
},
{
color = 5;
glyphname = G;
lastChange = "2019-12-19 19:35:46 +0000";
layers = (
{
anchors = (
{
name = bottom;
position = "{941, -6}";
},
{
name = top;
position = "{903, 1680}";
}
);
background = {
paths = (
{
closed = 1;
nodes = (
"1280 -32 OFFCURVE",
"1631 274 OFFCURVE",
"1631 632 CURVE SMOOTH",
"1631 952 LINE",
"869 952 LINE",
"869 614 LINE",
"1183 614 LINE",
"1183 612 LINE SMOOTH",
"1183 478 OFFCURVE",
"1057 374 OFFCURVE",
"895 374 CURVE SMOOTH",
"700 374 OFFCURVE",
"541 576 OFFCURVE",
"541 824 CURVE SMOOTH",
"541 1075 OFFCURVE",
"701 1282 OFFCURVE",
"895 1282 CURVE SMOOTH",
"1061 1282 OFFCURVE",
"1199 1220 OFFCURVE",
"1253 1121 CURVE",
"1505 1398 LINE",
"1364 1584 OFFCURVE",
"1146 1680 OFFCURVE",
"869 1680 CURVE SMOOTH",
"414 1680 OFFCURVE",
"65 1308 OFFCURVE",
"65 824 CURVE SMOOTH",
"65 352 OFFCURVE",
"425 -32 OFFCURVE",
"869 -32 CURVE SMOOTH"
);
}
);
};
layerId = "9d3a33de-08d4-49ee-85e3-2813f64ed4e4";
paths = (
{
closed = 1;
nodes = (
"1279 -32 OFFCURVE",
"1631 274 OFFCURVE",
"1631 632 CURVE SMOOTH",
"1631 952 LINE",
"869 952 LINE",
"869 614 LINE",
"1183 614 LINE",
"1183 612 LINE SMOOTH",
"1183 486 OFFCURVE",
"1055 374 OFFCURVE",
"894 374 CURVE SMOOTH",
"694 374 OFFCURVE",
"541 548 OFFCURVE",
"541 846 CURVE SMOOTH",
"541 1118 OFFCURVE",
"668 1287 OFFCURVE",
"911 1287 CURVE SMOOTH",
"1032 1287 OFFCURVE",
"1196 1245 OFFCURVE",
"1306 1162 CURVE",
"1508 1504 LINE",
"1331 1626 OFFCURVE",
"1093 1680 OFFCURVE",
"903 1680 CURVE SMOOTH",
"402 1680 OFFCURVE",
"65 1304 OFFCURVE",
"65 826 CURVE SMOOTH",
"65 336 OFFCURVE",
"419 -32 OFFCURVE",
"869 -32 CURVE SMOOTH"
);
}
);
width = 1697;
},
{
anchors = (
{
name = bottom;
position = "{1051, 0}";
},
{
name = top;
position = "{1029, 1650}";
}
);
layerId = "0ac4930a-26e9-4cfa-a42f-96cf237e936b";
paths = (
{
closed = 1;
nodes = (
"1365 -32 OFFCURVE",
"1773 181 OFFCURVE",
"1773 684 CURVE SMOOTH",
"1773 774 LINE",
"1009 774 LINE",
"1009 722 LINE",
"1715 722 LINE",
"1715 646 LINE SMOOTH",
"1715 257 OFFCURVE",
"1359 18 OFFCURVE",
"1015 18 CURVE SMOOTH",
"593 18 OFFCURVE",
"263 378 OFFCURVE",
"263 824 CURVE SMOOTH",
"263 1236 OFFCURVE",
"545 1630 OFFCURVE",
"1019 1630 CURVE SMOOTH",
"1268 1630 OFFCURVE",
"1478 1521 OFFCURVE",
"1609 1358 CURVE",
"1647 1398 LINE",
"1514 1562 OFFCURVE",
"1302 1680 OFFCURVE",
"1024 1680 CURVE SMOOTH",
"496 1680 OFFCURVE",
"205 1252 OFFCURVE",
"205 823 CURVE SMOOTH",
"205 350 OFFCURVE",
"559 -32 OFFCURVE",
"1020 -32 CURVE SMOOTH"
);
}
);
width = 1958;
}
);
rightKerningGroup = _A1;
unicode = 0047;
},
{
color = 5;
glyphname = H;
lastChange = "2019-12-19 19:35:46 +0000";
layers = (
{
anchors = (
{
name = bottom;
position = "{848, 0}";
},
{
name = center;
position = "{848, 825}";
},
{
name = top;
position = "{848, 1650}";
},
{
name = topleft;
position = "{196, 1650}";
}
);
layerId = "9d3a33de-08d4-49ee-85e3-2813f64ed4e4";
paths = (
{
closed = 1;
nodes = (
"636 0 LINE",
"636 634 LINE",
"1060 634 LINE",
"1060 0 LINE",
"1500 0 LINE",
"1500 1650 LINE",
"1060 1650 LINE",
"1060 1020 LINE",
"636 1020 LINE",
"636 1650 LINE",
"196 1650 LINE",
"196 0 LINE"
);
}
);
width = 1696;
},
{
anchors = (
{
name = bottom;
position = "{879, 0}";
},
{
name = center;
position = "{879, 825}";
},
{
name = top;
position = "{879, 1650}";
},
{
name = topleft;
position = "{293, 1650}";
}
);
layerId = "0ac4930a-26e9-4cfa-a42f-96cf237e936b";
paths = (
{
closed = 1;
nodes = (
"349 0 LINE",
"349 802 LINE",
"1409 802 LINE",
"1409 0 LINE",
"1465 0 LINE",
"1465 1650 LINE",
"1409 1650 LINE",
"1409 852 LINE",
"349 852 LINE",
"349 1650 LINE",
"293 1650 LINE",
"293 0 LINE"
);
}
);
width = 1758;
}
);
rightKerningGroup = _A1;
unicode = 0048;
},
{
color = 5;
glyphname = I;
lastChange = "2019-12-19 19:35:46 +0000";
layers = (
{
anchors = (
{
name = bottom;
position = "{416, 0}";
},
{
name = ogonek;
position = "{636, 0}";
},
{
name = top;
position = "{416, 1650}";
},
{
name = topleft;
position = "{196, 1650}";
}
);
layerId = "9d3a33de-08d4-49ee-85e3-2813f64ed4e4";
paths = (
{
closed = 1;
nodes = (
"636 0 LINE",
"636 1650 LINE",
"196 1650 LINE",
"196 0 LINE"
);
}
);
width = 832;
},
{
anchors = (
{
name = bottom;
position = "{321, 0}";
},
{
name = ogonek;
position = "{349, 0}";
},
{
name = top;
position = "{321, 1650}";
},
{
name = topleft;
position = "{293, 1650}";
}
);
layerId = "0ac4930a-26e9-4cfa-a42f-96cf237e936b";
paths = (
{
closed = 1;
nodes = (
"349 0 LINE",
"349 1650 LINE",
"293 1650 LINE",
"293 0 LINE"
);
}
);
width = 642;
}
);
leftKerningGroup = _I;
rightKerningGroup = _A1;
unicode = 0049;
},
{
color = 5;
glyphname = J;
lastChange = "2019-12-19 19:35:46 +0000";
layers = (
{
anchors = (
{
name = bottom;
position = "{374, -32}";
},
{
name = top;
position = "{651, 1650}";
}
);
layerId = "9d3a33de-08d4-49ee-85e3-2813f64ed4e4";
paths = (
{
closed = 1;
nodes = (
"682 -32 OFFCURVE",
"868 148 OFFCURVE",
"868 464 CURVE SMOOTH",
"868 1650 LINE",
"428 1650 LINE",
"428 574 LINE SMOOTH",
"428 462 OFFCURVE",
"377 390 OFFCURVE",
"298 390 CURVE SMOOTH",
"248 390 OFFCURVE",
"186 423 OFFCURVE",
"108 490 CURVE",
"-32 126 LINE",
"85 18 OFFCURVE",
"213 -32 OFFCURVE",
"375 -32 CURVE SMOOTH"
);
}
);
width = 1045;
},
{
anchors = (
{
name = bottom;
position = "{573, 0}";
},
{
name = top;
position = "{648, 1650}";
}
);
layerId = "0ac4930a-26e9-4cfa-a42f-96cf237e936b";
paths = (
{
closed = 1;
nodes = (
"876 -32 OFFCURVE",
"1059 153 OFFCURVE",
"1059 464 CURVE SMOOTH",
"1059 1650 LINE",
"1003 1650 LINE",
"1003 488 LINE SMOOTH",
"1003 190 OFFCURVE",
"847 20 OFFCURVE",
"573 20 CURVE SMOOTH",
"435 20 OFFCURVE",
"324 68 OFFCURVE",
"231 167 CURVE",
"197 120 LINE",
"304 15 OFFCURVE",
"419 -32 OFFCURVE",
"567 -32 CURVE SMOOTH"
);
}
);
width = 1335;
}
);
rightKerningGroup = _A1;
unicode = 004A;
},
{
color = 5;
glyphname = K;
lastChange = "2019-12-19 19:35:46 +0000";
layers = (
{
anchors = (
{
name = bottom;
position = "{865, 0}";
},
{
name = top;
position = "{865, 1650}";
}
);
layerId = "9d3a33de-08d4-49ee-85e3-2813f64ed4e4";
paths = (
{
closed = 1;
nodes = (
"636 0 LINE",
"636 662 LINE",
"1188 0 LINE",
"1794 0 LINE",
"1044 872 LINE",
"1684 1650 LINE",
"1150 1650 LINE",
"636 1008 LINE",
"636 1650 LINE",
"196 1650 LINE",
"196 0 LINE"
);
}
);
width = 1740;
},
{
anchors = (
{
name = bottom;
position = "{731, 0}";
},
{
name = top;
position = "{731, 1650}";
}
);
layerId = "0ac4930a-26e9-4cfa-a42f-96cf237e936b";
paths = (
{
closed = 1;
nodes = (
"349 0 LINE",
"349 778 LINE",
"1235 0 LINE",
"1318 0 LINE",
"389 820 LINE",
"1243 1650 LINE",
"1165 1650 LINE",
"349 856 LINE",
"349 1650 LINE",
"293 1650 LINE",
"293 0 LINE"
);
}
);
width = 1429;
}
);
rightKerningGroup = _A1;
unicode = 004B;
},
{
color = 5;
glyphname = L;
lastChange = "2019-12-19 19:35:46 +0000";
layers = (
{
anchors = (
{
name = bottom;
position = "{722, 0}";
},
{
name = center;
position = "{579, 825}";
},
{
name = top;
position = "{751, 1650}";
},
{
name = topright;
position = "{1137, 1650}";
}
);
layerId = "9d3a33de-08d4-49ee-85e3-2813f64ed4e4";
paths = (
{
closed = 1;
nodes = (
"1168 0 LINE",
"1168 386 LINE",
"636 386 LINE",
"636 1650 LINE",
"196 1650 LINE",
"196 0 LINE"
);
}
);
width = 1157;
},
{
anchors = (
{
name = bottom;
position = "{623, 0}";
},
{
name = center;
position = "{623, 825}";
},
{
name = top;
position = "{623, 1650}";
},
{
name = topright;
position = "{1225, 1650}";
}
);
layerId = "0ac4930a-26e9-4cfa-a42f-96cf237e936b";
paths = (
{
closed = 1;
nodes = (
"1093 0 LINE",
"1093 50 LINE",
"349 50 LINE",
"349 1650 LINE",
"293 1650 LINE",
"293 0 LINE"
);
}
);
width = 1245;
}
);
rightKerningGroup = _L;
unicode = 004C;
},
{
color = 3;
glyphname = Lslash;
lastChange = "2019-12-19 20:15:28 +0000";
layers = (
{
layerId = "9d3a33de-08d4-49ee-85e3-2813f64ed4e4";
paths = (
{
closed = 1;
nodes = (
"1213 0 LINE",
"1213 386 LINE",
"681 386 LINE",
"681 940 LINE",
"889 1104 LINE",
"889 1462 LINE",
"681 1298 LINE",
"681 1650 LINE",
"241 1650 LINE",
"241 952 LINE",
"93 836 LINE",
"93 478 LINE",
"241 594 LINE",
"241 0 LINE"
);
}
);
width = 1202;
},
{
associatedMasterId = "0ac4930a-26e9-4cfa-a42f-96cf237e936b";
layerId = "9B36E9AF-E41F-4994-92FF-65339C788BE9";
name = public.background;
width = 0;
},
{
layerId = "0ac4930a-26e9-4cfa-a42f-96cf237e936b";
paths = (
{
closed = 1;
nodes = (
"1124 0 LINE",
"1124 50 LINE",
"382 50 LINE",
"382 786 LINE",
"598 956 LINE",
"598 1002 LINE",
"382 832 LINE",
"382 1650 LINE",
"326 1650 LINE",
"326 788 LINE",
"158 656 LINE",
"158 610 LINE",
"326 742 LINE",
"326 0 LINE"
);
}
);
width = 1276;
}
);
rightKerningGroup = _L;
unicode = 0141;
},
{
color = 5;
glyphname = M;
lastChange = "2019-12-19 19:35:46 +0000";
layers = (
{
anchors = (
{
name = bottom;
position = "{1191, 0}";
},
{
name = top;
position = "{1061, 1650}";
}
);
layerId = "9d3a33de-08d4-49ee-85e3-2813f64ed4e4";
paths = (
{
closed = 1;
nodes = (
"571 0 LINE",
"619 866 LINE",
"931 0 LINE",
"1191 0 LINE",
"1503 866 LINE",
"1551 0 LINE",
"1991 0 LINE",
"1861 1650 LINE",
"1393 1650 LINE",
"1061 794 LINE",
"729 1650 LINE",
"261 1650 LINE",
"131 0 LINE"
);
}
);
width = 2122;
},
{
anchors = (
{
name = bottom;
position = "{1057, 134}";
},
{
name = top;
position = "{1027, 1650}";
}
);
layerId = "0ac4930a-26e9-4cfa-a42f-96cf237e936b";
paths = (
{
closed = 1;
nodes = (
"245 0 LINE",
"473 1534 LINE",
"997 134 LINE",
"1057 134 LINE",
"1581 1534 LINE",
"1809 0 LINE",
"1865 0 LINE",
"1623 1650 LINE",
"1563 1650 LINE",
"1027 214 LINE",
"491 1650 LINE",
"431 1650 LINE",
"189 0 LINE"
);
}
);
width = 2054;
}
);
rightKerningGroup = _A1;
unicode = 004D;
},
{
color = 5;
glyphname = N;
lastChange = "2019-12-19 19:35:46 +0000";
layers = (
{
anchors = (
{
name = bottom;
position = "{932, 0}";
},
{
name = top;
position = "{932, 1650}";
}
);
layerId = "9d3a33de-08d4-49ee-85e3-2813f64ed4e4";
paths = (
{
closed = 1;
nodes = (
"636 0 LINE",
"636 920 LINE",
"1228 0 LINE",
"1668 0 LINE",
"1668 1650 LINE",
"1228 1650 LINE",
"1228 730 LINE",
"636 1650 LINE",
"196 1650 LINE",
"196 0 LINE"
);
}
);
width = 1864;
},
{
anchors = (
{
name = bottom;
position = "{841, 0}";
},
{
name = top;
position = "{841, 1650}";
}
);
layerId = "0ac4930a-26e9-4cfa-a42f-96cf237e936b";
paths = (
{
closed = 1;
nodes = (
"349 0 LINE",
"349 1546 LINE",
"1333 0 LINE",
"1389 0 LINE",
"1389 1650 LINE",
"1333 1650 LINE",
"1333 102 LINE",
"349 1650 LINE",
"293 1650 LINE",
"293 0 LINE"
);
}
);
width = 1682;
}
);
rightKerningGroup = _A1;
unicode = 004E;
},
{
color = 4;
glyphname = Eng;
lastChange = "2019-12-19 18:07:22 +0000";
layers = (
{
layerId = "0ac4930a-26e9-4cfa-a42f-96cf237e936b";
paths = (
{
closed = 1;
nodes = (
"1206 -551 OFFCURVE",
"1389 -366 OFFCURVE",
"1389 -55 CURVE SMOOTH",
"1389 1650 LINE",
"1333 1650 LINE",
"1333 102 LINE",
"349 1650 LINE",
"293 1650 LINE",
"293 0 LINE",
"349 0 LINE",
"349 1546 LINE",
"1333 0 LINE",
"1333 -31 LINE SMOOTH",
"1333 -322 OFFCURVE",
"1184 -499 OFFCURVE",
"903 -499 CURVE SMOOTH",
"774 -499 OFFCURVE",
"660 -458 OFFCURVE",
"561 -352 CURVE",
"527 -399 LINE",
"629 -505 OFFCURVE",
"742 -551 OFFCURVE",
"897 -551 CURVE SMOOTH"
);
}
);
width = 1665;
},
{
layerId = "9d3a33de-08d4-49ee-85e3-2813f64ed4e4";
paths = (
{
closed = 1;
nodes = (
"1482 -551 OFFCURVE",
"1668 -371 OFFCURVE",
"1668 -55 CURVE SMOOTH",
"1668 1650 LINE",
"1228 1650 LINE",
"1228 730 LINE",
"636 1650 LINE",
"196 1650 LINE",
"196 0 LINE",
"636 0 LINE",
"636 920 LINE",
"1228 0 LINE",
"1228 -1 LINE SMOOTH",
"1228 -79 OFFCURVE",
"1177 -129 OFFCURVE",
"1098 -129 CURVE SMOOTH",
"1048 -129 OFFCURVE",
"986 -96 OFFCURVE",
"908 -29 CURVE",
"768 -393 LINE",
"885 -501 OFFCURVE",
"1013 -551 OFFCURVE",
"1175 -551 CURVE SMOOTH"
);
}
);
width = 1845;
}
);
rightMetricsKey = J;
unicode = 014A;
},
{
color = 5;
glyphname = O;
lastChange = "2019-12-19 19:35:46 +0000";
layers = (
{
associatedMasterId = "9d3a33de-08d4-49ee-85e3-2813f64ed4e4";
layerId = "cf2a3b8c-bb53-4d9e-827a-d6f64e11d495";
name = public.background;
width = 0;
},
{
anchors = (
{
name = bottom;
position = "{924, 0}";
},
{
name = center;
position = "{894, 825}";
},
{
name = ogonek;
position = "{1006, 10}";
},
{
name = top;
position = "{894, 1680}";
},
{
name = topleft;
position = "{20, 1650}";
},
{
name = topright;
position = "{1768, 1650}";
}
);
layerId = "9d3a33de-08d4-49ee-85e3-2813f64ed4e4";
paths = (
{
closed = 1;
nodes = (
"1355 -32 OFFCURVE",
"1726 349 OFFCURVE",
"1726 824 CURVE SMOOTH",
"1726 1299 OFFCURVE",
"1355 1680 OFFCURVE",
"894 1680 CURVE SMOOTH",
"433 1680 OFFCURVE",
"62 1299 OFFCURVE",
"62 824 CURVE SMOOTH",
"62 349 OFFCURVE",
"433 -32 OFFCURVE",
"894 -32 CURVE SMOOTH"
);
},
{
closed = 1;
nodes = (
"677 392 OFFCURVE",
"536 563 OFFCURVE",
"536 824 CURVE SMOOTH",
"536 1085 OFFCURVE",
"677 1256 OFFCURVE",
"894 1256 CURVE SMOOTH",
"1111 1256 OFFCURVE",
"1252 1085 OFFCURVE",
"1252 824 CURVE SMOOTH",
"1252 563 OFFCURVE",
"1111 392 OFFCURVE",
"894 392 CURVE SMOOTH"
);
}
);
width = 1788;
},
{
associatedMasterId = "0ac4930a-26e9-4cfa-a42f-96cf237e936b";
layerId = "4A6FBE7D-34BB-4AB2-8DEE-42AB1427F406";
name = public.background;
width = 0;
},
{
anchors = (
{
name = bottom;
position = "{1035, 0}";
},
{
name = center;
position = "{1035, 825}";
},
{
name = ogonek;
position = "{1067, 0}";
},
{
name = top;
position = "{1035, 1650}";
},
{
name = topleft;
position = "{20, 1650}";
},
{
name = topright;
position = "{2050, 1650}";
}
);
layerId = "0ac4930a-26e9-4cfa-a42f-96cf237e936b";
paths = (
{
closed = 1;
nodes = (
"1497 -32 OFFCURVE",
"1867 348 OFFCURVE",
"1867 824 CURVE SMOOTH",
"1867 1300 OFFCURVE",
"1497 1680 OFFCURVE",
"1035 1680 CURVE SMOOTH",
"573 1680 OFFCURVE",
"203 1300 OFFCURVE",
"203 824 CURVE SMOOTH",
"203 348 OFFCURVE",
"573 -32 OFFCURVE",
"1035 -32 CURVE SMOOTH"
);
},
{
closed = 1;
nodes = (
"607 22 OFFCURVE",
"263 380 OFFCURVE",
"263 824 CURVE SMOOTH",
"263 1268 OFFCURVE",
"607 1626 OFFCURVE",
"1035 1626 CURVE SMOOTH",
"1463 1626 OFFCURVE",
"1807 1268 OFFCURVE",
"1807 824 CURVE SMOOTH",
"1807 380 OFFCURVE",
"1463 22 OFFCURVE",
"1035 22 CURVE SMOOTH"
);
}
);
width = 2070;
}
);
leftKerningGroup = _O;
rightKerningGroup = _O;
unicode = 004F;
},
{
color = 4;
glyphname = Oslash;
lastChange = "2019-12-19 20:22:01 +0000";
layers = (
{
anchors = (
{
name = bottom;
position = "{944, 0}";
},
{
name = center;
position = "{914, 825}";
},
{
name = ogonek;
position = "{1026, 10}";
},
{
name = top;
position = "{914, 1680}";
},
{
name = topleft;
position = "{40, 1650}";
},
{
name = topright;
position = "{1788, 1650}";
}
);
background = {
paths = (
{
closed = 1;
nodes = (
"1379 -42 OFFCURVE",
"1750 349 OFFCURVE",
"1750 824 CURVE SMOOTH",
"1750 1025 OFFCURVE",
"1684 1215 OFFCURVE",
"1560 1370 CURVE",
"1678 1518 LINE",
"1418 1718 LINE",
"1308 1580 LINE",
"1186 1646 OFFCURVE",
"1054 1680 OFFCURVE",
"918 1680 CURVE SMOOTH",
"457 1680 OFFCURVE",
"86 1299 OFFCURVE",
"86 824 CURVE SMOOTH",
"86 624 OFFCURVE",
"151 434 OFFCURVE",
"272 282 CURVE",
"164 155 LINE",
"424 -35 LINE",
"522 70 LINE",
"642 3 OFFCURVE",
"778 -42 OFFCURVE",
"918 -42 CURVE SMOOTH"
);
},
{
closed = 1;
nodes = (
"876 392 OFFCURVE",
"836 399 OFFCURVE",
"796 412 CURVE",
"1254 986 LINE",
"1269 939 OFFCURVE",
"1276 884 OFFCURVE",
"1276 824 CURVE SMOOTH",
"1276 563 OFFCURVE",
"1135 392 OFFCURVE",
"918 392 CURVE SMOOTH"
);
},
{
closed = 1;
nodes = (
"567 715 OFFCURVE",
"560 768 OFFCURVE",
"560 824 CURVE SMOOTH",
"560 1085 OFFCURVE",
"701 1256 OFFCURVE",
"918 1256 CURVE SMOOTH",
"954 1256 OFFCURVE",
"994 1250 OFFCURVE",
"1034 1238 CURVE",
"580 668 LINE"
);
}
);
};
layerId = "9d3a33de-08d4-49ee-85e3-2813f64ed4e4";
paths = (
{
closed = 1;
nodes = (
"1375 -32 OFFCURVE",
"1746 349 OFFCURVE",
"1746 824 CURVE SMOOTH",
"1746 1299 OFFCURVE",
"1375 1680 OFFCURVE",
"914 1680 CURVE SMOOTH",
"453 1680 OFFCURVE",
"82 1299 OFFCURVE",
"82 824 CURVE SMOOTH",
"82 349 OFFCURVE",
"453 -32 OFFCURVE",
"914 -32 CURVE SMOOTH"
);
},
{
closed = 1;
nodes = (
"697 392 OFFCURVE",
"556 563 OFFCURVE",
"556 824 CURVE SMOOTH",
"556 1085 OFFCURVE",
"697 1256 OFFCURVE",
"914 1256 CURVE SMOOTH",
"1131 1256 OFFCURVE",
"1272 1085 OFFCURVE",
"1272 824 CURVE SMOOTH",
"1272 563 OFFCURVE",
"1131 392 OFFCURVE",
"914 392 CURVE SMOOTH"
);
},
{
closed = 1;
nodes = (
"1678 1518 LINE",
"1418 1718 LINE",
"164 155 LINE",
"424 -35 LINE"
);
}
);
width = 1788;
},
{
associatedMasterId = "0ac4930a-26e9-4cfa-a42f-96cf237e936b";
layerId = "24B4D975-CDE0-42D0-B54D-2E25E0901A39";
name = public.background;
width = 0;
},
{
anchors = (
{
name = bottom;
position = "{1035, 0}";
},
{
name = center;
position = "{1035, 825}";
},
{
name = ogonek;
position = "{1067, 0}";
},
{
name = top;
position = "{1035, 1650}";
},
{
name = topleft;
position = "{20, 1650}";
},
{
name = topright;
position = "{2050, 1650}";
}
);
layerId = "0ac4930a-26e9-4cfa-a42f-96cf237e936b";
paths = (
{
closed = 1;
nodes = (
"1497 -32 OFFCURVE",
"1867 348 OFFCURVE",
"1867 824 CURVE SMOOTH",
"1867 1300 OFFCURVE",
"1497 1680 OFFCURVE",
"1035 1680 CURVE SMOOTH",
"573 1680 OFFCURVE",
"203 1300 OFFCURVE",
"203 824 CURVE SMOOTH",
"203 348 OFFCURVE",
"573 -32 OFFCURVE",
"1035 -32 CURVE SMOOTH"
);
},
{
closed = 1;
nodes = (
"607 22 OFFCURVE",
"263 380 OFFCURVE",
"263 824 CURVE SMOOTH",
"263 1268 OFFCURVE",
"607 1626 OFFCURVE",
"1035 1626 CURVE SMOOTH",
"1463 1626 OFFCURVE",
"1807 1268 OFFCURVE",
"1807 824 CURVE SMOOTH",
"1807 380 OFFCURVE",
"1463 22 OFFCURVE",
"1035 22 CURVE SMOOTH"
);
},
{
closed = 1;
nodes = (
"1685 1610 LINE",
"1639 1644 LINE",
"393 42 LINE",
"437 8 LINE"
);
}
);
width = 2070;
}
);
leftKerningGroup = _O;
rightKerningGroup = _O;
unicode = 00D8;
},
{
color = 4;
glyphname = OE;
lastChange = "2019-12-19 20:23:26 +0000";
layers = (
{
anchors = (
{
name = bottom;
position = "{1080, 0}";
},
{
name = top;
position = "{1080, 1650}";
}
);
layerId = "9d3a33de-08d4-49ee-85e3-2813f64ed4e4";
paths = (
{
closed = 1;
nodes = (
"1992 0 LINE",
"1992 386 LINE",
"1456 386 LINE",
"1456 634 LINE",
"1968 634 LINE",
"1968 1020 LINE",
"1456 1020 LINE",
"1456 1264 LINE",
"1992 1264 LINE",
"1992 1650 LINE",
"1102 1650 LINE SMOOTH",
"399 1650 OFFCURVE",
"60 1318 OFFCURVE",
"60 842 CURVE SMOOTH",
"60 345 OFFCURVE",
"429 0 OFFCURVE",
"892 0 CURVE SMOOTH"
);
},
{
closed = 1;
nodes = (
"703 392 OFFCURVE",
"534 558 OFFCURVE",
"534 828 CURVE SMOOTH",
"534 1108 OFFCURVE",
"717 1258 OFFCURVE",
"1016 1258 CURVE",
"1016 392 LINE"
);
}
);
width = 2160;
},
{
associatedMasterId = "0ac4930a-26e9-4cfa-a42f-96cf237e936b";
layerId = "1DAB9A76-F45F-4D27-ACD2-B4C908BAD40E";
name = public.background;
width = 0;
},
{
anchors = (
{
name = bottom;
position = "{995, 0}";
},
{
name = top;
position = "{995, 1650}";
}
);
layerId = "0ac4930a-26e9-4cfa-a42f-96cf237e936b";
paths = (
{
closed = 1;
nodes = (
"1812 0 LINE",
"1812 50 LINE",
"1084 50 LINE",
"1084 802 LINE",
"1788 802 LINE",
"1788 852 LINE",
"1084 852 LINE",
"1084 1600 LINE",
"1812 1600 LINE",
"1812 1650 LINE",
"1028 1650 LINE SMOOTH",
"566 1650 OFFCURVE",
"202 1292 OFFCURVE",
"202 823 CURVE SMOOTH",
"202 360 OFFCURVE",
"556 0 OFFCURVE",
"1028 0 CURVE SMOOTH"
);
},
{
closed = 1;
nodes = (
"591 52 OFFCURVE",
"262 389 OFFCURVE",
"262 823 CURVE SMOOTH",
"262 1262 OFFCURVE",
"600 1598 OFFCURVE",
"1028 1598 CURVE",
"1028 52 LINE"
);
}
);
width = 1989;
}
);
rightKerningGroup = _A1;
unicode = 0152;
},
{
color = 5;
glyphname = P;
lastChange = "2019-12-19 19:35:46 +0000";
layers = (
{
anchors = (
{
name = bottom;
position = "{724, 0}";
},
{
name = top;
position = "{724, 1650}";
}
);
layerId = "9d3a33de-08d4-49ee-85e3-2813f64ed4e4";
paths = (
{
closed = 1;
nodes = (
"636 0 LINE",
"636 588 LINE",
"848 588 LINE SMOOTH",
"1168 588 OFFCURVE",
"1422 776 OFFCURVE",
"1422 1130 CURVE SMOOTH",
"1422 1486 OFFCURVE",
"1168 1650 OFFCURVE",
"848 1650 CURVE SMOOTH",
"196 1650 LINE",
"196 0 LINE"
);
},
{
closed = 1;
nodes = (
"636 1300 LINE",
"704 1300 LINE SMOOTH",
"822 1300 OFFCURVE",
"958 1272 OFFCURVE",
"958 1116 CURVE SMOOTH",
"958 962 OFFCURVE",
"822 936 OFFCURVE",
"704 936 CURVE SMOOTH",
"636 936 LINE"
);
}
);
width = 1448;
},
{
anchors = (
{
name = bottom;
position = "{672, 0}";
},
{
name = top;
position = "{672, 1650}";
}
);
layerId = "0ac4930a-26e9-4cfa-a42f-96cf237e936b";
paths = (
{
closed = 1;
nodes = (
"349 0 LINE",
"349 736 LINE",
"647 736 LINE SMOOTH",
"971 736 OFFCURVE",
"1157 934 OFFCURVE",
"1157 1202 CURVE SMOOTH",
"1157 1472 OFFCURVE",
"971 1650 OFFCURVE",
"647 1650 CURVE SMOOTH",
"293 1650 LINE",
"293 0 LINE"
);
},
{
closed = 1;
nodes = (
"349 1602 LINE",
"647 1602 LINE SMOOTH",
"937 1602 OFFCURVE",
"1105 1442 OFFCURVE",
"1105 1202 CURVE SMOOTH",
"1105 964 OFFCURVE",
"937 790 OFFCURVE",
"647 790 CURVE SMOOTH",
"349 790 LINE"
);
}
);
width = 1343;
}
);
rightKerningGroup = _A1;
unicode = 0050;
},
{
color = 0;
glyphname = Thorn;
lastChange = "2019-12-19 15:01:24 +0000";
layers = (
{
anchors = (
{
name = bottom;
position = "{724, 0}";
},
{
name = top;
position = "{724, 1650}";
}
);
layerId = "9d3a33de-08d4-49ee-85e3-2813f64ed4e4";
paths = (
{
closed = 1;
nodes = (
"636 0 LINE",
"636 296 LINE",
"848 296 LINE SMOOTH",
"1195 296 OFFCURVE",
"1422 510 OFFCURVE",
"1422 838 CURVE SMOOTH",
"1422 1161 OFFCURVE",
"1204 1358 OFFCURVE",
"848 1358 CURVE SMOOTH",
"636 1358 LINE",
"636 1650 LINE",
"196 1650 LINE",
"196 0 LINE"
);
},
{
closed = 1;
nodes = (
"636 1008 LINE",
"704 1008 LINE SMOOTH",
"864 1008 OFFCURVE",
"946 945 OFFCURVE",
"946 830 CURVE SMOOTH",
"946 710 OFFCURVE",
"857 644 OFFCURVE",
"704 644 CURVE SMOOTH",
"636 644 LINE"
);
}
);
width = 1448;
},
{
associatedMasterId = "0ac4930a-26e9-4cfa-a42f-96cf237e936b";
layerId = "1DECD55D-8EFE-459C-A771-5B930B464758";
name = public.background;
width = 0;
},
{
anchors = (
{
name = bottom;
position = "{672, 0}";
},
{
name = top;
position = "{672, 1650}";
}
);
layerId = "0ac4930a-26e9-4cfa-a42f-96cf237e936b";
paths = (
{
closed = 1;
nodes = (
"349 0 LINE",
"349 358 LINE",
"647 358 LINE SMOOTH",
"971 358 OFFCURVE",
"1157 556 OFFCURVE",
"1157 824 CURVE SMOOTH",
"1157 1094 OFFCURVE",
"971 1272 OFFCURVE",
"647 1272 CURVE SMOOTH",
"349 1272 LINE",
"349 1650 LINE",
"293 1650 LINE",
"293 0 LINE"
);
},
{
closed = 1;
nodes = (
"349 1224 LINE",
"647 1224 LINE SMOOTH",
"937 1224 OFFCURVE",
"1105 1064 OFFCURVE",
"1105 824 CURVE SMOOTH",
"1105 586 OFFCURVE",
"937 412 OFFCURVE",
"647 412 CURVE SMOOTH",
"349 412 LINE"
);
}
);
width = 1343;
}
);
rightKerningGroup = _A1;
unicode = 00DE;
},
{
color = 5;
glyphname = Q;
lastChange = "2019-12-19 19:35:46 +0000";
layers = (
{
associatedMasterId = "9d3a33de-08d4-49ee-85e3-2813f64ed4e4";
layerId = "cf2a3b8c-bb53-4d9e-827a-d6f64e11d495";
name = public.background;
width = 0;
},
{
anchors = (
{
name = bottom;
position = "{936, 0}";
},
{
name = top;
position = "{936, 1650}";
}
);
layerId = "9d3a33de-08d4-49ee-85e3-2813f64ed4e4";
paths = (
{
closed = 1;
nodes = (
"1830 338 LINE",
"1760 356 OFFCURVE",
"1690 378 OFFCURVE",
"1620 404 CURVE",
"1690 532 OFFCURVE",
"1726 674 OFFCURVE",
"1726 824 CURVE SMOOTH",
"1726 1299 OFFCURVE",
"1355 1680 OFFCURVE",
"894 1680 CURVE SMOOTH",
"433 1680 OFFCURVE",
"62 1299 OFFCURVE",
"62 824 CURVE SMOOTH",
"62 349 OFFCURVE",
"433 -32 OFFCURVE",
"894 -32 CURVE SMOOTH",
"1051 -32 OFFCURVE",
"1203 12 OFFCURVE",
"1334 96 CURVE",
"1433 35 OFFCURVE",
"1533 -15 OFFCURVE",
"1636 -54 CURVE"
);
},
{
closed = 1;
nodes = (
"677 392 OFFCURVE",
"536 563 OFFCURVE",
"536 824 CURVE SMOOTH",
"536 1085 OFFCURVE",
"677 1256 OFFCURVE",
"894 1256 CURVE SMOOTH",
"1111 1256 OFFCURVE",
"1252 1085 OFFCURVE",
"1252 824 CURVE SMOOTH",
"1252 753 OFFCURVE",
"1240 683 OFFCURVE",
"1216 620 CURVE",
"1124 683 OFFCURVE",
"1035 760 OFFCURVE",
"954 848 CURVE",
"768 614 LINE",
"820 538 OFFCURVE",
"883 465 OFFCURVE",
"954 396 CURVE",
"937 394 OFFCURVE",
"914 392 OFFCURVE",
"894 392 CURVE SMOOTH"
);
}
);
width = 1871;
},
{
anchors = (
{
name = bottom;
position = "{1009, 0}";
},
{
name = top;
position = "{1009, 1650}";
}
);
layerId = "0ac4930a-26e9-4cfa-a42f-96cf237e936b";
paths = (
{
closed = 1;
nodes = (
"1856 -2 LINE",
"1755 34 OFFCURVE",
"1646 89 OFFCURVE",
"1530 160 CURVE",
"1718 321 OFFCURVE",
"1826 563 OFFCURVE",
"1826 823 CURVE SMOOTH",
"1826 1302 OFFCURVE",
"1459 1680 OFFCURVE",
"995 1680 CURVE SMOOTH",
"530 1680 OFFCURVE",
"162 1299 OFFCURVE",
"162 818 CURVE SMOOTH",
"162 333 OFFCURVE",
"518 -32 OFFCURVE",
"991 -32 CURVE SMOOTH",
"1177 -32 OFFCURVE",
"1348 23 OFFCURVE",
"1488 128 CURVE",
"1605 51 OFFCURVE",
"1721 -10 OFFCURVE",
"1830 -54 CURVE"
);
},
{
closed = 1;
nodes = (
"553 22 OFFCURVE",
"222 365 OFFCURVE",
"222 818 CURVE SMOOTH",
"222 1269 OFFCURVE",
"564 1626 OFFCURVE",
"995 1626 CURVE SMOOTH",
"1425 1626 OFFCURVE",
"1764 1271 OFFCURVE",
"1764 822 CURVE SMOOTH",
"1764 572 OFFCURVE",
"1661 344 OFFCURVE",
"1480 194 CURVE",
"1355 277 OFFCURVE",
"1237 373 OFFCURVE",
"1132 478 CURVE",
"1104 450 LINE",
"1203 345 OFFCURVE",
"1317 247 OFFCURVE",
"1438 162 CURVE",
"1308 70 OFFCURVE",
"1155 22 OFFCURVE",
"990 22 CURVE SMOOTH"
);
}
);
width = 2018;
}
);
rightKerningGroup = _A1;
unicode = 0051;
},
{
color = 5;
glyphname = R;
lastChange = "2019-12-19 19:35:46 +0000";
layers = (
{
anchors = (
{
name = bottom;
position = "{792, 0}";
},
{
name = top;
position = "{792, 1650}";
}
);
layerId = "9d3a33de-08d4-49ee-85e3-2813f64ed4e4";
paths = (
{
closed = 1;
nodes = (
"636 0 LINE",
"636 572 LINE",
"637 572 LINE",
"1080 0 LINE",
"1638 0 LINE",
"1104 626 LINE",
"1309 713 OFFCURVE",
"1422 892 OFFCURVE",
"1422 1128 CURVE SMOOTH",
"1422 1460 OFFCURVE",
"1196 1650 OFFCURVE",
"848 1650 CURVE SMOOTH",
"196 1650 LINE",
"196 0 LINE"
);
},
{
closed = 1;
nodes = (
"636 1300 LINE",
"704 1300 LINE SMOOTH",
"871 1300 OFFCURVE",
"958 1237 OFFCURVE",
"958 1116 CURVE SMOOTH",
"958 997 OFFCURVE",
"872 936 OFFCURVE",
"704 936 CURVE SMOOTH",
"636 936 LINE"
);
}
);
width = 1584;
},
{
associatedMasterId = "0ac4930a-26e9-4cfa-a42f-96cf237e936b";
layerId = "454B1066-9EE6-460C-8752-99282EC1D07B";
name = public.background;
width = 0;
},
{
anchors = (
{
name = bottom;
position = "{668, 0}";
},
{
name = top;
position = "{668, 1650}";
}
);
layerId = "0ac4930a-26e9-4cfa-a42f-96cf237e936b";
paths = (
{
closed = 1;
nodes = (
"349 0 LINE",
"349 736 LINE",
"599 736 LINE",
"1153 0 LINE",
"1225 0 LINE",
"671 736 LINE",
"967 746 OFFCURVE",
"1157 928 OFFCURVE",
"1157 1202 CURVE SMOOTH",
"1157 1479 OFFCURVE",
"962 1650 OFFCURVE",
"647 1650 CURVE SMOOTH",
"293 1650 LINE",
"293 0 LINE"
);
},
{
closed = 1;
nodes = (
"349 1602 LINE",
"647 1602 LINE SMOOTH",
"929 1602 OFFCURVE",
"1105 1448 OFFCURVE",
"1105 1202 CURVE SMOOTH",
"1105 952 OFFCURVE",
"925 790 OFFCURVE",
"647 790 CURVE SMOOTH",
"349 790 LINE"
);
}
);
width = 1336;
}
);
rightKerningGroup = _R;
unicode = 0052;
},
{
color = 5;
glyphname = S;
lastChange = "2019-12-19 20:11:44 +0000";
layers = (
{
associatedMasterId = "9d3a33de-08d4-49ee-85e3-2813f64ed4e4";
layerId = "cf2a3b8c-bb53-4d9e-827a-d6f64e11d495";
name = public.background;
width = 0;
},
{
anchors = (
{
name = bottom;
position = "{652, 0}";
},
{
name = top;
position = "{732, 1680}";
}
);
layerId = "9d3a33de-08d4-49ee-85e3-2813f64ed4e4";
paths = (
{
closed = 1;
nodes = (
"1037 -32 OFFCURVE",
"1288 165 OFFCURVE",
"1288 498 CURVE SMOOTH",
"1288 775 OFFCURVE",
"1117 889 OFFCURVE",
"772 1040 CURVE SMOOTH",
"632 1101 OFFCURVE",
"586 1118 OFFCURVE",
"586 1178 CURVE SMOOTH",
"586 1245 OFFCURVE",
"645 1280 OFFCURVE",
"743 1280 CURVE SMOOTH",
"844 1280 OFFCURVE",
"971 1243 OFFCURVE",
"1076 1184 CURVE",
"1250 1538 LINE",
"1115 1621 OFFCURVE",
"900 1680 OFFCURVE",
"732 1680 CURVE SMOOTH",
"382 1680 OFFCURVE",
"154 1427 OFFCURVE",
"154 1167 CURVE SMOOTH",
"154 979 OFFCURVE",
"274 836 OFFCURVE",
"464 746 CURVE SMOOTH",
"713 628 OFFCURVE",
"804 589 OFFCURVE",
"804 489 CURVE SMOOTH",
"804 412 OFFCURVE",
"749 376 OFFCURVE",
"650 376 CURVE SMOOTH",
"506 376 OFFCURVE",
"335 452 OFFCURVE",
"218 532 CURVE",
"0 158 LINE",
"112 67 OFFCURVE",
"354 -32 OFFCURVE",
"637 -32 CURVE SMOOTH"
);
}
);
width = 1361;
},
{
anchors = (
{
name = bottom;
position = "{727, 0}";
},
{
name = top;
position = "{692, 1660}";
}
);
layerId = "0ac4930a-26e9-4cfa-a42f-96cf237e936b";
paths = (
{
closed = 1;
nodes = (
"960 -32 OFFCURVE",
"1183 126 OFFCURVE",
"1183 411 CURVE SMOOTH",
"1183 723 OFFCURVE",
"919 820 OFFCURVE",
"691 898 CURVE SMOOTH",
"532 952 OFFCURVE",
"317 1026 OFFCURVE",
"317 1257 CURVE SMOOTH",
"317 1438 OFFCURVE",
"449 1628 OFFCURVE",
"690 1628 CURVE SMOOTH",
"873 1628 OFFCURVE",
"999 1518 OFFCURVE",
"1039 1416 CURVE",
"1085 1438 LINE",
"1037 1550 OFFCURVE",
"899 1680 OFFCURVE",
"692 1680 CURVE SMOOTH",
"444 1680 OFFCURVE",
"267 1494 OFFCURVE",
"267 1260 CURVE SMOOTH",
"267 983 OFFCURVE",
"516 901 OFFCURVE",
"665 850 CURVE SMOOTH",
"889 774 OFFCURVE",
"1131 688 OFFCURVE",
"1131 408 CURVE SMOOTH",
"1131 152 OFFCURVE",
"928 20 OFFCURVE",
"695 20 CURVE SMOOTH",
"369 20 OFFCURVE",
"238 279 OFFCURVE",
"213 350 CURVE",
"169 326 LINE",
"188 261 OFFCURVE",
"335 -32 OFFCURVE",
"695 -32 CURVE SMOOTH"
);
}
);
width = 1369;
}
);
leftKerningGroup = _S;
rightKerningGroup = _A1;
unicode = 0053;
},
{
color = 0;
glyphname = Germandbls;
lastChange = "2019-12-19 20:52:11 +0000";
layers = (
{
anchors = (
{
name = bottom;
position = "{617, 0}";
},
{
name = top;
position = "{617, 1650}";
}
);
layerId = "0ac4930a-26e9-4cfa-a42f-96cf237e936b";
paths = (
{
closed = 1;
nodes = (
"1009 -23 OFFCURVE",
"1204 169 OFFCURVE",
"1204 409 CURVE SMOOTH",
"1204 699 OFFCURVE",
"841 671 OFFCURVE",
"841 864 CURVE SMOOTH",
"841 1028 OFFCURVE",
"1102 1021 OFFCURVE",
"1102 1310 CURVE SMOOTH",
"1102 1511 OFFCURVE",
"975 1651 OFFCURVE",
"769 1651 CURVE SMOOTH",
"437 1651 OFFCURVE",
"193 1346 OFFCURVE",
"194 931 CURVE SMOOTH",
"196 0 LINE",
"260 0 LINE",
"257 925 LINE SMOOTH",
"256 1310 OFFCURVE",
"459 1584 OFFCURVE",
"746 1584 CURVE SMOOTH",
"950 1584 OFFCURVE",
"1044 1442 OFFCURVE",
"1044 1305 CURVE SMOOTH",
"1044 1077 OFFCURVE",
"782 1097 OFFCURVE",
"782 848 CURVE SMOOTH",
"782 556 OFFCURVE",
"1140 702 OFFCURVE",
"1140 399 CURVE SMOOTH",
"1140 194 OFFCURVE",
"975 55 OFFCURVE",
"762 55 CURVE SMOOTH",
"630 55 OFFCURVE",
"522 108 OFFCURVE",
"451 202 CURVE",
"409 146 LINE",
"494 47 OFFCURVE",
"605 -23 OFFCURVE",
"767 -23 CURVE SMOOTH"
);
}
);
width = 1200;
},
{
anchors = (
{
name = bottom;
position = "{528, 0}";
},
{
name = top;
position = "{528, 1650}";
}
);
layerId = "9d3a33de-08d4-49ee-85e3-2813f64ed4e4";
paths = (
{
closed = 1;
nodes = (
"1430 -23 OFFCURVE",
"1589 131 OFFCURVE",
"1589 411 CURVE SMOOTH",
"1589 727 OFFCURVE",
"1357 761 OFFCURVE",
"1357 859 CURVE SMOOTH",
"1357 930 OFFCURVE",
"1474 1069 OFFCURVE",
"1474 1270 CURVE SMOOTH",
"1474 1516 OFFCURVE",
"1252 1734 OFFCURVE",
"779 1734 CURVE SMOOTH",
"157 1734 OFFCURVE",
"9 1349 OFFCURVE",
"9 851 CURVE SMOOTH",
"9 1 LINE",
"491 1 LINE",
"491 798 LINE SMOOTH",
"491 1073 OFFCURVE",
"560 1266 OFFCURVE",
"783 1266 CURVE SMOOTH",
"878 1266 OFFCURVE",
"965 1216 OFFCURVE",
"965 1138 CURVE SMOOTH",
"965 1042 OFFCURVE",
"850 1000 OFFCURVE",
"850 860 CURVE SMOOTH",
"850 666 OFFCURVE",
"1102 651 OFFCURVE",
"1102 485 CURVE SMOOTH",
"1102 423 OFFCURVE",
"1055 394 OFFCURVE",
"980 394 CURVE SMOOTH",
"915 394 OFFCURVE",
"793 426 OFFCURVE",
"659 482 CURVE",
"579 59 LINE",
"741 8 OFFCURVE",
"952 -23 OFFCURVE",
"1130 -23 CURVE SMOOTH"
);
}
);
width = 1200;
}
);
unicode = 1E9E;
},
{
color = 5;
glyphname = T;
lastChange = "2019-12-19 20:11:58 +0000";
layers = (
{
anchors = (
{
name = bottom;
position = "{589, 0}";
},
{
name = center;
position = "{569, 825}";
},
{
name = top;
position = "{569, 1650}";
}
);
layerId = "9d3a33de-08d4-49ee-85e3-2813f64ed4e4";
paths = (
{
closed = 1;
nodes = (
"789 0 LINE",
"789 1264 LINE",
"1149 1264 LINE",
"1149 1650 LINE",
"-11 1650 LINE",
"-11 1264 LINE",
"349 1264 LINE",
"349 0 LINE"
);
}
);
width = 1138;
},
{
anchors = (
{
name = bottom;
position = "{760, 0}";
},
{
name = center;
position = "{732, 825}";
},
{
name = top;
position = "{732, 1650}";
}
);
layerId = "0ac4930a-26e9-4cfa-a42f-96cf237e936b";
paths = (
{
closed = 1;
nodes = (
"760 0 LINE",
"760 1594 LINE",
"1312 1594 LINE",
"1312 1650 LINE",
"152 1650 LINE",
"152 1594 LINE",
"704 1594 LINE",
"704 0 LINE"
);
}
);
width = 1464;
}
);
leftKerningGroup = _T;
rightKerningGroup = _T;
unicode = 0054;
},
{
color = 5;
glyphname = U;
lastChange = "2019-12-19 19:35:46 +0000";
layers = (
{
anchors = (
{
name = bottom;
position = "{831, -32}";
},
{
name = ogonek;
position = "{953, 10}";
},
{
name = top;
position = "{832, 1650}";
},
{
name = topright;
position = "{1643, 1650}";
}
);
layerId = "9d3a33de-08d4-49ee-85e3-2813f64ed4e4";
paths = (
{
closed = 1;
nodes = (
"1269 -32 OFFCURVE",
"1497 178 OFFCURVE",
"1497 582 CURVE SMOOTH",
"1497 1650 LINE",
"1057 1650 LINE",
"1057 714 LINE SMOOTH",
"1057 476 OFFCURVE",
"1002 400 OFFCURVE",
"831 400 CURVE SMOOTH",
"660 400 OFFCURVE",
"605 476 OFFCURVE",
"605 714 CURVE SMOOTH",
"605 1650 LINE",
"165 1650 LINE",
"165 582 LINE SMOOTH",
"165 178 OFFCURVE",
"393 -32 OFFCURVE",
"831 -32 CURVE SMOOTH"
);
}
);
width = 1663;
},
{
anchors = (
{
name = bottom;
position = "{812, 0}";
},
{
name = ogonek;
position = "{852, 0}";
},
{
name = top;
position = "{812, 1650}";
},
{
name = topright;
position = "{1352, 1650}";
}
);
layerId = "0ac4930a-26e9-4cfa-a42f-96cf237e936b";
paths = (
{
closed = 1;
nodes = (
"1173 -32 OFFCURVE",
"1352 176 OFFCURVE",
"1352 594 CURVE SMOOTH",
"1352 1650 LINE",
"1296 1650 LINE",
"1296 594 LINE SMOOTH",
"1296 221 OFFCURVE",
"1129 24 OFFCURVE",
"812 24 CURVE SMOOTH",
"495 24 OFFCURVE",
"328 221 OFFCURVE",
"328 594 CURVE SMOOTH",
"328 1650 LINE",
"272 1650 LINE",
"272 594 LINE SMOOTH",
"272 176 OFFCURVE",
"451 -32 OFFCURVE",
"812 -32 CURVE SMOOTH"
);
}
);
width = 1623;
}
);
rightKerningGroup = _A1;
unicode = 0055;
},
{
color = 5;
glyphname = V;
lastChange = "2019-12-19 19:35:46 +0000";
layers = (
{
anchors = (
{
name = bottom;
position = "{821, 0}";
},
{
name = top;
position = "{821, 1650}";
}
);
layerId = "9d3a33de-08d4-49ee-85e3-2813f64ed4e4";
paths = (
{
closed = 1;
nodes = (
"993 0 LINE",
"1685 1650 LINE",
"1189 1650 LINE",
"821 662 LINE",
"453 1650 LINE",
"-43 1650 LINE",
"649 0 LINE"
);
}
);
width = 1642;
},
{
anchors = (
{
name = bottom;
position = "{871, 0}";
},
{
name = top;
position = "{871, 1650}";
}
);
layerId = "0ac4930a-26e9-4cfa-a42f-96cf237e936b";
paths = (
{
closed = 1;
nodes = (
"893 0 LINE",
"1585 1650 LINE",
"1521 1650 LINE",
"871 84 LINE",
"221 1650 LINE",
"157 1650 LINE",
"849 0 LINE"
);
}
);
width = 1742;
}
);
leftKerningGroup = _V;
rightKerningGroup = _V;
unicode = 0056;
},
{
color = 5;
glyphname = W;
lastChange = "2019-12-19 19:35:46 +0000";
layers = (
{
anchors = (
{
name = bottom;
position = "{1150, 0}";
},
{
name = top;
position = "{1150, 1650}";
}
);
layerId = "9d3a33de-08d4-49ee-85e3-2813f64ed4e4";
paths = (
{
closed = 1;
nodes = (
"944 0 LINE",
"1150 804 LINE",
"1356 0 LINE",
"1844 0 LINE",
"2310 1650 LINE",
"1820 1650 LINE",
"1576 610 LINE",
"1314 1650 LINE",
"986 1650 LINE",
"724 610 LINE",
"480 1650 LINE",
"-10 1650 LINE",
"456 0 LINE"
);
}
);
width = 2300;
},
{
anchors = (
{
name = bottom;
position = "{1276, 0}";
},
{
name = top;
position = "{1276, 1650}";
}
);
layerId = "0ac4930a-26e9-4cfa-a42f-96cf237e936b";
paths = (
{
closed = 1;
nodes = (
"728 0 LINE",
"1276 1534 LINE",
"1824 0 LINE",
"1890 0 LINE",
"2388 1650 LINE",
"2326 1650 LINE",
"1858 60 LINE",
"1300 1650 LINE",
"1252 1650 LINE",
"694 60 LINE",
"226 1650 LINE",
"164 1650 LINE",
"662 0 LINE"
);
}
);
width = 2552;
}
);
leftKerningGroup = _V;
rightKerningGroup = _V;
unicode = 0057;
},
{
color = 5;
glyphname = X;
lastChange = "2019-12-19 19:35:46 +0000";
layers = (
{
anchors = (
{
name = bottom;
position = "{840, 0}";
},
{
name = top;
position = "{840, 1650}";
}
);
layerId = "9d3a33de-08d4-49ee-85e3-2813f64ed4e4";
paths = (
{
closed = 1;
nodes = (
"492 0 LINE",
"840 506 LINE",
"1188 0 LINE",
"1732 0 LINE",
"1110 888 LINE",
"1628 1650 LINE",
"1104 1650 LINE",
"840 1252 LINE",
"576 1650 LINE",
"52 1650 LINE",
"570 888 LINE",
"-52 0 LINE"
);
}
);
width = 1680;
},
{
anchors = (
{
name = bottom;
position = "{821, 0}";
},
{
name = top;
position = "{821, 1650}";
}
);
layerId = "0ac4930a-26e9-4cfa-a42f-96cf237e936b";
paths = (
{
closed = 1;
nodes = (
"223 0 LINE",
"821 842 LINE",
"1419 0 LINE",
"1491 0 LINE",
"857 892 LINE",
"1395 1650 LINE",
"1325 1650 LINE",
"821 942 LINE",
"317 1650 LINE",
"247 1650 LINE",
"785 892 LINE",
"151 0 LINE"
);
}
);
width = 1642;
}
);
rightKerningGroup = _A1;
unicode = 0058;
},
{
color = 5;
glyphname = Y;
lastChange = "2019-12-19 19:35:46 +0000";
layers = (
{
anchors = (
{
name = bottom;
position = "{770, 0}";
},
{
name = top;
position = "{770, 1650}";
},
{
name = topleft;
position = "{20, 1650}";
}
);
layerId = "9d3a33de-08d4-49ee-85e3-2813f64ed4e4";
paths = (
{
closed = 1;
nodes = (
"990 0 LINE",
"990 748 LINE",
"1610 1650 LINE",
"1080 1650 LINE",
"770 1192 LINE",
"460 1650 LINE",
"-70 1650 LINE",
"550 748 LINE",
"550 0 LINE"
);
}
);
width = 1540;
},
{
anchors = (
{
name = bottom;
position = "{730, 0}";
},
{
name = top;
position = "{730, 1650}";
},
{
name = topleft;
position = "{152, 1650}";
}
);
layerId = "0ac4930a-26e9-4cfa-a42f-96cf237e936b";
paths = (
{
closed = 1;
nodes = (
"758 0 LINE",
"758 704 LINE",
"1308 1650 LINE",
"1240 1650 LINE",
"730 772 LINE",
"220 1650 LINE",
"152 1650 LINE",
"702 704 LINE",
"702 0 LINE"
);
}
);
width = 1460;
}
);
leftKerningGroup = _Y;
rightKerningGroup = _Y;
unicode = 0059;
},
{
color = 5;
glyphname = Z;
lastChange = "2019-12-19 19:35:46 +0000";
layers = (
{
anchors = (
{
name = bottom;
position = "{758, 0}";
},
{
name = center;
position = "{758, 825}";
},
{
name = top;
position = "{758, 1650}";
}
);
layerId = "9d3a33de-08d4-49ee-85e3-2813f64ed4e4";
paths = (
{
closed = 1;
nodes = (
"1448 0 LINE",
"1448 384 LINE",
"758 384 LINE",
"1500 1650 LINE",
"110 1650 LINE",
"110 1266 LINE",
"734 1266 LINE",
"-8 0 LINE"
);
}
);
width = 1516;
},
{
anchors = (
{
name = bottom;
position = "{805, 0}";
},
{
name = center;
position = "{805, 825}";
},
{
name = top;
position = "{805, 1650}";
}
);
layerId = "0ac4930a-26e9-4cfa-a42f-96cf237e936b";
paths = (
{
closed = 1;
nodes = (
"1397 0 LINE",
"1397 56 LINE",
"263 56 LINE",
"1453 1650 LINE",
"263 1650 LINE",
"263 1594 LINE",
"1341 1594 LINE",
"151 0 LINE"
);
}
);
width = 1609;
}
);
rightKerningGroup = _A1;
unicode = 005A;
},
{
color = 4;
glyphname = M.alt;
lastChange = "2019-12-18 20:36:05 +0000";
layers = (
{
anchors = (
{
name = bottom;
position = "{1068, 0}";
},
{
name = top;
position = "{1068, 1650}";
}
);
layerId = "9d3a33de-08d4-49ee-85e3-2813f64ed4e4";
paths = (
{
closed = 1;
nodes = (
"636 0 LINE",
"636 730 LINE",
"940 0 LINE",
"1196 0 LINE",
"1500 730 LINE",
"1500 0 LINE",
"1940 0 LINE",
"1940 1650 LINE",
"1436 1650 LINE",
"1068 794 LINE",
"700 1650 LINE",
"196 1650 LINE",
"196 0 LINE"
);
}
);
width = 2136;
},
{
anchors = (
{
name = bottom;
position = "{979, 134}";
},
{
name = top;
position = "{949, 1650}";
}
);
layerId = "0ac4930a-26e9-4cfa-a42f-96cf237e936b";
paths = (
{
closed = 1;
nodes = (
"349 0 LINE",
"349 1500 LINE",
"919 134 LINE",
"979 134 LINE",
"1549 1500 LINE",
"1549 0 LINE",
"1605 0 LINE",
"1605 1650 LINE",
"1545 1650 LINE",
"949 214 LINE",
"353 1650 LINE",
"293 1650 LINE",
"293 0 LINE"
);
}
);
width = 1898;
}
);
},
{
color = 4;
glyphname = a;
lastChange = "2019-12-19 20:25:53 +0000";
layers = (
{
anchors = (
{
name = bottom;
position = "{579, -32}";
},
{
name = ogonek;
position = "{1307, 0}";
},
{
name = top;
position = "{779, 1056}";
}
);
layerId = "9d3a33de-08d4-49ee-85e3-2813f64ed4e4";
paths = (
{
closed = 1;
nodes = (
"691 -32 OFFCURVE",
"794 5 OFFCURVE",
"891 80 CURVE",
"891 0 LINE",
"1307 0 LINE",
"1307 1024 LINE",
"891 1024 LINE",
"891 958 LINE",
"809 1020 OFFCURVE",
"696 1056 OFFCURVE",
"579 1056 CURVE SMOOTH",
"281 1056 OFFCURVE",
"73 819 OFFCURVE",
"73 514 CURVE SMOOTH",
"73 197 OFFCURVE",
"299 -32 OFFCURVE",
"579 -32 CURVE SMOOTH"
);
},
{
closed = 1;
nodes = (
"595 320 OFFCURVE",
"513 401 OFFCURVE",
"513 512 CURVE SMOOTH",
"513 622 OFFCURVE",
"596 704 OFFCURVE",
"707 704 CURVE SMOOTH",
"818 704 OFFCURVE",
"899 623 OFFCURVE",
"899 512 CURVE SMOOTH",
"899 401 OFFCURVE",
"819 320 OFFCURVE",
"707 320 CURVE SMOOTH"
);
}
);
width = 1464;
},
{
associatedMasterId = "0ac4930a-26e9-4cfa-a42f-96cf237e936b";
layerId = "85749D19-289E-47ED-9120-BFBCA965247D";
name = public.background;
width = 0;
},
{
anchors = (
{
name = bottom;
position = "{677, -32}";
},
{
name = ogonek;
position = "{1193, 0}";
},
{
name = top;
position = "{747, 1056}";
}
);
layerId = "0ac4930a-26e9-4cfa-a42f-96cf237e936b";
paths = (
{
closed = 1;
nodes = (
"881 -32 OFFCURVE",
"1053 79 OFFCURVE",
"1137 262 CURVE",
"1137 0 LINE",
"1193 0 LINE",
"1193 1024 LINE",
"1137 1024 LINE",
"1137 762 LINE",
"1061 945 OFFCURVE",
"884 1056 OFFCURVE",
"677 1056 CURVE SMOOTH",
"385 1056 OFFCURVE",
"165 827 OFFCURVE",
"165 512 CURVE SMOOTH",
"165 197 OFFCURVE",
"385 -32 OFFCURVE",
"677 -32 CURVE SMOOTH"
);
},
{
closed = 1;
nodes = (
"413 20 OFFCURVE",
"219 226 OFFCURVE",
"219 512 CURVE SMOOTH",
"219 799 OFFCURVE",
"412 1004 OFFCURVE",
"681 1004 CURVE SMOOTH",
"951 1004 OFFCURVE",
"1143 800 OFFCURVE",
"1143 512 CURVE SMOOTH",
"1143 225 OFFCURVE",
"950 20 OFFCURVE",
"681 20 CURVE SMOOTH"
);
}
);
width = 1428;
}
);
leftKerningGroup = _a;
rightKerningGroup = _a;
unicode = 0061;
},
{
color = 3;
glyphname = ae;
lastChange = "2019-12-19 20:37:32 +0000";
layers = (
{
associatedMasterId = "9d3a33de-08d4-49ee-85e3-2813f64ed4e4";
layerId = "cf2a3b8c-bb53-4d9e-827a-d6f64e11d495";
name = public.background;
width = 0;
},
{
anchors = (
{
name = bottom;
position = "{929, 0}";
},
{
name = top;
position = "{929, 1024}";
}
);
layerId = "9d3a33de-08d4-49ee-85e3-2813f64ed4e4";
paths = (
{
closed = 1;
nodes = (
"552 -32 OFFCURVE",
"668 -1 OFFCURVE",
"912 94 CURVE",
"1033 7 OFFCURVE",
"1156 -32 OFFCURVE",
"1306 -32 CURVE SMOOTH",
"1542 -32 OFFCURVE",
"1729 65 OFFCURVE",
"1830 240 CURVE",
"1532 388 LINE",
"1459 317 OFFCURVE",
"1416 296 OFFCURVE",
"1341 296 CURVE SMOOTH",
"1218 296 OFFCURVE",
"1148 353 OFFCURVE",
"1148 454 CURVE",
"1842 454 LINE",
"1845 497 OFFCURVE",
"1846 508 OFFCURVE",
"1846 528 CURVE SMOOTH",
"1846 846 OFFCURVE",
"1627 1056 OFFCURVE",
"1297 1056 CURVE SMOOTH",
"1173 1056 OFFCURVE",
"1058 1027 OFFCURVE",
"952 968 CURVE",
"852 1024 OFFCURVE",
"699 1056 OFFCURVE",
"539 1056 CURVE SMOOTH",
"382 1056 OFFCURVE",
"237 1025 OFFCURVE",
"132 968 CURVE",
"258 684 LINE",
"317 707 OFFCURVE",
"440 728 OFFCURVE",
"513 728 CURVE SMOOTH",
"634 728 OFFCURVE",
"728 670 OFFCURVE",
"728 594 CURVE SMOOTH",
"728 534 LINE",
"647 572 OFFCURVE",
"536 596 OFFCURVE",
"442 596 CURVE SMOOTH",
"218 596 OFFCURVE",
"64 466 OFFCURVE",
"64 277 CURVE SMOOTH",
"64 82 OFFCURVE",
"201 -32 OFFCURVE",
"438 -32 CURVE SMOOTH"
);
},
{
closed = 1;
nodes = (
"534 214 OFFCURVE",
"476 253 OFFCURVE",
"476 302 CURVE SMOOTH",
"476 348 OFFCURVE",
"529 380 OFFCURVE",
"603 380 CURVE SMOOTH",
"680 380 OFFCURVE",
"742 343 OFFCURVE",
"742 296 CURVE SMOOTH",
"742 250 OFFCURVE",
"683 214 OFFCURVE",
"609 214 CURVE SMOOTH"
);
},
{
closed = 1;
nodes = (
"1162 739 OFFCURVE",
"1214 780 OFFCURVE",
"1302 780 CURVE SMOOTH",
"1384 780 OFFCURVE",
"1427 745 OFFCURVE",
"1440 670 CURVE",
"1160 670 LINE"
);
}
);
width = 1923;
},
{
associatedMasterId = "0ac4930a-26e9-4cfa-a42f-96cf237e936b";
layerId = "4D135760-AEA2-49D4-A503-6756D0395E28";
name = public.background;
width = 0;
},
{
anchors = (
{
name = bottom;
position = "{1049, 0}";
},
{
name = top;
position = "{1049, 1026}";
}
);
layerId = "0ac4930a-26e9-4cfa-a42f-96cf237e936b";
paths = (
{
closed = 1;
nodes = (
"762 -32 OFFCURVE",
"921 81 OFFCURVE",
"960 258 CURVE",
"1049 77 OFFCURVE",
"1232 -32 OFFCURVE",
"1448 -32 CURVE SMOOTH",
"1644 -32 OFFCURVE",
"1814 57 OFFCURVE",
"1912 212 CURVE",
"1868 240 LINE",
"1782 101 OFFCURVE",
"1628 20 OFFCURVE",
"1448 20 CURVE SMOOTH",
"1161 20 OFFCURVE",
"954 227 OFFCURVE",
"954 512 CURVE",
"1954 512 LINE",
"1954 514 OFFCURVE",
"1954 515 OFFCURVE",
"1954 518 CURVE SMOOTH",
"1951 816 OFFCURVE",
"1716 1056 OFFCURVE",
"1428 1056 CURVE SMOOTH",
"1216 1056 OFFCURVE",
"1036 926 OFFCURVE",
"950 740 CURVE",
"923 915 OFFCURVE",
"795 1056 OFFCURVE",
"561 1056 CURVE SMOOTH",
"428 1056 OFFCURVE",
"303 1010 OFFCURVE",
"208 892 CURVE",
"248 860 LINE",
"326 945 OFFCURVE",
"416 1006 OFFCURVE",
"558 1006 CURVE SMOOTH",
"773 1006 OFFCURVE",
"904 866 OFFCURVE",
"904 622 CURVE SMOOTH",
"904 478 LINE",
"834 574 OFFCURVE",
"706 634 OFFCURVE",
"554 634 CURVE SMOOTH",
"324 634 OFFCURVE",
"146 498 OFFCURVE",
"146 300 CURVE SMOOTH",
"146 99 OFFCURVE",
"328 -32 OFFCURVE",
"552 -32 CURVE SMOOTH"
);
},
{
closed = 1;
nodes = (
"358 20 OFFCURVE",
"198 132 OFFCURVE",
"198 302 CURVE SMOOTH",
"198 472 OFFCURVE",
"358 582 OFFCURVE",
"554 582 CURVE SMOOTH",
"750 582 OFFCURVE",
"910 472 OFFCURVE",
"910 302 CURVE SMOOTH",
"910 132 OFFCURVE",
"750 20 OFFCURVE",
"554 20 CURVE SMOOTH"
);
},
{
closed = 1;
nodes = (
"980 812 OFFCURVE",
"1183 1004 OFFCURVE",
"1428 1004 CURVE SMOOTH",
"1673 1004 OFFCURVE",
"1874 812 OFFCURVE",
"1898 562 CURVE",
"956 562 LINE"
);
}
);
width = 2098;
}
);
rightKerningGroup = _A1;
unicode = 00E6;
},
{
color = 4;
glyphname = b;
lastChange = "2019-12-18 17:07:15 +0000";
layers = (
{
anchors = (
{
name = bottom;
position = "{733, 0}";
},
{
name = top;
position = "{733, 1720}";
}
);
layerId = "9d3a33de-08d4-49ee-85e3-2813f64ed4e4";
paths = (
{
closed = 1;
nodes = (
"1162 -32 OFFCURVE",
"1391 191 OFFCURVE",
"1391 512 CURVE SMOOTH",
"1391 822 OFFCURVE",
"1177 1056 OFFCURVE",
"879 1056 CURVE SMOOTH",
"762 1056 OFFCURVE",
"653 1020 OFFCURVE",
"573 958 CURVE",
"573 1720 LINE",
"157 1720 LINE",
"157 0 LINE",
"573 0 LINE",
"573 80 LINE",
"666 8 OFFCURVE",
"775 -32 OFFCURVE",
"890 -32 CURVE SMOOTH"
);
},
{
closed = 1;
nodes = (
"646 320 OFFCURVE",
"565 401 OFFCURVE",
"565 510 CURVE SMOOTH",
"565 621 OFFCURVE",
"649 704 OFFCURVE",
"759 704 CURVE SMOOTH",
"868 704 OFFCURVE",
"951 621 OFFCURVE",
"951 509 CURVE SMOOTH",
"951 400 OFFCURVE",
"873 320 OFFCURVE",
"760 320 CURVE SMOOTH"
);
}
);
width = 1465;
},
{
associatedMasterId = "0ac4930a-26e9-4cfa-a42f-96cf237e936b";
layerId = "A9201882-7FF0-4238-AD99-0293326F994A";
name = public.background;
width = 0;
},
{
anchors = (
{
name = bottom;
position = "{714, 0}";
},
{
name = top;
position = "{714, 1720}";
}
);
layerId = "0ac4930a-26e9-4cfa-a42f-96cf237e936b";
paths = (
{
closed = 1;
nodes = (
"1043 -32 OFFCURVE",
"1263 197 OFFCURVE",
"1263 512 CURVE SMOOTH",
"1263 827 OFFCURVE",
"1043 1056 OFFCURVE",
"751 1056 CURVE SMOOTH",
"547 1056 OFFCURVE",
"375 945 OFFCURVE",
"291 762 CURVE",
"291 1720 LINE",
"235 1720 LINE",
"235 0 LINE",
"291 0 LINE",
"291 262 LINE",
"375 79 OFFCURVE",
"547 -32 OFFCURVE",
"751 -32 CURVE SMOOTH"
);
},
{
closed = 1;
nodes = (
"478 20 OFFCURVE",
"285 225 OFFCURVE",
"285 512 CURVE SMOOTH",
"285 800 OFFCURVE",
"477 1004 OFFCURVE",
"747 1004 CURVE SMOOTH",
"1016 1004 OFFCURVE",
"1209 799 OFFCURVE",
"1209 512 CURVE SMOOTH",
"1209 226 OFFCURVE",
"1015 20 OFFCURVE",
"747 20 CURVE SMOOTH"
);
}
);
width = 1428;
}
);
rightKerningGroup = _b;
unicode = 0062;
},
{
color = 4;
glyphname = c;
lastChange = "2019-12-19 20:26:23 +0000";
layers = (
{
anchors = (
{
name = bottom;
position = "{649, 18}";
},
{
name = top;
position = "{567, 1056}";
}
);
layerId = "9d3a33de-08d4-49ee-85e3-2813f64ed4e4";
paths = (
{
closed = 1;
nodes = (
"771 -32 OFFCURVE",
"900 10 OFFCURVE",
"969 60 CURVE",
"833 340 LINE",
"807 322 OFFCURVE",
"760 306 OFFCURVE",
"707 306 CURVE SMOOTH",
"576 306 OFFCURVE",
"495 402 OFFCURVE",
"495 512 CURVE SMOOTH",
"495 600 OFFCURVE",
"557 718 OFFCURVE",
"705 718 CURVE SMOOTH",
"754 718 OFFCURVE",
"802 705 OFFCURVE",
"833 684 CURVE",
"969 964 LINE",
"902 1014 OFFCURVE",
"768 1056 OFFCURVE",
"637 1056 CURVE SMOOTH",
"303 1056 OFFCURVE",
"55 788 OFFCURVE",
"55 511 CURVE SMOOTH",
"55 214 OFFCURVE",
"325 -32 OFFCURVE",
"639 -32 CURVE SMOOTH"
);
}
);
width = 1010;
},
{
anchors = (
{
name = bottom;
position = "{714, 10}";
},
{
name = top;
position = "{709, 1056}";
}
);
layerId = "0ac4930a-26e9-4cfa-a42f-96cf237e936b";
paths = (
{
closed = 1;
nodes = (
"845 -32 OFFCURVE",
"967 12 OFFCURVE",
"1063 88 CURVE",
"1027 126 LINE",
"941 56 OFFCURVE",
"831 20 OFFCURVE",
"710 20 CURVE SMOOTH",
"420 20 OFFCURVE",
"215 229 OFFCURVE",
"215 512 CURVE SMOOTH",
"215 798 OFFCURVE",
"423 1004 OFFCURVE",
"709 1004 CURVE SMOOTH",
"831 1004 OFFCURVE",
"941 968 OFFCURVE",
"1029 898 CURVE",
"1063 936 LINE",
"969 1012 OFFCURVE",
"845 1056 OFFCURVE",
"709 1056 CURVE SMOOTH",
"401 1056 OFFCURVE",
"163 832 OFFCURVE",
"163 512 CURVE SMOOTH",
"163 194 OFFCURVE",
"401 -32 OFFCURVE",
"709 -32 CURVE SMOOTH"
);
}
);
width = 1187;
}
);
leftKerningGroup = _c;
rightKerningGroup = _c;
unicode = 0063;
},
{
color = 4;
glyphname = d;
lastChange = "2019-12-19 20:26:56 +0000";
layers = (
{
anchors = (
{
name = bottom;
position = "{591, 0}";
},
{
name = center;
position = "{732, 512}";
},
{
name = top;
position = "{632, 1547}";
},
{
name = topright;
position = "{1307, 1720}";
}
);
layerId = "9d3a33de-08d4-49ee-85e3-2813f64ed4e4";
paths = (
{
closed = 1;
nodes = (
"689 -32 OFFCURVE",
"798 8 OFFCURVE",
"891 80 CURVE",
"891 0 LINE",
"1307 0 LINE",
"1307 1720 LINE",
"891 1720 LINE",
"891 958 LINE",
"811 1020 OFFCURVE",
"702 1056 OFFCURVE",
"585 1056 CURVE SMOOTH",
"287 1056 OFFCURVE",
"73 822 OFFCURVE",
"73 512 CURVE SMOOTH",
"73 191 OFFCURVE",
"302 -32 OFFCURVE",
"574 -32 CURVE SMOOTH"
);
},
{
closed = 1;
nodes = (
"591 320 OFFCURVE",
"513 400 OFFCURVE",
"513 509 CURVE SMOOTH",
"513 621 OFFCURVE",
"596 704 OFFCURVE",
"706 704 CURVE SMOOTH",
"815 704 OFFCURVE",
"899 621 OFFCURVE",
"899 510 CURVE SMOOTH",
"899 401 OFFCURVE",
"818 320 OFFCURVE",
"704 320 CURVE SMOOTH"
);
}
);
width = 1464;
},
{
associatedMasterId = "0ac4930a-26e9-4cfa-a42f-96cf237e936b";
layerId = "8AE301AE-D628-465F-B848-DA025172E735";
name = public.background;
width = 0;
},
{
anchors = (
{
name = bottom;
position = "{673, 0}";
},
{
name = center;
position = "{714, 513}";
},
{
name = top;
position = "{657, 1266}";
},
{
name = topright;
position = "{1193, 1722}";
}
);
layerId = "0ac4930a-26e9-4cfa-a42f-96cf237e936b";
paths = (
{
closed = 1;
nodes = (
"881 -32 OFFCURVE",
"1053 79 OFFCURVE",
"1137 262 CURVE",
"1137 0 LINE",
"1193 0 LINE",
"1193 1722 LINE",
"1137 1722 LINE",
"1137 762 LINE",
"1053 945 OFFCURVE",
"881 1056 OFFCURVE",
"677 1056 CURVE SMOOTH",
"385 1056 OFFCURVE",
"165 827 OFFCURVE",
"165 512 CURVE SMOOTH",
"165 197 OFFCURVE",
"385 -32 OFFCURVE",
"677 -32 CURVE SMOOTH"
);
},
{
closed = 1;
nodes = (
"413 20 OFFCURVE",
"219 226 OFFCURVE",
"219 512 CURVE SMOOTH",
"219 799 OFFCURVE",
"412 1004 OFFCURVE",
"681 1004 CURVE SMOOTH",
"951 1004 OFFCURVE",
"1143 800 OFFCURVE",
"1143 512 CURVE SMOOTH",
"1143 225 OFFCURVE",
"950 20 OFFCURVE",
"681 20 CURVE SMOOTH"
);
}
);
width = 1428;
}
);
leftKerningGroup = _d;
rightKerningGroup = _A1;
unicode = 0064;
},
{
color = 3;
glyphname = eth;
lastChange = "2019-12-19 20:37:36 +0000";
layers = (
{
layerId = "9d3a33de-08d4-49ee-85e3-2813f64ed4e4";
paths = (
{
closed = 1;
nodes = (
"1059 -32 OFFCURVE",
"1321 196 OFFCURVE",
"1321 512 CURVE SMOOTH",
"1321 1002 OFFCURVE",
"1033 1296 OFFCURVE",
"767 1476 CURVE",
"861 1570 LINE",
"687 1750 LINE",
"543 1608 LINE",
"407 1677 OFFCURVE",
"257 1725 OFFCURVE",
"149 1750 CURVE",
"53 1402 LINE",
"100 1392 OFFCURVE",
"182 1368 OFFCURVE",
"265 1330 CURVE",
"145 1212 LINE",
"323 1034 LINE",
"491 1200 LINE",
"553 1160 OFFCURVE",
"625 1118 OFFCURVE",
"695 1070 CURVE",
"687 1071 OFFCURVE",
"673 1072 OFFCURVE",
"663 1072 CURVE SMOOTH",
"413 1072 OFFCURVE",
"63 898 OFFCURVE",
"63 512 CURVE SMOOTH",
"63 512 LINE SMOOTH",
"63 196 OFFCURVE",
"313 -32 OFFCURVE",
"695 -32 CURVE SMOOTH"
);
},
{
closed = 1;
nodes = (
"579 322 OFFCURVE",
"505 402 OFFCURVE",
"505 512 CURVE SMOOTH",
"505 512 LINE SMOOTH",
"505 626 OFFCURVE",
"591 704 OFFCURVE",
"693 704 CURVE SMOOTH",
"793 704 OFFCURVE",
"879 626 OFFCURVE",
"879 512 CURVE SMOOTH",
"879 402 OFFCURVE",
"801 322 OFFCURVE",
"693 322 CURVE SMOOTH"
);
}
);
width = 1410;
},
{
layerId = "0ac4930a-26e9-4cfa-a42f-96cf237e936b";
paths = (
{
closed = 1;
nodes = (
"1021 -32 OFFCURVE",
"1259 192 OFFCURVE",
"1259 512 CURVE SMOOTH",
"1259 968 OFFCURVE",
"1117 1330 OFFCURVE",
"837 1562 CURVE",
"987 1710 LINE",
"947 1750 LINE",
"793 1596 LINE",
"707 1660 OFFCURVE",
"611 1710 OFFCURVE",
"503 1750 CURVE",
"483 1698 LINE",
"581 1662 OFFCURVE",
"673 1616 OFFCURVE",
"753 1556 CURVE",
"605 1408 LINE",
"645 1368 LINE",
"799 1522 LINE",
"997 1362 OFFCURVE",
"1135 1122 OFFCURVE",
"1185 798 CURVE",
"1091 958 OFFCURVE",
"917 1056 OFFCURVE",
"711 1056 CURVE SMOOTH",
"401 1056 OFFCURVE",
"163 834 OFFCURVE",
"163 512 CURVE SMOOTH",
"163 512 LINE",
"163 192 OFFCURVE",
"401 -32 OFFCURVE",
"711 -32 CURVE SMOOTH"
);
},
{
closed = 1;
nodes = (
"423 20 OFFCURVE",
"215 226 OFFCURVE",
"215 512 CURVE SMOOTH",
"215 512 LINE",
"215 798 OFFCURVE",
"423 1004 OFFCURVE",
"711 1004 CURVE SMOOTH",
"997 1004 OFFCURVE",
"1207 798 OFFCURVE",
"1207 512 CURVE SMOOTH",
"1207 226 OFFCURVE",
"997 20 OFFCURVE",
"711 20 CURVE SMOOTH"
);
}
);
width = 1446;
}
);
rightKerningGroup = _A1;
unicode = 00F0;
},
{
color = 3;
glyphname = dcroat;
lastChange = "2019-12-19 20:37:36 +0000";
layers = (
{
layerId = "9d3a33de-08d4-49ee-85e3-2813f64ed4e4";
paths = (
{
closed = 1;
nodes = (
"703 -32 OFFCURVE",
"811 18 OFFCURVE",
"891 80 CURVE",
"891 0 LINE",
"1307 0 LINE",
"1307 1238 LINE",
"1409 1238 LINE",
"1409 1502 LINE",
"1307 1502 LINE",
"1307 1720 LINE",
"891 1720 LINE",
"891 1502 LINE",
"685 1502 LINE",
"685 1238 LINE",
"891 1238 LINE",
"891 958 LINE",
"807 1022 OFFCURVE",
"703 1056 OFFCURVE",
"579 1056 CURVE SMOOTH",
"277 1056 OFFCURVE",
"73 808 OFFCURVE",
"73 512 CURVE SMOOTH",
"73 512 LINE SMOOTH",
"73 216 OFFCURVE",
"277 -32 OFFCURVE",
"579 -32 CURVE SMOOTH"
);
},
{
closed = 1;
nodes = (
"587 320 OFFCURVE",
"513 402 OFFCURVE",
"513 512 CURVE SMOOTH",
"513 512 LINE SMOOTH",
"513 624 OFFCURVE",
"599 704 OFFCURVE",
"707 704 CURVE SMOOTH",
"811 704 OFFCURVE",
"899 624 OFFCURVE",
"899 512 CURVE SMOOTH",
"899 402 OFFCURVE",
"819 320 OFFCURVE",
"707 320 CURVE SMOOTH"
);
}
);
width = 1464;
},
{
associatedMasterId = "0ac4930a-26e9-4cfa-a42f-96cf237e936b";
layerId = "E9E42ED3-124F-4592-B713-AD83ACDB9252";
name = public.background;
width = 0;
},
{
layerId = "0ac4930a-26e9-4cfa-a42f-96cf237e936b";
paths = (
{
closed = 1;
nodes = (
"885 -32 OFFCURVE",
"1055 82 OFFCURVE",
"1137 262 CURVE",
"1137 0 LINE",
"1193 0 LINE",
"1193 1348 LINE",
"1393 1348 LINE",
"1393 1394 LINE",
"1193 1394 LINE",
"1193 1722 LINE",
"1137 1722 LINE",
"1137 1394 LINE",
"669 1394 LINE",
"669 1348 LINE",
"1137 1348 LINE",
"1137 762 LINE",
"1055 942 OFFCURVE",
"885 1056 OFFCURVE",
"679 1056 CURVE SMOOTH",
"389 1056 OFFCURVE",
"165 832 OFFCURVE",
"165 512 CURVE SMOOTH",
"165 512 LINE",
"165 192 OFFCURVE",
"389 -32 OFFCURVE",
"679 -32 CURVE SMOOTH"
);
},
{
closed = 1;
nodes = (
"415 20 OFFCURVE",
"219 224 OFFCURVE",
"219 512 CURVE SMOOTH",
"219 512 LINE SMOOTH",
"219 802 OFFCURVE",
"415 1004 OFFCURVE",
"681 1004 CURVE SMOOTH",
"949 1004 OFFCURVE",
"1143 802 OFFCURVE",
"1143 512 CURVE SMOOTH",
"1143 224 OFFCURVE",
"949 20 OFFCURVE",
"681 20 CURVE SMOOTH"
);
}
);
width = 1428;
}
);
rightKerningGroup = _A1;
unicode = 0111;
},
{
color = 4;
glyphname = e;
lastChange = "2019-12-19 18:21:56 +0000";
layers = (
{
anchors = (
{
name = bottom;
position = "{724, 0}";
},
{
name = ogonek;
position = "{755, 10}";
},
{
name = top;
position = "{649, 1056}";
}
);
layerId = "9d3a33de-08d4-49ee-85e3-2813f64ed4e4";
paths = (
{
closed = 1;
nodes = (
"886 -32 OFFCURVE",
"1077 73 OFFCURVE",
"1171 240 CURVE",
"873 388 LINE",
"799 316 OFFCURVE",
"755 296 OFFCURVE",
"682 296 CURVE SMOOTH",
"550 296 OFFCURVE",
"489 364 OFFCURVE",
"489 454 CURVE",
"1183 454 LINE",
"1186 490 OFFCURVE",
"1187 507 OFFCURVE",
"1187 527 CURVE SMOOTH",
"1187 842 OFFCURVE",
"970 1056 OFFCURVE",
"649 1056 CURVE SMOOTH",
"307 1056 OFFCURVE",
"59 813 OFFCURVE",
"59 514 CURVE SMOOTH",
"59 221 OFFCURVE",
"299 -32 OFFCURVE",
"656 -32 CURVE SMOOTH"
);
},
{
closed = 1;
nodes = (
"503 740 OFFCURVE",
"555 780 OFFCURVE",
"643 780 CURVE SMOOTH",
"724 780 OFFCURVE",
"768 745 OFFCURVE",
"781 670 CURVE",
"501 670 LINE"
);
}
);
width = 1264;
},
{
anchors = (
{
name = bottom;
position = "{735, 0}";
},
{
name = ogonek;
position = "{735, 0}";
},
{
name = top;
position = "{679, 1026}";
}
);
layerId = "0ac4930a-26e9-4cfa-a42f-96cf237e936b";
paths = (
{
closed = 1;
nodes = (
"905 -32 OFFCURVE",
"1074 57 OFFCURVE",
"1172 212 CURVE",
"1128 240 LINE",
"1042 101 OFFCURVE",
"888 20 OFFCURVE",
"708 20 CURVE SMOOTH",
"421 20 OFFCURVE",
"214 227 OFFCURVE",
"214 512 CURVE",
"1214 512 LINE",
"1214 514 OFFCURVE",
"1214 523 OFFCURVE",
"1214 523 CURVE SMOOTH",
"1214 523 OFFCURVE",
"1202 1056 OFFCURVE",
"657 1056 CURVE SMOOTH",
"443 1056 OFFCURVE",
"162 845 OFFCURVE",
"162 508 CURVE SMOOTH",
"162 207 OFFCURVE",
"387 -32 OFFCURVE",
"708 -32 CURVE SMOOTH"
);
},
{
closed = 1;
nodes = (
"240 812 OFFCURVE",
"442 1004 OFFCURVE",
"688 1004 CURVE SMOOTH",
"932 1004 OFFCURVE",
"1134 812 OFFCURVE",
"1158 562 CURVE",
"216 562 LINE"
);
}
);
width = 1358;
}
);
leftKerningGroup = _c;
rightKerningGroup = _c;
unicode = 0065;
},
{
color = 4;
glyphname = f;
lastChange = "2019-12-19 18:22:19 +0000";
layers = (
{
anchors = (
{
name = bottom;
position = "{444, 0}";
},
{
name = top;
position = "{662, 1720}";
}
);
layerId = "9d3a33de-08d4-49ee-85e3-2813f64ed4e4";
paths = (
{
closed = 1;
nodes = (
"634 0 LINE",
"634 708 LINE",
"862 708 LINE",
"862 1024 LINE",
"634 1024 LINE",
"634 1188 LINE SMOOTH",
"634 1298 OFFCURVE",
"634 1382 OFFCURVE",
"732 1382 CURVE SMOOTH",
"764 1382 OFFCURVE",
"802 1373 OFFCURVE",
"832 1358 CURVE",
"976 1648 LINE",
"896 1711 OFFCURVE",
"773 1750 OFFCURVE",
"658 1750 CURVE SMOOTH",
"386 1750 OFFCURVE",
"218 1530 OFFCURVE",
"218 1202 CURVE SMOOTH",
"218 1024 LINE",
"58 1024 LINE",
"58 708 LINE",
"218 708 LINE",
"218 0 LINE"
);
}
);
width = 887;
},
{
associatedMasterId = "0ac4930a-26e9-4cfa-a42f-96cf237e936b";
layerId = "945C0794-60C4-4F50-9C0C-49732EF9DCEE";
name = public.background;
width = 0;
},
{
anchors = (
{
name = bottom;
position = "{275, 0}";
},
{
name = top;
position = "{474, 1720}";
}
);
layerId = "0ac4930a-26e9-4cfa-a42f-96cf237e936b";
paths = (
{
closed = 1;
nodes = (
"298 0 LINE",
"298 982 LINE",
"570 982 LINE",
"570 1024 LINE",
"298 1024 LINE",
"298 1464 LINE SMOOTH",
"298 1526 OFFCURVE",
"298 1702 OFFCURVE",
"480 1702 CURVE SMOOTH",
"530 1702 OFFCURVE",
"573 1689 OFFCURVE",
"604 1662 CURVE",
"624 1704 LINE",
"585 1735 OFFCURVE",
"535 1750 OFFCURVE",
"474 1750 CURVE SMOOTH",
"320 1750 OFFCURVE",
"242 1651 OFFCURVE",
"242 1454 CURVE SMOOTH",
"242 1024 LINE",
"158 1024 LINE",
"158 982 LINE",
"242 982 LINE",
"242 0 LINE"
);
}
);
width = 670;
}
);
rightKerningGroup = _A1;
unicode = 0066;
},
{
color = 4;
glyphname = g;
lastChange = "2019-12-19 18:22:39 +0000";
layers = (
{
associatedMasterId = "9d3a33de-08d4-49ee-85e3-2813f64ed4e4";
layerId = "cf2a3b8c-bb53-4d9e-827a-d6f64e11d495";
name = public.background;
width = 0;
},
{
anchors = (
{
name = bottom;
position = "{752, -520}";
},
{
name = top;
position = "{732, 1024}";
}
);
layerId = "9d3a33de-08d4-49ee-85e3-2813f64ed4e4";
paths = (
{
closed = 1;
nodes = (
"1125 -550 OFFCURVE",
"1307 -305 OFFCURVE",
"1307 -28 CURVE SMOOTH",
"1307 1024 LINE",
"891 1024 LINE",
"891 958 LINE",
"811 1020 OFFCURVE",
"702 1056 OFFCURVE",
"585 1056 CURVE SMOOTH",
"287 1056 OFFCURVE",
"73 822 OFFCURVE",
"73 512 CURVE SMOOTH",
"73 191 OFFCURVE",
"302 -32 OFFCURVE",
"574 -32 CURVE SMOOTH",
"689 -32 OFFCURVE",
"798 8 OFFCURVE",
"891 80 CURVE",
"891 8 LINE SMOOTH",
"891 -101 OFFCURVE",
"809 -190 OFFCURVE",
"677 -190 CURVE SMOOTH",
"588 -190 OFFCURVE",
"495 -150 OFFCURVE",
"445 -86 CURVE",
"109 -252 LINE",
"193 -448 OFFCURVE",
"391 -550 OFFCURVE",
"679 -550 CURVE SMOOTH"
);
},
{
closed = 1;
nodes = (
"591 320 OFFCURVE",
"513 400 OFFCURVE",
"513 509 CURVE SMOOTH",
"513 621 OFFCURVE",
"596 704 OFFCURVE",
"706 704 CURVE SMOOTH",
"815 704 OFFCURVE",
"899 621 OFFCURVE",
"899 510 CURVE SMOOTH",
"899 401 OFFCURVE",
"818 320 OFFCURVE",
"704 320 CURVE SMOOTH"
);
}
);
width = 1464;
},
{
associatedMasterId = "0ac4930a-26e9-4cfa-a42f-96cf237e936b";
layerId = "6CA75D3D-B82A-4C69-86B1-9FA7483062D9";
name = public.background;
width = 0;
},
{
anchors = (
{
name = bottom;
position = "{715, -520}";
},
{
name = top;
position = "{678, 1056}";
}
);
layerId = "0ac4930a-26e9-4cfa-a42f-96cf237e936b";
paths = (
{
closed = 1;
nodes = (
"972 -550 OFFCURVE",
"1194 -388 OFFCURVE",
"1194 -28 CURVE SMOOTH",
"1194 1024 LINE",
"1138 1024 LINE",
"1138 762 LINE",
"1054 945 OFFCURVE",
"882 1056 OFFCURVE",
"678 1056 CURVE SMOOTH",
"386 1056 OFFCURVE",
"166 827 OFFCURVE",
"166 512 CURVE SMOOTH",
"166 197 OFFCURVE",
"386 -32 OFFCURVE",
"678 -32 CURVE SMOOTH",
"882 -32 OFFCURVE",
"1054 79 OFFCURVE",
"1138 262 CURVE",
"1138 -48 LINE SMOOTH",
"1138 -341 OFFCURVE",
"932 -504 OFFCURVE",
"664 -504 CURVE SMOOTH",
"447 -504 OFFCURVE",
"270 -398 OFFCURVE",
"202 -232 CURVE",
"150 -252 LINE",
"238 -446 OFFCURVE",
"414 -550 OFFCURVE",
"662 -550 CURVE SMOOTH"
);
},
{
closed = 1;
nodes = (
"414 20 OFFCURVE",
"220 226 OFFCURVE",
"220 512 CURVE SMOOTH",
"220 799 OFFCURVE",
"413 1004 OFFCURVE",
"682 1004 CURVE SMOOTH",
"952 1004 OFFCURVE",
"1144 800 OFFCURVE",
"1144 512 CURVE SMOOTH",
"1144 225 OFFCURVE",
"951 20 OFFCURVE",
"682 20 CURVE SMOOTH"
);
}
);
width = 1429;
}
);
leftKerningGroup = _g;
rightKerningGroup = _g;
unicode = 0067;
},
{
color = 4;
glyphname = h;
lastChange = "2019-12-19 19:29:49 +0000";
layers = (
{
associatedMasterId = "9d3a33de-08d4-49ee-85e3-2813f64ed4e4";
layerId = "cf2a3b8c-bb53-4d9e-827a-d6f64e11d495";
name = public.background;
width = 0;
},
{
anchors = (
{
name = bottom;
position = "{731, 0}";
},
{
name = center;
position = "{731, 860}";
},
{
name = top;
position = "{731, 1720}";
}
);
layerId = "9d3a33de-08d4-49ee-85e3-2813f64ed4e4";
paths = (
{
closed = 1;
nodes = (
"573 0 LINE",
"573 564 LINE SMOOTH",
"573 667 OFFCURVE",
"640 734 OFFCURVE",
"741 734 CURVE SMOOTH",
"842 734 OFFCURVE",
"909 667 OFFCURVE",
"909 564 CURVE SMOOTH",
"909 0 LINE",
"1325 0 LINE",
"1325 654 LINE SMOOTH",
"1325 883 OFFCURVE",
"1148 1056 OFFCURVE",
"915 1056 CURVE SMOOTH",
"792 1056 OFFCURVE",
"667 1009 OFFCURVE",
"573 928 CURVE",
"573 1720 LINE",
"157 1720 LINE",
"157 0 LINE"
);
}
);
width = 1461;
},
{
associatedMasterId = "0ac4930a-26e9-4cfa-a42f-96cf237e936b";
layerId = "CF794EA4-438E-4F76-BF0D-AA9D1DDD1056";
name = public.background;
width = 0;
},
{
anchors = (
{
name = bottom;
position = "{614, 0}";
},
{
name = center;
position = "{614, 860}";
},
{
name = top;
position = "{614, 1720}";
}
);
layerId = "0ac4930a-26e9-4cfa-a42f-96cf237e936b";
paths = (
{
closed = 1;
nodes = (
"291 0 LINE",
"291 702 LINE SMOOTH",
"291 858 OFFCURVE",
"416 1006 OFFCURVE",
"633 1006 CURVE SMOOTH",
"838 1006 OFFCURVE",
"955 874 OFFCURVE",
"955 627 CURVE SMOOTH",
"955 0 LINE",
"1011 0 LINE",
"1011 634 LINE SMOOTH",
"1011 910 OFFCURVE",
"875 1056 OFFCURVE",
"636 1056 CURVE SMOOTH",
"452 1056 OFFCURVE",
"333 970 OFFCURVE",
"291 870 CURVE",
"291 1722 LINE",
"235 1722 LINE",
"235 0 LINE"
);
}
);
width = 1228;
}
);
rightKerningGroup = _b;
unicode = 0068;
},
{
color = 4;
glyphname = i;
lastChange = "2019-12-18 17:06:59 +0000";
layers = (
{
associatedMasterId = "9d3a33de-08d4-49ee-85e3-2813f64ed4e4";
layerId = "cf2a3b8c-bb53-4d9e-827a-d6f64e11d495";
name = public.background;
width = 0;
},
{
anchors = (
{
name = bottom;
position = "{365, 0}";
}
);
layerId = "9d3a33de-08d4-49ee-85e3-2813f64ed4e4";
paths = (
{
closed = 1;
nodes = (
"573 0 LINE",
"573 1024 LINE",
"157 1024 LINE",
"157 0 LINE"
);
},
{
closed = 1;
nodes = (
"497 1243 OFFCURVE",
"605 1352 OFFCURVE",
"605 1484 CURVE SMOOTH",
"605 1616 OFFCURVE",
"497 1724 OFFCURVE",
"365 1724 CURVE SMOOTH",
"232 1724 OFFCURVE",
"124 1616 OFFCURVE",
"124 1484 CURVE SMOOTH",
"124 1351 OFFCURVE",
"232 1243 OFFCURVE",
"365 1243 CURVE SMOOTH"
);
}
);
width = 730;
},
{
associatedMasterId = "0ac4930a-26e9-4cfa-a42f-96cf237e936b";
layerId = "2E15A8F2-0283-4238-BC3C-E28F5A9A9CDF";
name = public.background;
width = 0;
},
{
anchors = (
{
name = bottom;
position = "{263, 0}";
}
);
layerId = "0ac4930a-26e9-4cfa-a42f-96cf237e936b";
paths = (
{
closed = 1;
nodes = (
"290 0 LINE",
"290 1024 LINE",
"234 1024 LINE",
"234 0 LINE"
);
},
{
closed = 1;
nodes = (
"288 1224 OFFCURVE",
"309 1245 OFFCURVE",
"309 1272 CURVE SMOOTH",
"309 1298 OFFCURVE",
"288 1319 OFFCURVE",
"262 1319 CURVE SMOOTH",
"235 1319 OFFCURVE",
"214 1298 OFFCURVE",
"214 1272 CURVE SMOOTH",
"214 1245 OFFCURVE",
"235 1224 OFFCURVE",
"262 1224 CURVE SMOOTH"
);
}
);
width = 526;
}
);
leftKerningGroup = _I;
rightKerningGroup = _A1;
unicode = 0069;
},
{
color = 3;
glyphname = idotless;
lastChange = "2019-12-19 20:38:25 +0000";
layers = (
{
anchors = (
{
name = bottom;
position = "{365, 0}";
},
{
name = ogonek;
position = "{573, 0}";
},
{
name = top;
position = "{365, 1024}";
}
);
layerId = "9d3a33de-08d4-49ee-85e3-2813f64ed4e4";
paths = (
{
closed = 1;
nodes = (
"573 0 LINE",
"573 1024 LINE",
"157 1024 LINE",
"157 0 LINE"
);
}
);
width = 730;
},
{
anchors = (
{
name = bottom;
position = "{263, 0}";
},
{
name = ogonek;
position = "{291, 0}";
},
{
name = top;
position = "{263, 1026}";
}
);
layerId = "0ac4930a-26e9-4cfa-a42f-96cf237e936b";
paths = (
{
closed = 1;
nodes = (
"291 0 LINE",
"291 1024 LINE",
"235 1024 LINE",
"235 0 LINE"
);
}
);
width = 526;
}
);
leftKerningGroup = _I;
rightKerningGroup = _A1;
unicode = 0131;
},
{
color = 4;
glyphname = j;
lastChange = "2019-12-18 17:07:15 +0000";
layers = (
{
background = {
paths = (
{
closed = 1;
nodes = (
"497 1242 OFFCURVE",
"607 1352 OFFCURVE",
"607 1486 CURVE SMOOTH",
"607 1620 OFFCURVE",
"430 1730 OFFCURVE",
"330 1730 CURVE SMOOTH",
"330 1730 LINE SMOOTH",
"234 1677 OFFCURVE",
"119 1584 OFFCURVE",
"119 1486 CURVE SMOOTH",
"119 1352 OFFCURVE",
"229 1242 OFFCURVE",
"363 1242 CURVE SMOOTH"
);
}
);
};
layerId = "9d3a33de-08d4-49ee-85e3-2813f64ed4e4";
paths = (
{
closed = 1;
nodes = (
"418 -550 OFFCURVE",
"573 -386 OFFCURVE",
"573 -138 CURVE SMOOTH",
"573 1024 LINE",
"157 1024 LINE",
"157 -56 LINE SMOOTH",
"157 -135 OFFCURVE",
"128 -176 OFFCURVE",
"80 -176 CURVE SMOOTH",
"55 -176 OFFCURVE",
"25 -165 OFFCURVE",
"-5 -148 CURVE",
"-133 -482 LINE",
"-64 -524 OFFCURVE",
"68 -550 OFFCURVE",
"168 -550 CURVE SMOOTH"
);
},
{
closed = 1;
nodes = (
"497 1243 OFFCURVE",
"605 1352 OFFCURVE",
"605 1484 CURVE SMOOTH",
"605 1616 OFFCURVE",
"497 1724 OFFCURVE",
"365 1724 CURVE SMOOTH",
"232 1724 OFFCURVE",
"124 1616 OFFCURVE",
"124 1484 CURVE SMOOTH",
"124 1351 OFFCURVE",
"232 1243 OFFCURVE",
"365 1243 CURVE SMOOTH"
);
}
);
width = 730;
},
{
layerId = "0ac4930a-26e9-4cfa-a42f-96cf237e936b";
paths = (
{
closed = 1;
nodes = (
"214 -550 OFFCURVE",
"292 -452 OFFCURVE",
"292 -254 CURVE SMOOTH",
"292 1024 LINE",
"236 1024 LINE",
"236 -264 LINE SMOOTH",
"236 -421 OFFCURVE",
"176 -502 OFFCURVE",
"52 -502 CURVE SMOOTH",
"1 -502 OFFCURVE",
"-44 -488 OFFCURVE",
"-74 -460 CURVE",
"-90 -504 LINE",
"-54 -535 OFFCURVE",
"-4 -550 OFFCURVE",
"57 -550 CURVE SMOOTH"
);
},
{
closed = 1;
nodes = (
"290 1226 OFFCURVE",
"312 1248 OFFCURVE",
"312 1274 CURVE SMOOTH",
"312 1300 OFFCURVE",
"290 1322 OFFCURVE",
"264 1322 CURVE SMOOTH",
"238 1322 OFFCURVE",
"216 1300 OFFCURVE",
"216 1274 CURVE SMOOTH",
"216 1248 OFFCURVE",
"238 1226 OFFCURVE",
"264 1226 CURVE SMOOTH"
);
}
);
width = 527;
}
);
rightKerningGroup = _A1;
unicode = 006A;
},
{
color = 4;
glyphname = k;
lastChange = "2019-12-19 18:33:46 +0000";
layers = (
{
anchors = (
{
name = bottom;
position = "{713, 0}";
},
{
name = top;
position = "{713, 1720}";
}
);
layerId = "9d3a33de-08d4-49ee-85e3-2813f64ed4e4";
paths = (
{
closed = 1;
nodes = (
"573 0 LINE",
"573 350 LINE",
"957 0 LINE",
"1491 0 LINE",
"945 508 LINE",
"1469 1024 LINE",
"931 1024 LINE",
"573 680 LINE",
"573 1720 LINE",
"157 1720 LINE",
"157 0 LINE"
);
}
);
width = 1426;
},
{
anchors = (
{
name = bottom;
position = "{497, 0}";
},
{
name = top;
position = "{497, 1720}";
}
);
annotations = (
{
position = "{416, 1266}";
text = "Need to redraw this entire char.";
type = Text;
width = 132;
}
);
guideLines = (
{
position = "{545, 512}";
}
);
layerId = "0ac4930a-26e9-4cfa-a42f-96cf237e936b";
paths = (
{
closed = 1;
nodes = (
"291 0 LINE",
"291 531 LINE",
"745 0 LINE",
"817 0 LINE",
"344 554 LINE",
"791 1024 LINE",
"717 1024 LINE",
"291 580 LINE",
"291 1720 LINE",
"235 1720 LINE",
"235 0 LINE"
);
}
);
width = 994;
}
);
rightKerningGroup = _A1;
unicode = 006B;
},
{
color = 4;
glyphname = l;
lastChange = "2019-12-19 18:36:04 +0000";
layers = (
{
anchors = (
{
name = bottom;
position = "{365, 0}";
},
{
name = center;
position = "{365, 860}";
},
{
name = top;
position = "{365, 1720}";
},
{
name = topright;
position = "{573, 1720}";
}
);
layerId = "9d3a33de-08d4-49ee-85e3-2813f64ed4e4";
paths = (
{
closed = 1;
nodes = (
"573 0 LINE",
"573 1720 LINE",
"157 1720 LINE",
"157 0 LINE"
);
}
);
width = 730;
},
{
anchors = (
{
name = bottom;
position = "{263, 0}";
},
{
name = center;
position = "{263, 860}";
},
{
name = top;
position = "{263, 1720}";
},
{
name = topright;
position = "{291, 1720}";
}
);
layerId = "0ac4930a-26e9-4cfa-a42f-96cf237e936b";
paths = (
{
closed = 1;
nodes = (
"291 0 LINE",
"291 1720 LINE",
"235 1720 LINE",
"235 0 LINE"
);
}
);
width = 526;
}
);
leftKerningGroup = _I;
rightKerningGroup = _A1;
unicode = 006C;
},
{
color = (153,249,255,255);
glyphname = lslash;
lastChange = "2019-12-18 16:57:23 +0000";
layers = (
{
layerId = "9d3a33de-08d4-49ee-85e3-2813f64ed4e4";
paths = (
{
closed = 1;
nodes = (
"643 0 LINE",
"643 892 LINE",
"787 1006 LINE",
"787 1364 LINE",
"643 1250 LINE",
"643 1720 LINE",
"227 1720 LINE",
"227 924 LINE",
"83 812 LINE",
"83 454 LINE",
"227 566 LINE",
"227 0 LINE"
);
}
);
width = 812;
},
{
associatedMasterId = "0ac4930a-26e9-4cfa-a42f-96cf237e936b";
layerId = "713AE2D3-EA83-4476-90A1-213BC9EEDE11";
name = public.background;
width = 0;
},
{
layerId = "0ac4930a-26e9-4cfa-a42f-96cf237e936b";
paths = (
{
closed = 1;
nodes = (
"359 0 LINE",
"359 928 LINE",
"551 1078 LINE",
"551 1124 LINE",
"359 974 LINE",
"359 1720 LINE",
"303 1720 LINE",
"303 928 LINE",
"111 778 LINE",
"111 732 LINE",
"303 882 LINE",
"303 0 LINE"
);
}
);
width = 600;
}
);
rightKerningGroup = _A1;
unicode = 0142;
},
{
color = 4;
glyphname = m;
lastChange = "2019-12-19 19:32:13 +0000";
layers = (
{
anchors = (
{
name = bottom;
position = "{1265, 0}";
},
{
name = top;
position = "{1139, 1024}";
}
);
layerId = "9d3a33de-08d4-49ee-85e3-2813f64ed4e4";
paths = (
{
closed = 1;
nodes = (
"573 0 LINE",
"573 574 LINE SMOOTH",
"573 670 OFFCURVE",
"624 726 OFFCURVE",
"710 726 CURVE SMOOTH",
"800 726 OFFCURVE",
"849 664 OFFCURVE",
"849 572 CURVE SMOOTH",
"849 0 LINE",
"1265 0 LINE",
"1265 588 LINE SMOOTH",
"1265 674 OFFCURVE",
"1316 726 OFFCURVE",
"1402 726 CURVE SMOOTH",
"1488 726 OFFCURVE",
"1541 668 OFFCURVE",
"1541 572 CURVE SMOOTH",
"1541 0 LINE",
"1957 0 LINE",
"1957 684 LINE SMOOTH",
"1957 904 OFFCURVE",
"1795 1056 OFFCURVE",
"1571 1056 CURVE SMOOTH",
"1438 1056 OFFCURVE",
"1334 1002 OFFCURVE",
"1221 876 CURVE",
"1161 984 OFFCURVE",
"1021 1056 OFFCURVE",
"872 1056 CURVE SMOOTH",
"771 1056 OFFCURVE",
"689 1021 OFFCURVE",
"573 928 CURVE",
"573 1024 LINE",
"157 1024 LINE",
"157 0 LINE"
);
}
);
width = 2098;
},
{
associatedMasterId = "0ac4930a-26e9-4cfa-a42f-96cf237e936b";
layerId = "6D0A90D4-BD96-4D7E-BEC8-0A5B6FB40867";
name = public.background;
width = 0;
},
{
anchors = (
{
name = bottom;
position = "{1013, 0}";
},
{
name = top;
position = "{1003, 1026}";
}
);
layerId = "0ac4930a-26e9-4cfa-a42f-96cf237e936b";
paths = (
{
closed = 1;
nodes = (
"291 0 LINE",
"291 734 LINE SMOOTH",
"291 859 OFFCURVE",
"456 1006 OFFCURVE",
"651 1006 CURVE SMOOTH",
"834 1006 OFFCURVE",
"957 877 OFFCURVE",
"957 672 CURVE SMOOTH",
"957 0 LINE",
"1013 0 LINE",
"1013 714 LINE SMOOTH",
"1013 852 OFFCURVE",
"1170 1006 OFFCURVE",
"1368 1006 CURVE SMOOTH",
"1555 1006 OFFCURVE",
"1679 869 OFFCURVE",
"1679 652 CURVE SMOOTH",
"1679 0 LINE",
"1735 0 LINE",
"1735 670 LINE SMOOTH",
"1735 923 OFFCURVE",
"1577 1056 OFFCURVE",
"1362 1056 CURVE SMOOTH",
"1181 1056 OFFCURVE",
"1055 961 OFFCURVE",
"988 828 CURVE",
"944 970 OFFCURVE",
"813 1056 OFFCURVE",
"639 1056 CURVE SMOOTH",
"485 1056 OFFCURVE",
"359 989 OFFCURVE",
"291 870 CURVE",
"291 1024 LINE",
"235 1024 LINE",
"235 0 LINE"
);
}
);
width = 1952;
}
);
leftKerningGroup = _m;
rightKerningGroup = _b;
unicode = 006D;
},
{
color = 4;
glyphname = n;
lastChange = "2019-12-19 21:19:32 +0000";
layers = (
{
anchors = (
{
name = bottom;
position = "{731, 0}";
},
{
name = top;
position = "{755, 1056}";
}
);
layerId = "9d3a33de-08d4-49ee-85e3-2813f64ed4e4";
paths = (
{
closed = 1;
nodes = (
"573 0 LINE",
"573 564 LINE SMOOTH",
"573 667 OFFCURVE",
"640 734 OFFCURVE",
"741 734 CURVE SMOOTH",
"842 734 OFFCURVE",
"909 667 OFFCURVE",
"909 564 CURVE SMOOTH",
"909 0 LINE",
"1325 0 LINE",
"1325 654 LINE SMOOTH",
"1325 883 OFFCURVE",
"1148 1056 OFFCURVE",
"915 1056 CURVE SMOOTH",
"792 1056 OFFCURVE",
"667 1009 OFFCURVE",
"573 928 CURVE",
"573 1024 LINE",
"157 1024 LINE",
"157 0 LINE"
);
}
);
width = 1461;
},
{
associatedMasterId = "0ac4930a-26e9-4cfa-a42f-96cf237e936b";
layerId = "0299380A-EB82-43CE-8B3D-728F7508224F";
name = public.background;
width = 0;
},
{
anchors = (
{
name = bottom;
position = "{614, 0}";
},
{
name = top;
position = "{636, 1056}";
}
);
layerId = "0ac4930a-26e9-4cfa-a42f-96cf237e936b";
paths = (
{
closed = 1;
nodes = (
"291 0 LINE",
"291 702 LINE SMOOTH",
"291 858 OFFCURVE",
"416 1004 OFFCURVE",
"633 1004 CURVE SMOOTH",
"838 1004 OFFCURVE",
"955 874 OFFCURVE",
"955 627 CURVE SMOOTH",
"955 0 LINE",
"1011 0 LINE",
"1011 634 LINE SMOOTH",
"1011 910 OFFCURVE",
"875 1056 OFFCURVE",
"636 1056 CURVE SMOOTH",
"452 1056 OFFCURVE",
"333 970 OFFCURVE",
"291 870 CURVE",
"291 1024 LINE",
"235 1024 LINE",
"235 0 LINE"
);
}
);
width = 1228;
}
);
leftKerningGroup = _m;
rightKerningGroup = _b;
unicode = 006E;
},
{
color = 4;
glyphname = eng;
lastChange = "2019-12-18 19:13:04 +0000";
layers = (
{
layerId = "0ac4930a-26e9-4cfa-a42f-96cf237e936b";
paths = (
{
closed = 1;
nodes = (
"933 -550 OFFCURVE",
"1011 -452 OFFCURVE",
"1011 -254 CURVE SMOOTH",
"1011 640 LINE SMOOTH",
"1011 880 OFFCURVE",
"859 1056 OFFCURVE",
"624 1056 CURVE SMOOTH",
"469 1056 OFFCURVE",
"335 979 OFFCURVE",
"291 870 CURVE",
"291 1024 LINE",
"235 1024 LINE",
"235 0 LINE",
"291 0 LINE",
"291 702 LINE SMOOTH",
"291 890 OFFCURVE",
"453 1006 OFFCURVE",
"626 1006 CURVE SMOOTH",
"841 1006 OFFCURVE",
"955 826 OFFCURVE",
"955 622 CURVE SMOOTH",
"955 -264 LINE SMOOTH",
"955 -423 OFFCURVE",
"894 -502 OFFCURVE",
"771 -502 CURVE SMOOTH",
"719 -502 OFFCURVE",
"674 -487 OFFCURVE",
"645 -460 CURVE",
"629 -504 LINE",
"664 -534 OFFCURVE",
"714 -550 OFFCURVE",
"776 -550 CURVE SMOOTH"
);
}
);
width = 1226;
},
{
layerId = "9d3a33de-08d4-49ee-85e3-2813f64ed4e4";
paths = (
{
closed = 1;
nodes = (
"1171 -550 OFFCURVE",
"1325 -385 OFFCURVE",
"1325 -138 CURVE SMOOTH",
"1325 654 LINE SMOOTH",
"1325 883 OFFCURVE",
"1148 1056 OFFCURVE",
"915 1056 CURVE SMOOTH",
"792 1056 OFFCURVE",
"667 1009 OFFCURVE",
"573 928 CURVE",
"573 1024 LINE",
"157 1024 LINE",
"157 0 LINE",
"573 0 LINE",
"573 564 LINE SMOOTH",
"573 667 OFFCURVE",
"640 734 OFFCURVE",
"741 734 CURVE SMOOTH",
"842 734 OFFCURVE",
"909 667 OFFCURVE",
"909 564 CURVE SMOOTH",
"909 -56 LINE SMOOTH",
"909 -133 OFFCURVE",
"881 -176 OFFCURVE",
"832 -176 CURVE SMOOTH",
"809 -176 OFFCURVE",
"779 -166 OFFCURVE",
"747 -148 CURVE",
"619 -482 LINE",
"683 -521 OFFCURVE",
"812 -550 OFFCURVE",
"918 -550 CURVE SMOOTH"
);
}
);
width = 1450;
}
);
rightMetricsKey = j;
unicode = 014B;
},
{
color = 4;
glyphname = o;
lastChange = "2019-12-19 21:20:37 +0000";
layers = (
{
associatedMasterId = "9d3a33de-08d4-49ee-85e3-2813f64ed4e4";
layerId = "cf2a3b8c-bb53-4d9e-827a-d6f64e11d495";
name = public.background;
width = 0;
},
{
anchors = (
{
name = bottom;
position = "{683, 0}";
},
{
name = center;
position = "{683, 512}";
},
{
name = ogonek;
position = "{779, 10}";
},
{
name = top;
position = "{682, 1056}";
},
{
name = topright;
position = "{1346, 1024}";
}
);
layerId = "9d3a33de-08d4-49ee-85e3-2813f64ed4e4";
paths = (
{
closed = 1;
nodes = (
"1034 -32 OFFCURVE",
"1306 192 OFFCURVE",
"1306 512 CURVE SMOOTH",
"1306 832 OFFCURVE",
"1034 1056 OFFCURVE",
"682 1056 CURVE SMOOTH",
"330 1056 OFFCURVE",
"58 832 OFFCURVE",
"58 512 CURVE SMOOTH",
"58 192 OFFCURVE",
"330 -32 OFFCURVE",
"682 -32 CURVE SMOOTH"
);
},
{
closed = 1;
nodes = (
"580 320 OFFCURVE",
"494 398 OFFCURVE",
"494 512 CURVE SMOOTH",
"494 626 OFFCURVE",
"580 704 OFFCURVE",
"682 704 CURVE SMOOTH",
"784 704 OFFCURVE",
"870 626 OFFCURVE",
"870 512 CURVE SMOOTH",
"870 398 OFFCURVE",
"784 320 OFFCURVE",
"682 320 CURVE SMOOTH"
);
}
);
width = 1366;
},
{
anchors = (
{
name = bottom;
position = "{711, 0}";
},
{
name = center;
position = "{711, 513}";
},
{
name = ogonek;
position = "{770, 10}";
},
{
name = top;
position = "{711, 1056}";
},
{
name = topright;
position = "{1402, 1026}";
}
);
layerId = "0ac4930a-26e9-4cfa-a42f-96cf237e936b";
paths = (
{
closed = 1;
nodes = (
"1021 -32 OFFCURVE",
"1259 190 OFFCURVE",
"1259 512 CURVE SMOOTH",
"1259 834 OFFCURVE",
"1021 1056 OFFCURVE",
"711 1056 CURVE SMOOTH",
"401 1056 OFFCURVE",
"163 834 OFFCURVE",
"163 512 CURVE SMOOTH",
"163 190 OFFCURVE",
"401 -32 OFFCURVE",
"711 -32 CURVE SMOOTH"
);
},
{
closed = 1;
nodes = (
"425 24 OFFCURVE",
"219 228 OFFCURVE",
"219 512 CURVE SMOOTH",
"219 796 OFFCURVE",
"425 1000 OFFCURVE",
"711 1000 CURVE SMOOTH",
"997 1000 OFFCURVE",
"1203 796 OFFCURVE",
"1203 512 CURVE SMOOTH",
"1203 228 OFFCURVE",
"997 24 OFFCURVE",
"711 24 CURVE SMOOTH"
);
}
);
width = 1422;
}
);
leftKerningGroup = _c;
rightKerningGroup = _c;
unicode = 006F;
},
{
color = 4;
glyphname = oe;
lastChange = "2019-12-18 16:57:23 +0000";
layers = (
{
associatedMasterId = "9d3a33de-08d4-49ee-85e3-2813f64ed4e4";
layerId = "cf2a3b8c-bb53-4d9e-827a-d6f64e11d495";
name = public.background;
width = 0;
},
{
anchors = (
{
name = bottom;
position = "{1032, 0}";
},
{
name = top;
position = "{1032, 1024}";
}
);
layerId = "9d3a33de-08d4-49ee-85e3-2813f64ed4e4";
paths = (
{
closed = 1;
nodes = (
"831 -32 OFFCURVE",
"961 16 OFFCURVE",
"1049 108 CURVE",
"1166 11 OFFCURVE",
"1287 -32 OFFCURVE",
"1445 -32 CURVE SMOOTH",
"1682 -32 OFFCURVE",
"1869 65 OFFCURVE",
"1971 240 CURVE",
"1673 388 LINE",
"1600 317 OFFCURVE",
"1557 296 OFFCURVE",
"1482 296 CURVE SMOOTH",
"1359 296 OFFCURVE",
"1289 353 OFFCURVE",
"1289 454 CURVE",
"1983 454 LINE",
"1987 508 OFFCURVE",
"1987 511 OFFCURVE",
"1987 528 CURVE SMOOTH",
"1987 844 OFFCURVE",
"1768 1056 OFFCURVE",
"1441 1056 CURVE SMOOTH",
"1290 1056 OFFCURVE",
"1164 1011 OFFCURVE",
"1049 916 CURVE",
"956 1009 OFFCURVE",
"827 1056 OFFCURVE",
"666 1056 CURVE SMOOTH",
"313 1056 OFFCURVE",
"63 830 OFFCURVE",
"63 512 CURVE SMOOTH",
"63 193 OFFCURVE",
"313 -32 OFFCURVE",
"667 -32 CURVE SMOOTH"
);
},
{
closed = 1;
nodes = (
"580 320 OFFCURVE",
"499 403 OFFCURVE",
"499 512 CURVE SMOOTH",
"499 621 OFFCURVE",
"580 704 OFFCURVE",
"687 704 CURVE SMOOTH",
"794 704 OFFCURVE",
"875 621 OFFCURVE",
"875 512 CURVE SMOOTH",
"875 403 OFFCURVE",
"794 320 OFFCURVE",
"687 320 CURVE SMOOTH"
);
},
{
closed = 1;
nodes = (
"1303 739 OFFCURVE",
"1355 780 OFFCURVE",
"1443 780 CURVE SMOOTH",
"1525 780 OFFCURVE",
"1568 745 OFFCURVE",
"1581 670 CURVE",
"1301 670 LINE"
);
}
);
width = 2064;
},
{
associatedMasterId = "0ac4930a-26e9-4cfa-a42f-96cf237e936b";
layerId = "1430470B-0B18-480B-AC23-1D0679DAD75F";
name = public.background;
width = 0;
},
{
anchors = (
{
name = bottom;
position = "{1198, 0}";
},
{
name = top;
position = "{1198, 1026}";
}
);
background = {
paths = (
{
closed = 1;
nodes = (
"954 -32 OFFCURVE",
"1156 108 OFFCURVE",
"1229 322 CURVE SMOOTH",
"1228 320 OFFCURVE",
"1231 317 OFFCURVE",
"1233 312 CURVE SMOOTH",
"1309 102 OFFCURVE",
"1507 -32 OFFCURVE",
"1745 -32 CURVE SMOOTH",
"1945 -32 OFFCURVE",
"2113 60 OFFCURVE",
"2209 212 CURVE",
"2165 240 LINE",
"2081 104 OFFCURVE",
"1929 20 OFFCURVE",
"1745 20 CURVE SMOOTH",
"1459 20 OFFCURVE",
"1251 226 OFFCURVE",
"1251 512 CURVE",
"2251 512 LINE",
"2251 814 OFFCURVE",
"2015 1056 OFFCURVE",
"1725 1056 CURVE SMOOTH",
"1499 1056 OFFCURVE",
"1303 908 OFFCURVE",
"1231 698 CURVE",
"1159 918 OFFCURVE",
"955 1056 OFFCURVE",
"711 1056 CURVE SMOOTH",
"401 1056 OFFCURVE",
"163 834 OFFCURVE",
"163 512 CURVE SMOOTH",
"163 192 OFFCURVE",
"401 -32 OFFCURVE",
"711 -32 CURVE SMOOTH"
);
},
{
closed = 1;
nodes = (
"423 20 OFFCURVE",
"215 226 OFFCURVE",
"215 512 CURVE SMOOTH",
"215 798 OFFCURVE",
"423 1004 OFFCURVE",
"711 1004 CURVE SMOOTH",
"997 1004 OFFCURVE",
"1207 798 OFFCURVE",
"1207 512 CURVE SMOOTH",
"1207 226 OFFCURVE",
"997 20 OFFCURVE",
"711 20 CURVE SMOOTH"
);
},
{
closed = 1;
nodes = (
"1277 812 OFFCURVE",
"1479 1004 OFFCURVE",
"1725 1004 CURVE SMOOTH",
"1969 1004 OFFCURVE",
"2171 812 OFFCURVE",
"2195 562 CURVE",
"1253 562 LINE"
);
}
);
};
layerId = "0ac4930a-26e9-4cfa-a42f-96cf237e936b";
paths = (
{
closed = 1;
nodes = (
"954 -32 OFFCURVE",
"1156 106 OFFCURVE",
"1229 322 CURVE",
"1303 105 OFFCURVE",
"1504 -32 OFFCURVE",
"1745 -32 CURVE SMOOTH",
"1941 -32 OFFCURVE",
"2111 58 OFFCURVE",
"2209 212 CURVE",
"2165 240 LINE",
"2079 101 OFFCURVE",
"1925 20 OFFCURVE",
"1745 20 CURVE SMOOTH",
"1458 20 OFFCURVE",
"1251 227 OFFCURVE",
"1251 512 CURVE",
"2251 512 LINE",
"2251 515 OFFCURVE",
"2251 517 OFFCURVE",
"2251 522 CURVE SMOOTH",
"2246 817 OFFCURVE",
"2012 1056 OFFCURVE",
"1725 1056 CURVE SMOOTH",
"1499 1056 OFFCURVE",
"1303 908 OFFCURVE",
"1231 698 CURVE",
"1159 918 OFFCURVE",
"955 1056 OFFCURVE",
"711 1056 CURVE SMOOTH",
"401 1056 OFFCURVE",
"163 833 OFFCURVE",
"163 512 CURVE SMOOTH",
"163 191 OFFCURVE",
"401 -32 OFFCURVE",
"711 -32 CURVE SMOOTH"
);
},
{
closed = 1;
nodes = (
"424 20 OFFCURVE",
"215 226 OFFCURVE",
"215 512 CURVE SMOOTH",
"215 798 OFFCURVE",
"424 1004 OFFCURVE",
"711 1004 CURVE SMOOTH",
"998 1004 OFFCURVE",
"1207 798 OFFCURVE",
"1207 512 CURVE SMOOTH",
"1207 226 OFFCURVE",
"998 20 OFFCURVE",
"711 20 CURVE SMOOTH"
);
},
{
closed = 1;
nodes = (
"1277 812 OFFCURVE",
"1480 1004 OFFCURVE",
"1725 1004 CURVE SMOOTH",
"1970 1004 OFFCURVE",
"2171 812 OFFCURVE",
"2195 562 CURVE",
"1253 562 LINE"
);
}
);
width = 2395;
}
);
leftKerningGroup = _c;
rightKerningGroup = _c;
unicode = 0153;
},
{
color = 4;
glyphname = p;
lastChange = "2019-12-19 19:47:27 +0000";
layers = (
{
anchors = (
{
name = bottom;
position = "{733, 0}";
},
{
name = top;
position = "{733, 1024}";
}
);
layerId = "9d3a33de-08d4-49ee-85e3-2813f64ed4e4";
paths = (
{
closed = 1;
nodes = (
"573 -520 LINE",
"573 80 LINE",
"668 6 OFFCURVE",
"777 -32 OFFCURVE",
"890 -32 CURVE SMOOTH",
"1174 -32 OFFCURVE",
"1391 204 OFFCURVE",
"1391 512 CURVE SMOOTH",
"1391 824 OFFCURVE",
"1174 1056 OFFCURVE",
"880 1056 CURVE SMOOTH",
"764 1056 OFFCURVE",
"655 1021 OFFCURVE",
"573 958 CURVE",
"573 1024 LINE",
"157 1024 LINE",
"157 -520 LINE"
);
},
{
closed = 1;
nodes = (
"647 320 OFFCURVE",
"565 400 OFFCURVE",
"565 511 CURVE SMOOTH",
"565 621 OFFCURVE",
"649 704 OFFCURVE",
"759 704 CURVE SMOOTH",
"868 704 OFFCURVE",
"951 621 OFFCURVE",
"951 510 CURVE SMOOTH",
"951 399 OFFCURVE",
"872 320 OFFCURVE",
"760 320 CURVE SMOOTH"
);
}
);
width = 1465;
},
{
associatedMasterId = "0ac4930a-26e9-4cfa-a42f-96cf237e936b";
layerId = "956CA07B-6B02-424A-A513-D972B6D36F65";
name = public.background;
width = 0;
},
{
anchors = (
{
name = bottom;
position = "{749, -32}";
},
{
name = top;
position = "{749, 1056}";
}
);
layerId = "0ac4930a-26e9-4cfa-a42f-96cf237e936b";
paths = (
{
closed = 1;
nodes = (
"291 -520 LINE",
"291 262 LINE",
"375 79 OFFCURVE",
"547 -32 OFFCURVE",
"749 -32 CURVE SMOOTH",
"1045 -32 OFFCURVE",
"1263 199 OFFCURVE",
"1263 512 CURVE SMOOTH",
"1263 825 OFFCURVE",
"1045 1056 OFFCURVE",
"749 1056 CURVE SMOOTH",
"546 1056 OFFCURVE",
"374 947 OFFCURVE",
"291 764 CURVE",
"291 1024 LINE",
"235 1024 LINE",
"235 -520 LINE"
);
},
{
closed = 1;
nodes = (
"478 20 OFFCURVE",
"285 225 OFFCURVE",
"285 512 CURVE SMOOTH",
"285 800 OFFCURVE",
"477 1004 OFFCURVE",
"747 1004 CURVE SMOOTH",
"1016 1004 OFFCURVE",
"1209 799 OFFCURVE",
"1209 512 CURVE SMOOTH",
"1209 226 OFFCURVE",
"1015 20 OFFCURVE",
"747 20 CURVE SMOOTH"
);
}
);
width = 1428;
}
);
leftKerningGroup = _m;
rightKerningGroup = _b;
unicode = 0070;
},
{
color = (153,249,255,255);
glyphname = thorn;
lastChange = "2019-12-18 16:57:23 +0000";
layers = (
{
anchors = (
{
name = bottom;
position = "{744, 0}";
},
{
name = top;
position = "{744, 1024}";
}
);
layerId = "9d3a33de-08d4-49ee-85e3-2813f64ed4e4";
paths = (
{
closed = 1;
nodes = (
"573 -520 LINE",
"573 80 LINE",
"653 18 OFFCURVE",
"761 -32 OFFCURVE",
"885 -32 CURVE SMOOTH",
"1187 -32 OFFCURVE",
"1391 216 OFFCURVE",
"1391 512 CURVE SMOOTH",
"1391 808 OFFCURVE",
"1187 1056 OFFCURVE",
"885 1056 CURVE SMOOTH",
"761 1056 OFFCURVE",
"657 1022 OFFCURVE",
"573 958 CURVE",
"573 1720 LINE",
"157 1720 LINE",
"157 -520 LINE"
);
},
{
closed = 1;
nodes = (
"645 320 OFFCURVE",
"565 402 OFFCURVE",
"565 512 CURVE SMOOTH",
"565 624 OFFCURVE",
"653 704 OFFCURVE",
"757 704 CURVE SMOOTH",
"865 704 OFFCURVE",
"951 624 OFFCURVE",
"951 512 CURVE SMOOTH",
"951 402 OFFCURVE",
"877 320 OFFCURVE",
"757 320 CURVE SMOOTH"
);
}
);
width = 1465;
},
{
associatedMasterId = "0ac4930a-26e9-4cfa-a42f-96cf237e936b";
layerId = "C214045F-8B92-410C-BA91-8DF3B78A88D7";
name = public.background;
width = 0;
},
{
anchors = (
{
name = bottom;
position = "{714, 0}";
},
{
name = top;
position = "{714, 1026}";
}
);
layerId = "0ac4930a-26e9-4cfa-a42f-96cf237e936b";
paths = (
{
closed = 1;
nodes = (
"291 -520 LINE",
"291 262 LINE",
"373 82 OFFCURVE",
"543 -32 OFFCURVE",
"749 -32 CURVE SMOOTH",
"1039 -32 OFFCURVE",
"1263 192 OFFCURVE",
"1263 512 CURVE SMOOTH",
"1263 832 OFFCURVE",
"1039 1056 OFFCURVE",
"749 1056 CURVE SMOOTH",
"543 1056 OFFCURVE",
"373 942 OFFCURVE",
"291 762 CURVE",
"291 1720 LINE",
"235 1720 LINE",
"235 -520 LINE"
);
},
{
closed = 1;
nodes = (
"479 20 OFFCURVE",
"285 224 OFFCURVE",
"285 512 CURVE SMOOTH",
"285 802 OFFCURVE",
"479 1004 OFFCURVE",
"747 1004 CURVE SMOOTH",
"1013 1004 OFFCURVE",
"1209 802 OFFCURVE",
"1209 512 CURVE SMOOTH",
"1209 224 OFFCURVE",
"1013 20 OFFCURVE",
"747 20 CURVE SMOOTH"
);
}
);
width = 1428;
}
);
rightKerningGroup = _b;
unicode = 00FE;
},
{
color = 4;
glyphname = q;
lastChange = "2019-12-19 19:47:46 +0000";
layers = (
{
associatedMasterId = "9d3a33de-08d4-49ee-85e3-2813f64ed4e4";
layerId = "cf2a3b8c-bb53-4d9e-827a-d6f64e11d495";
name = public.background;
width = 0;
},
{
anchors = (
{
name = bottom;
position = "{732, 0}";
},
{
name = top;
position = "{732, 1024}";
}
);
layerId = "9d3a33de-08d4-49ee-85e3-2813f64ed4e4";
paths = (
{
closed = 1;
nodes = (
"1307 -520 LINE",
"1307 1024 LINE",
"891 1024 LINE",
"891 958 LINE",
"807 1022 OFFCURVE",
"701 1056 OFFCURVE",
"585 1056 CURVE SMOOTH",
"291 1056 OFFCURVE",
"73 824 OFFCURVE",
"73 512 CURVE SMOOTH",
"73 204 OFFCURVE",
"290 -32 OFFCURVE",
"574 -32 CURVE SMOOTH",
"687 -32 OFFCURVE",
"796 6 OFFCURVE",
"891 80 CURVE",
"891 -520 LINE"
);
},
{
closed = 1;
nodes = (
"592 320 OFFCURVE",
"513 399 OFFCURVE",
"513 512 CURVE SMOOTH",
"513 621 OFFCURVE",
"596 704 OFFCURVE",
"706 704 CURVE SMOOTH",
"816 704 OFFCURVE",
"899 621 OFFCURVE",
"899 511 CURVE SMOOTH",
"899 400 OFFCURVE",
"817 320 OFFCURVE",
"705 320 CURVE SMOOTH"
);
}
);
width = 1464;
},
{
associatedMasterId = "0ac4930a-26e9-4cfa-a42f-96cf237e936b";
layerId = "AC2D2F9B-E1C3-44FC-B2F7-A417915000A9";
name = public.background;
width = 0;
},
{
anchors = (
{
name = bottom;
position = "{714, 0}";
},
{
name = top;
position = "{679, 1056}";
}
);
layerId = "0ac4930a-26e9-4cfa-a42f-96cf237e936b";
paths = (
{
closed = 1;
nodes = (
"1193 -520 LINE",
"1193 1024 LINE",
"1137 1024 LINE",
"1137 762 LINE",
"1053 945 OFFCURVE",
"881 1056 OFFCURVE",
"679 1056 CURVE SMOOTH",
"383 1056 OFFCURVE",
"165 825 OFFCURVE",
"165 512 CURVE SMOOTH",
"165 199 OFFCURVE",
"383 -32 OFFCURVE",
"679 -32 CURVE SMOOTH",
"881 -32 OFFCURVE",
"1053 79 OFFCURVE",
"1137 262 CURVE",
"1137 -520 LINE"
);
},
{
closed = 1;
nodes = (
"413 20 OFFCURVE",
"219 226 OFFCURVE",
"219 512 CURVE SMOOTH",
"219 799 OFFCURVE",
"412 1004 OFFCURVE",
"681 1004 CURVE SMOOTH",
"951 1004 OFFCURVE",
"1143 800 OFFCURVE",
"1143 512 CURVE SMOOTH",
"1143 225 OFFCURVE",
"950 20 OFFCURVE",
"681 20 CURVE SMOOTH"
);
}
);
width = 1428;
}
);
leftKerningGroup = _d;
rightKerningGroup = _A1;
unicode = 0071;
},
{
color = 4;
glyphname = r;
lastChange = "2019-12-19 19:50:05 +0000";
layers = (
{
anchors = (
{
name = bottom;
position = "{573, 0}";
},
{
name = top;
position = "{649, 1056}";
}
);
layerId = "9d3a33de-08d4-49ee-85e3-2813f64ed4e4";
paths = (
{
closed = 1;
nodes = (
"573 0 LINE",
"573 502 LINE SMOOTH",
"573 603 OFFCURVE",
"672 696 OFFCURVE",
"779 696 CURVE SMOOTH",
"835 696 OFFCURVE",
"909 671 OFFCURVE",
"959 634 CURVE",
"1133 984 LINE",
"1075 1026 OFFCURVE",
"978 1056 OFFCURVE",
"899 1056 CURVE SMOOTH",
"778 1056 OFFCURVE",
"658 991 OFFCURVE",
"573 880 CURVE",
"573 1024 LINE",
"157 1024 LINE",
"157 0 LINE"
);
}
);
width = 1078;
},
{
associatedMasterId = "0ac4930a-26e9-4cfa-a42f-96cf237e936b";
layerId = "D477A0E3-AB33-423E-A4B6-BC72A3115B3D";
name = public.background;
width = 0;
},
{
anchors = (
{
name = bottom;
position = "{416, 0}";
},
{
name = top;
position = "{409, 1056}";
}
);
layerId = "0ac4930a-26e9-4cfa-a42f-96cf237e936b";
paths = (
{
closed = 1;
nodes = (
"291 0 LINE",
"291 734 LINE SMOOTH",
"291 873 OFFCURVE",
"437 1006 OFFCURVE",
"589 1006 CURVE SMOOTH",
"633 1006 OFFCURVE",
"682 998 OFFCURVE",
"719 984 CURVE",
"741 1032 LINE",
"699 1047 OFFCURVE",
"644 1056 OFFCURVE",
"589 1056 CURVE SMOOTH",
"447 1056 OFFCURVE",
"348 994 OFFCURVE",
"291 870 CURVE",
"291 1024 LINE",
"235 1024 LINE",
"235 0 LINE"
);
}
);
width = 832;
}
);
leftKerningGroup = _m;
rightKerningGroup = _r;
unicode = 0072;
},
{
color = 4;
glyphname = s;
lastChange = "2019-12-19 20:05:50 +0000";
layers = (
{
anchors = (
{
name = bottom;
position = "{586, 0}";
},
{
name = top;
position = "{523, 1024}";
}
);
layerId = "9d3a33de-08d4-49ee-85e3-2813f64ed4e4";
paths = (
{
closed = 1;
nodes = (
"786 -32 OFFCURVE",
"962 92 OFFCURVE",
"962 326 CURVE SMOOTH",
"962 508 OFFCURVE",
"855 573 OFFCURVE",
"720 620 CURVE SMOOTH",
"645 646 OFFCURVE",
"508 689 OFFCURVE",
"508 737 CURVE SMOOTH",
"508 760 OFFCURVE",
"538 778 OFFCURVE",
"590 778 CURVE SMOOTH",
"643 778 OFFCURVE",
"719 759 OFFCURVE",
"822 720 CURVE",
"952 994 LINE",
"794 1036 OFFCURVE",
"681 1054 OFFCURVE",
"586 1054 CURVE SMOOTH",
"306 1054 OFFCURVE",
"112 908 OFFCURVE",
"112 699 CURVE SMOOTH",
"112 540 OFFCURVE",
"224 478 OFFCURVE",
"346 425 CURVE SMOOTH",
"475 369 OFFCURVE",
"524 360 OFFCURVE",
"524 311 CURVE SMOOTH",
"524 283 OFFCURVE",
"508 272 OFFCURVE",
"465 272 CURVE SMOOTH",
"393 272 OFFCURVE",
"305 304 OFFCURVE",
"206 366 CURVE",
"42 78 LINE",
"145 5 OFFCURVE",
"288 -32 OFFCURVE",
"464 -32 CURVE SMOOTH"
);
}
);
width = 1046;
},
{
anchors = (
{
name = bottom;
position = "{516, 0}";
},
{
name = top;
position = "{492, 1056}";
}
);
layerId = "0ac4930a-26e9-4cfa-a42f-96cf237e936b";
paths = (
{
closed = 1;
nodes = (
"675 -32 OFFCURVE",
"824 97 OFFCURVE",
"824 294 CURVE SMOOTH",
"824 473 OFFCURVE",
"702 518 OFFCURVE",
"509 592 CURVE SMOOTH",
"369 646 OFFCURVE",
"266 685 OFFCURVE",
"266 808 CURVE SMOOTH",
"266 925 OFFCURVE",
"359 1006 OFFCURVE",
"491 1006 CURVE SMOOTH",
"595 1006 OFFCURVE",
"674 957 OFFCURVE",
"720 864 CURVE",
"766 886 LINE",
"711 994 OFFCURVE",
"612 1056 OFFCURVE",
"492 1056 CURVE SMOOTH",
"333 1056 OFFCURVE",
"214 950 OFFCURVE",
"214 809 CURVE SMOOTH",
"214 653 OFFCURVE",
"358 591 OFFCURVE",
"492 540 CURVE SMOOTH",
"670 472 OFFCURVE",
"774 440 OFFCURVE",
"774 292 CURVE SMOOTH",
"774 123 OFFCURVE",
"639 18 OFFCURVE",
"485 18 CURVE SMOOTH",
"342 18 OFFCURVE",
"228 108 OFFCURVE",
"176 262 CURVE",
"128 246 LINE",
"188 69 OFFCURVE",
"319 -32 OFFCURVE",
"486 -32 CURVE SMOOTH"
);
}
);
width = 973;
}
);
leftKerningGroup = _s;
rightKerningGroup = _s;
unicode = 0073;
},
{
color = 4;
glyphname = germandbls;
lastChange = "2019-12-18 16:57:23 +0000";
layers = (
{
anchors = (
{
name = bottom;
position = "{703, 0}";
},
{
name = top;
position = "{703, 1024}";
}
);
layerId = "9d3a33de-08d4-49ee-85e3-2813f64ed4e4";
paths = (
{
closed = 1;
nodes = (
"737 -32 LINE SMOOTH",
"1090 -24 OFFCURVE",
"1333 201 OFFCURVE",
"1333 520 CURVE SMOOTH",
"1333 704 OFFCURVE",
"1249 837 OFFCURVE",
"1081 920 CURVE",
"1207 998 OFFCURVE",
"1267 1105 OFFCURVE",
"1267 1253 CURVE SMOOTH",
"1267 1537 OFFCURVE",
"1043 1750 OFFCURVE",
"743 1750 CURVE SMOOTH",
"439 1750 OFFCURVE",
"213 1527 OFFCURVE",
"213 1228 CURVE SMOOTH",
"213 942 LINE",
"81 942 LINE",
"81 628 LINE",
"213 628 LINE",
"213 0 LINE",
"627 0 LINE",
"627 1244 LINE SMOOTH",
"627 1348 OFFCURVE",
"666 1404 OFFCURVE",
"738 1404 CURVE SMOOTH",
"820 1404 OFFCURVE",
"877 1338 OFFCURVE",
"877 1243 CURVE SMOOTH",
"877 1140 OFFCURVE",
"820 1068 OFFCURVE",
"737 1068 CURVE SMOOTH",
"736 1068 LINE",
"736 756 LINE",
"737 756 LINE SMOOTH",
"832 756 OFFCURVE",
"893 675 OFFCURVE",
"893 551 CURVE SMOOTH",
"893 429 OFFCURVE",
"830 346 OFFCURVE",
"737 346 CURVE",
"736 346 LINE",
"736 -32 LINE"
);
}
);
width = 1399;
},
{
anchors = (
{
name = bottom;
position = "{667, 0}";
},
{
name = top;
position = "{667, 1026}";
}
);
layerId = "0ac4930a-26e9-4cfa-a42f-96cf237e936b";
paths = (
{
closed = 1;
nodes = (
"689 -32 LINE SMOOTH",
"959 -32 OFFCURVE",
"1177 186 OFFCURVE",
"1177 456 CURVE SMOOTH",
"1177 666 OFFCURVE",
"1045 852 OFFCURVE",
"847 920 CURVE",
"1011 984 OFFCURVE",
"1119 1142 OFFCURVE",
"1119 1320 CURVE SMOOTH",
"1119 1558 OFFCURVE",
"927 1750 OFFCURVE",
"689 1750 CURVE SMOOTH",
"451 1750 OFFCURVE",
"259 1558 OFFCURVE",
"259 1320 CURVE SMOOTH",
"259 814 LINE",
"127 814 LINE",
"127 756 LINE",
"259 756 LINE",
"259 0 LINE",
"315 0 LINE",
"315 1320 LINE SMOOTH",
"315 1526 OFFCURVE",
"483 1694 OFFCURVE",
"689 1694 CURVE SMOOTH",
"895 1694 OFFCURVE",
"1063 1526 OFFCURVE",
"1063 1320 CURVE SMOOTH",
"1063 1114 OFFCURVE",
"895 946 OFFCURVE",
"689 946 CURVE SMOOTH",
"471 946 LINE",
"471 890 LINE",
"689 890 LINE SMOOTH",
"927 890 OFFCURVE",
"1121 696 OFFCURVE",
"1121 456 CURVE SMOOTH",
"1121 218 OFFCURVE",
"927 24 OFFCURVE",
"689 24 CURVE SMOOTH",
"471 24 LINE",
"471 -32 LINE"
);
}
);
width = 1333;
}
);
rightKerningGroup = _A1;
unicode = 00DF;
},
{
color = 4;
glyphname = t;
lastChange = "2019-12-19 20:40:35 +0000";
layers = (
{
anchors = (
{
name = bottom;
position = "{597, 0}";
},
{
name = center;
position = "{470, 512}";
},
{
name = top;
position = "{427, 1377}";
},
{
name = topright;
position = "{820, 1024}";
}
);
layerId = "9d3a33de-08d4-49ee-85e3-2813f64ed4e4";
paths = (
{
closed = 1;
nodes = (
"674 -32 OFFCURVE",
"783 -6 OFFCURVE",
"868 38 CURVE",
"764 372 LINE",
"736 351 OFFCURVE",
"709 340 OFFCURVE",
"681 340 CURVE SMOOTH",
"638 340 OFFCURVE",
"616 367 OFFCURVE",
"616 420 CURVE SMOOTH",
"616 708 LINE",
"820 708 LINE",
"820 1024 LINE",
"616 1024 LINE",
"616 1408 LINE",
"200 1408 LINE",
"200 1024 LINE",
"40 1024 LINE",
"40 708 LINE",
"200 708 LINE",
"200 388 LINE SMOOTH",
"200 124 OFFCURVE",
"340 -32 OFFCURVE",
"577 -32 CURVE SMOOTH"
);
}
);
width = 940;
},
{
anchors = (
{
name = bottom;
position = "{426, 0}";
},
{
name = center;
position = "{341, 513}";
},
{
name = top;
position = "{351, 1099}";
},
{
name = topright;
position = "{661, 1026}";
}
);
layerId = "0ac4930a-26e9-4cfa-a42f-96cf237e936b";
paths = (
{
closed = 1;
nodes = (
"484 -32 OFFCURVE",
"535 -17 OFFCURVE",
"566 6 CURVE",
"552 50 LINE",
"524 29 OFFCURVE",
"481 16 OFFCURVE",
"441 16 CURVE SMOOTH",
"346 16 OFFCURVE",
"294 89 OFFCURVE",
"294 222 CURVE SMOOTH",
"294 982 LINE",
"566 982 LINE",
"566 1024 LINE",
"294 1024 LINE",
"294 1406 LINE",
"238 1406 LINE",
"238 1024 LINE",
"152 1024 LINE",
"152 982 LINE",
"238 982 LINE",
"238 222 LINE SMOOTH",
"238 60 OFFCURVE",
"309 -32 OFFCURVE",
"434 -32 CURVE SMOOTH"
);
}
);
width = 681;
}
);
leftKerningGroup = _t;
rightKerningGroup = _t;
unicode = 0074;
},
{
color = 4;
glyphname = tbar;
lastChange = "2019-12-19 20:44:59 +0000";
layers = (
{
layerId = "0ac4930a-26e9-4cfa-a42f-96cf237e936b";
paths = (
{
closed = 1;
nodes = (
"484 -32 OFFCURVE",
"535 -17 OFFCURVE",
"566 6 CURVE",
"552 50 LINE",
"524 29 OFFCURVE",
"481 16 OFFCURVE",
"441 16 CURVE SMOOTH",
"346 16 OFFCURVE",
"294 89 OFFCURVE",
"294 222 CURVE SMOOTH",
"294 782 LINE",
"566 782 LINE",
"566 824 LINE",
"294 824 LINE",
"294 982 LINE",
"566 982 LINE",
"566 1024 LINE",
"294 1024 LINE",
"294 1406 LINE",
"238 1406 LINE",
"238 1024 LINE",
"152 1024 LINE",
"152 982 LINE",
"238 982 LINE",
"238 824 LINE",
"152 824 LINE",
"152 782 LINE",
"238 782 LINE",
"238 222 LINE SMOOTH",
"238 60 OFFCURVE",
"309 -32 OFFCURVE",
"434 -32 CURVE SMOOTH"
);
}
);
width = 681;
},
{
layerId = "9d3a33de-08d4-49ee-85e3-2813f64ed4e4";
paths = (
{
closed = 1;
nodes = (
"674 -32 OFFCURVE",
"783 -6 OFFCURVE",
"868 38 CURVE",
"764 372 LINE",
"736 351 OFFCURVE",
"709 340 OFFCURVE",
"681 340 CURVE SMOOTH",
"638 340 OFFCURVE",
"616 367 OFFCURVE",
"616 420 CURVE SMOOTH",
"616 608 LINE",
"820 608 LINE",
"820 824 LINE",
"616 824 LINE",
"616 908 LINE",
"820 908 LINE",
"820 1124 LINE",
"616 1124 LINE",
"616 1408 LINE",
"200 1408 LINE",
"200 1124 LINE",
"40 1124 LINE",
"40 908 LINE",
"200 908 LINE",
"200 824 LINE",
"40 824 LINE",
"40 608 LINE",
"200 608 LINE",
"200 388 LINE SMOOTH",
"200 124 OFFCURVE",
"340 -32 OFFCURVE",
"577 -32 CURVE SMOOTH"
);
}
);
width = 940;
}
);
unicode = 0167;
},
{
color = 4;
glyphname = u;
lastChange = "2019-12-19 20:07:00 +0000";
layers = (
{
anchors = (
{
name = bottom;
position = "{720, -32}";
},
{
name = ogonek;
position = "{857, 10}";
},
{
name = top;
position = "{721, 1024}";
},
{
name = topright;
position = "{1312, 1024}";
}
);
layerId = "9d3a33de-08d4-49ee-85e3-2813f64ed4e4";
paths = (
{
closed = 1;
nodes = (
"1137 -32 OFFCURVE",
"1312 112 OFFCURVE",
"1312 454 CURVE SMOOTH",
"1312 1024 LINE",
"896 1024 LINE",
"896 558 LINE SMOOTH",
"896 370 OFFCURVE",
"850 304 OFFCURVE",
"720 304 CURVE SMOOTH",
"590 304 OFFCURVE",
"544 370 OFFCURVE",
"544 558 CURVE SMOOTH",
"544 1024 LINE",
"128 1024 LINE",
"128 454 LINE SMOOTH",
"128 112 OFFCURVE",
"303 -32 OFFCURVE",
"720 -32 CURVE SMOOTH"
);
}
);
width = 1441;
},
{
anchors = (
{
name = bottom;
position = "{599, 0}";
},
{
name = ogonek;
position = "{629, 11}";
},
{
name = top;
position = "{599, 1026}";
},
{
name = topright;
position = "{979, 1024}";
}
);
layerId = "0ac4930a-26e9-4cfa-a42f-96cf237e936b";
paths = (
{
closed = 1;
nodes = (
"875 -32 OFFCURVE",
"979 90 OFFCURVE",
"979 414 CURVE SMOOTH",
"979 1024 LINE",
"923 1024 LINE",
"923 414 LINE SMOOTH",
"923 131 OFFCURVE",
"832 20 OFFCURVE",
"599 20 CURVE SMOOTH",
"366 20 OFFCURVE",
"275 131 OFFCURVE",
"275 414 CURVE SMOOTH",
"275 1024 LINE",
"219 1024 LINE",
"219 414 LINE SMOOTH",
"219 90 OFFCURVE",
"323 -32 OFFCURVE",
"599 -32 CURVE SMOOTH"
);
}
);
width = 1198;
}
);
leftKerningGroup = _u;
rightKerningGroup = _u;
unicode = 0075;
},
{
color = 4;
glyphname = v;
lastChange = "2019-12-19 20:07:17 +0000";
layers = (
{
anchors = (
{
name = bottom;
position = "{640, 0}";
},
{
name = top;
position = "{640, 1024}";
}
);
layerId = "9d3a33de-08d4-49ee-85e3-2813f64ed4e4";
paths = (
{
closed = 1;
nodes = (
"780 0 LINE",
"1346 1024 LINE",
"854 1024 LINE",
"640 540 LINE",
"426 1024 LINE",
"-66 1024 LINE",
"500 0 LINE"
);
}
);
width = 1280;
},
{
anchors = (
{
name = bottom;
position = "{599, 0}";
},
{
name = top;
position = "{599, 1026}";
}
);
layerId = "0ac4930a-26e9-4cfa-a42f-96cf237e936b";
paths = (
{
closed = 1;
nodes = (
"617 0 LINE",
"1091 1024 LINE",
"1027 1024 LINE",
"599 98 LINE",
"171 1024 LINE",
"107 1024 LINE",
"581 0 LINE"
);
}
);
width = 1198;
}
);
leftKerningGroup = _v;
rightKerningGroup = _v;
unicode = 0076;
},
{
color = 4;
glyphname = w;
lastChange = "2019-12-19 20:07:30 +0000";
layers = (
{
anchors = (
{
name = bottom;
position = "{992, 0}";
},
{
name = top;
position = "{992, 1024}";
}
);
layerId = "9d3a33de-08d4-49ee-85e3-2813f64ed4e4";
paths = (
{
closed = 1;
nodes = (
"780 0 LINE",
"992 452 LINE",
"1204 0 LINE",
"1484 0 LINE",
"2050 1024 LINE",
"1574 1024 LINE",
"1358 544 LINE",
"1134 1024 LINE",
"850 1024 LINE",
"626 544 LINE",
"410 1024 LINE",
"-66 1024 LINE",
"500 0 LINE"
);
}
);
width = 1984;
},
{
anchors = (
{
name = bottom;
position = "{973, 0}";
},
{
name = top;
position = "{973, 1026}";
}
);
layerId = "0ac4930a-26e9-4cfa-a42f-96cf237e936b";
paths = (
{
closed = 1;
nodes = (
"617 0 LINE",
"973 912 LINE",
"1329 0 LINE",
"1365 0 LINE",
"1839 1024 LINE",
"1775 1024 LINE",
"1347 98 LINE",
"991 1024 LINE",
"955 1024 LINE",
"599 98 LINE",
"171 1024 LINE",
"107 1024 LINE",
"581 0 LINE"
);
}
);
width = 1946;
}
);
leftKerningGroup = _v;
rightKerningGroup = _v;
unicode = 0077;
},
{
color = 4;
glyphname = x;
lastChange = "2019-12-19 20:07:39 +0000";
layers = (
{
anchors = (
{
name = bottom;
position = "{633, 0}";
},
{
name = top;
position = "{633, 1024}";
}
);
layerId = "9d3a33de-08d4-49ee-85e3-2813f64ed4e4";
paths = (
{
closed = 1;
nodes = (
"443 0 LINE",
"633 248 LINE",
"823 0 LINE",
"1323 0 LINE",
"883 540 LINE",
"1259 1024 LINE",
"775 1024 LINE",
"633 830 LINE",
"491 1024 LINE",
"7 1024 LINE",
"383 540 LINE",
"-57 0 LINE"
);
}
);
width = 1266;
},
{
associatedMasterId = "0ac4930a-26e9-4cfa-a42f-96cf237e936b";
layerId = "8D44CACE-A548-4438-AC62-8534E51D8A93";
name = public.background;
width = 0;
},
{
anchors = (
{
name = bottom;
position = "{574, 0}";
},
{
name = top;
position = "{574, 1026}";
}
);
layerId = "0ac4930a-26e9-4cfa-a42f-96cf237e936b";
paths = (
{
closed = 1;
nodes = (
"166 0 LINE",
"574 498 LINE",
"982 0 LINE",
"1046 0 LINE",
"616 524 LINE",
"990 1024 LINE",
"928 1024 LINE",
"574 562 LINE",
"220 1024 LINE",
"158 1024 LINE",
"532 524 LINE",
"102 0 LINE"
);
}
);
width = 1148;
}
);
rightKerningGroup = _A1;
unicode = 0078;
},
{
color = 4;
glyphname = y;
lastChange = "2019-12-19 20:07:52 +0000";
layers = (
{
anchors = (
{
name = bottom;
position = "{641, 0}";
},
{
name = top;
position = "{641, 1024}";
}
);
layerId = "9d3a33de-08d4-49ee-85e3-2813f64ed4e4";
paths = (
{
closed = 1;
nodes = (
"509 -520 LINE",
"1345 1024 LINE",
"867 1024 LINE",
"659 592 LINE",
"407 1024 LINE",
"-71 1024 LINE",
"415 198 LINE",
"31 -520 LINE"
);
}
);
width = 1281;
},
{
anchors = (
{
name = bottom;
position = "{608, 0}";
},
{
name = top;
position = "{608, 1026}";
}
);
layerId = "0ac4930a-26e9-4cfa-a42f-96cf237e936b";
paths = (
{
closed = 1;
nodes = (
"447 -520 LINE",
"1107 1024 LINE",
"1045 1024 LINE",
"625 36 LINE",
"169 1024 LINE",
"107 1024 LINE",
"595 -32 LINE",
"387 -520 LINE"
);
}
);
width = 1216;
}
);
leftKerningGroup = _v;
rightKerningGroup = _v;
unicode = 0079;
},
{
color = 4;
glyphname = z;
lastChange = "2019-12-19 20:08:00 +0000";
layers = (
{
anchors = (
{
name = bottom;
position = "{590, 0}";
},
{
name = center;
position = "{590, 512}";
},
{
name = top;
position = "{590, 1024}";
}
);
layerId = "9d3a33de-08d4-49ee-85e3-2813f64ed4e4";
paths = (
{
closed = 1;
nodes = (
"1096 0 LINE",
"1096 312 LINE",
"704 312 LINE",
"1140 1024 LINE",
"102 1024 LINE",
"102 712 LINE",
"452 712 LINE",
"16 0 LINE"
);
}
);
width = 1180;
},
{
anchors = (
{
name = bottom;
position = "{602, 0}";
},
{
name = center;
position = "{602, 513}";
},
{
name = top;
position = "{602, 1026}";
}
);
layerId = "0ac4930a-26e9-4cfa-a42f-96cf237e936b";
paths = (
{
closed = 1;
nodes = (
"1076 0 LINE",
"1076 56 LINE",
"226 56 LINE",
"1092 1024 LINE",
"176 1024 LINE",
"176 968 LINE",
"966 968 LINE",
"102 0 LINE"
);
}
);
width = 1204;
}
);
rightKerningGroup = _A1;
unicode = 007A;
},
{
color = (153,249,255,255);
glyphname = a.alt;
lastChange = "2019-12-18 16:57:23 +0000";
layers = (
{
anchors = (
{
name = bottom;
position = "{616, 0}";
},
{
name = ogonek;
position = "{1122, 10}";
},
{
name = top;
position = "{616, 1024}";
}
);
layerId = "9d3a33de-08d4-49ee-85e3-2813f64ed4e4";
paths = (
{
closed = 1;
nodes = (
"536 -32 OFFCURVE",
"627 -14 OFFCURVE",
"728 26 CURVE",
"728 0 LINE",
"1150 0 LINE",
"1150 578 LINE SMOOTH",
"1150 861 OFFCURVE",
"898 1056 OFFCURVE",
"532 1056 CURVE SMOOTH",
"386 1056 OFFCURVE",
"229 1022 OFFCURVE",
"132 968 CURVE",
"258 684 LINE",
"332 711 OFFCURVE",
"439 728 OFFCURVE",
"532 728 CURVE SMOOTH",
"631 728 OFFCURVE",
"728 662 OFFCURVE",
"728 594 CURVE SMOOTH",
"728 534 LINE",
"637 575 OFFCURVE",
"533 596 OFFCURVE",
"422 596 CURVE SMOOTH",
"207 596 OFFCURVE",
"64 464 OFFCURVE",
"64 266 CURVE SMOOTH",
"64 90 OFFCURVE",
"218 -32 OFFCURVE",
"438 -32 CURVE SMOOTH"
);
},
{
closed = 1;
nodes = (
"533 214 OFFCURVE",
"476 252 OFFCURVE",
"476 302 CURVE SMOOTH",
"476 350 OFFCURVE",
"528 380 OFFCURVE",
"610 380 CURVE SMOOTH",
"681 380 OFFCURVE",
"742 341 OFFCURVE",
"742 296 CURVE SMOOTH",
"742 252 OFFCURVE",
"681 214 OFFCURVE",
"610 214 CURVE SMOOTH"
);
}
);
width = 1268;
},
{
anchors = (
{
name = bottom;
position = "{588, 0}";
},
{
name = ogonek;
position = "{1058, 10}";
},
{
name = top;
position = "{588, 1026}";
}
);
guideLines = (
{
angle = 90;
position = "{-1184, 0}";
}
);
layerId = "0ac4930a-26e9-4cfa-a42f-96cf237e936b";
paths = (
{
closed = 1;
nodes = (
"703 -32 OFFCURVE",
"832 26 OFFCURVE",
"904 124 CURVE",
"904 0 LINE",
"960 0 LINE",
"960 640 LINE SMOOTH",
"960 906 OFFCURVE",
"810 1056 OFFCURVE",
"546 1056 CURVE SMOOTH",
"417 1056 OFFCURVE",
"287 993 OFFCURVE",
"208 892 CURVE",
"248 860 LINE",
"333 955 OFFCURVE",
"437 1006 OFFCURVE",
"546 1006 CURVE SMOOTH",
"776 1006 OFFCURVE",
"904 868 OFFCURVE",
"904 622 CURVE SMOOTH",
"904 478 LINE",
"832 576 OFFCURVE",
"703 634 OFFCURVE",
"554 634 CURVE SMOOTH",
"318 634 OFFCURVE",
"146 493 OFFCURVE",
"146 300 CURVE SMOOTH",
"146 108 OFFCURVE",
"319 -32 OFFCURVE",
"554 -32 CURVE SMOOTH"
);
},
{
closed = 1;
nodes = (
"349 20 OFFCURVE",
"198 139 OFFCURVE",
"198 302 CURVE SMOOTH",
"198 464 OFFCURVE",
"348 582 OFFCURVE",
"554 582 CURVE SMOOTH",
"760 582 OFFCURVE",
"910 464 OFFCURVE",
"910 302 CURVE SMOOTH",
"910 139 OFFCURVE",
"759 20 OFFCURVE",
"554 20 CURVE SMOOTH"
);
}
);
width = 1175;
}
);
},
{
color = 4;
glyphname = j.alt;
lastChange = "2019-12-18 16:57:23 +0000";
layers = (
{
layerId = "9d3a33de-08d4-49ee-85e3-2813f64ed4e4";
paths = (
{
closed = 1;
nodes = (
"497 1243 OFFCURVE",
"605 1352 OFFCURVE",
"605 1484 CURVE SMOOTH",
"605 1616 OFFCURVE",
"497 1724 OFFCURVE",
"365 1724 CURVE SMOOTH",
"232 1724 OFFCURVE",
"124 1616 OFFCURVE",
"124 1484 CURVE SMOOTH",
"124 1351 OFFCURVE",
"232 1243 OFFCURVE",
"365 1243 CURVE SMOOTH"
);
},
{
closed = 1;
nodes = (
"573 -520 LINE",
"573 1024 LINE",
"157 1024 LINE",
"157 -520 LINE"
);
}
);
width = 730;
},
{
layerId = "0ac4930a-26e9-4cfa-a42f-96cf237e936b";
paths = (
{
closed = 1;
nodes = (
"289 1226 OFFCURVE",
"311 1248 OFFCURVE",
"311 1274 CURVE SMOOTH",
"311 1300 OFFCURVE",
"289 1322 OFFCURVE",
"263 1322 CURVE SMOOTH",
"237 1322 OFFCURVE",
"215 1300 OFFCURVE",
"215 1274 CURVE SMOOTH",
"215 1248 OFFCURVE",
"237 1226 OFFCURVE",
"263 1226 CURVE SMOOTH"
);
},
{
closed = 1;
nodes = (
"291 -520 LINE",
"291 1024 LINE",
"235 1024 LINE",
"235 -520 LINE"
);
}
);
width = 526;
}
);
},
{
color = 3;
glyphname = t.alt;
lastChange = "2019-12-19 20:41:41 +0000";
layers = (
{
anchors = (
{
name = bottom;
position = "{414, 0}";
},
{
name = center;
position = "{414, 512}";
},
{
name = top;
position = "{414, 1024}";
},
{
name = topright;
position = "{691, 1024}";
}
);
layerId = "9d3a33de-08d4-49ee-85e3-2813f64ed4e4";
paths = (
{
closed = 1;
nodes = (
"631 0 LINE",
"631 708 LINE",
"843 708 LINE",
"843 1024 LINE",
"631 1024 LINE",
"631 1408 LINE",
"215 1408 LINE",
"215 1024 LINE",
"63 1024 LINE",
"63 708 LINE",
"215 708 LINE",
"215 0 LINE"
);
}
);
width = 875;
},
{
anchors = (
{
name = bottom;
position = "{317, 0}";
},
{
name = center;
position = "{317, 513}";
},
{
name = top;
position = "{317, 1026}";
},
{
name = topright;
position = "{614, 1026}";
}
);
layerId = "0ac4930a-26e9-4cfa-a42f-96cf237e936b";
paths = (
{
closed = 1;
nodes = (
"303 0 LINE",
"303 982 LINE",
"535 982 LINE",
"535 1024 LINE",
"303 1024 LINE",
"303 1406 LINE",
"247 1406 LINE",
"247 1024 LINE",
"121 1024 LINE",
"121 982 LINE",
"247 982 LINE",
"247 0 LINE"
);
}
);
width = 634;
}
);
},
{
color = 3;
glyphname = u.alt;
lastChange = "2019-12-19 20:41:41 +0000";
layers = (
{
anchors = (
{
name = bottom;
position = "{731, 0}";
},
{
name = ogonek;
position = "{1269, 10}";
},
{
name = top;
position = "{731, 1024}";
},
{
name = topright;
position = "{1384, 1024}";
}
);
layerId = "9d3a33de-08d4-49ee-85e3-2813f64ed4e4";
paths = (
{
closed = 1;
nodes = (
"708 -32 OFFCURVE",
"818 26 OFFCURVE",
"888 96 CURVE",
"888 0 LINE",
"1304 0 LINE",
"1304 1024 LINE",
"888 1024 LINE",
"888 468 LINE SMOOTH",
"888 376 OFFCURVE",
"806 290 OFFCURVE",
"704 290 CURVE SMOOTH",
"610 290 OFFCURVE",
"552 362 OFFCURVE",
"552 452 CURVE SMOOTH",
"552 1024 LINE",
"136 1024 LINE",
"136 340 LINE SMOOTH",
"136 46 OFFCURVE",
"430 -32 OFFCURVE",
"596 -32 CURVE SMOOTH"
);
}
);
width = 1461;
},
{
anchors = (
{
name = bottom;
position = "{614, 0}";
},
{
name = ogonek;
position = "{1105, 10}";
},
{
name = top;
position = "{614, 1026}";
},
{
name = topright;
position = "{1208, 1026}";
}
);
layerId = "0ac4930a-26e9-4cfa-a42f-96cf237e936b";
paths = (
{
closed = 1;
nodes = (
"723 -32 OFFCURVE",
"883 22 OFFCURVE",
"937 154 CURVE",
"937 0 LINE",
"993 0 LINE",
"993 1024 LINE",
"937 1024 LINE",
"937 322 LINE SMOOTH",
"937 176 OFFCURVE",
"817 18 OFFCURVE",
"609 18 CURVE SMOOTH",
"377 18 OFFCURVE",
"273 158 OFFCURVE",
"273 402 CURVE SMOOTH",
"273 1024 LINE",
"217 1024 LINE",
"217 384 LINE SMOOTH",
"217 144 OFFCURVE",
"319 -32 OFFCURVE",
"609 -32 CURVE SMOOTH"
);
}
);
width = 1228;
}
);
},
{
color = 3;
glyphname = ff;
lastChange = "2019-12-19 20:41:41 +0000";
layers = (
{
associatedMasterId = "9d3a33de-08d4-49ee-85e3-2813f64ed4e4";
layerId = "cf2a3b8c-bb53-4d9e-827a-d6f64e11d495";
name = public.background;
width = 0;
},
{
anchors = (
{
name = caret_1;
position = "{767, 0}";
}
);
layerId = "9d3a33de-08d4-49ee-85e3-2813f64ed4e4";
paths = (
{
closed = 1;
nodes = (
"595 0 LINE",
"595 708 LINE",
"953 708 LINE",
"953 0 LINE",
"1369 0 LINE",
"1369 708 LINE",
"1597 708 LINE",
"1597 1024 LINE",
"1369 1024 LINE",
"1369 1188 LINE SMOOTH",
"1369 1324 OFFCURVE",
"1379 1382 OFFCURVE",
"1465 1382 CURVE SMOOTH",
"1508 1382 OFFCURVE",
"1545 1369 OFFCURVE",
"1567 1358 CURVE",
"1711 1648 LINE",
"1651 1695 OFFCURVE",
"1537 1750 OFFCURVE",
"1391 1750 CURVE SMOOTH",
"1111 1750 OFFCURVE",
"953 1518 OFFCURVE",
"953 1202 CURVE SMOOTH",
"953 1024 LINE",
"595 1024 LINE",
"595 1188 LINE SMOOTH",
"595 1324 OFFCURVE",
"605 1382 OFFCURVE",
"691 1382 CURVE SMOOTH",
"736 1382 OFFCURVE",
"777 1365 OFFCURVE",
"797 1354 CURVE",
"941 1646 LINE",
"879 1694 OFFCURVE",
"763 1750 OFFCURVE",
"617 1750 CURVE SMOOTH",
"337 1750 OFFCURVE",
"179 1518 OFFCURVE",
"179 1202 CURVE SMOOTH",
"179 1024 LINE",
"19 1024 LINE",
"19 708 LINE",
"179 708 LINE",
"179 0 LINE"
);
}
);
width = 1679;
},
{
anchors = (
{
name = caret_1;
position = "{612, 0}";
}
);
layerId = "0ac4930a-26e9-4cfa-a42f-96cf237e936b";
paths = (
{
closed = 1;
nodes = (
"350 0 LINE",
"350 982 LINE",
"682 982 LINE",
"682 0 LINE",
"738 0 LINE",
"738 982 LINE",
"1010 982 LINE",
"1010 1024 LINE",
"738 1024 LINE",
"738 1464 LINE SMOOTH",
"738 1636 OFFCURVE",
"804 1702 OFFCURVE",
"918 1702 CURVE SMOOTH",
"976 1702 OFFCURVE",
"1016 1686 OFFCURVE",
"1044 1662 CURVE",
"1064 1704 LINE",
"1036 1726 OFFCURVE",
"992 1750 OFFCURVE",
"914 1750 CURVE SMOOTH",
"778 1750 OFFCURVE",
"682 1674 OFFCURVE",
"682 1454 CURVE SMOOTH",
"682 1024 LINE",
"350 1024 LINE",
"350 1464 LINE SMOOTH",
"350 1636 OFFCURVE",
"416 1702 OFFCURVE",
"530 1702 CURVE SMOOTH",
"570 1702 OFFCURVE",
"602 1694 OFFCURVE",
"628 1680 CURVE",
"652 1720 LINE",
"624 1736 OFFCURVE",
"584 1750 OFFCURVE",
"526 1750 CURVE SMOOTH",
"390 1750 OFFCURVE",
"294 1674 OFFCURVE",
"294 1454 CURVE SMOOTH",
"294 1024 LINE",
"210 1024 LINE",
"210 982 LINE",
"294 982 LINE",
"294 0 LINE"
);
}
);
width = 1224;
}
);
rightKerningGroup = _A1;
unicode = FB00;
},
{
color = 3;
glyphname = ffi;
lastChange = "2019-12-19 20:41:41 +0000";
layers = (
{
associatedMasterId = "9d3a33de-08d4-49ee-85e3-2813f64ed4e4";
layerId = "cf2a3b8c-bb53-4d9e-827a-d6f64e11d495";
name = public.background;
width = 0;
},
{
anchors = (
{
name = caret_1;
position = "{752, 0}";
},
{
name = caret_2;
position = "{1504, 0}";
}
);
layerId = "9d3a33de-08d4-49ee-85e3-2813f64ed4e4";
paths = (
{
closed = 1;
nodes = (
"634 0 LINE",
"634 708 LINE",
"994 708 LINE",
"994 0 LINE",
"1410 0 LINE",
"1410 708 LINE",
"1746 708 LINE",
"1746 0 LINE",
"2162 0 LINE",
"2162 1024 LINE",
"1410 1024 LINE",
"1410 1188 LINE SMOOTH",
"1410 1324 OFFCURVE",
"1442 1386 OFFCURVE",
"1562 1386 CURVE SMOOTH",
"1657 1386 OFFCURVE",
"1764 1329 OFFCURVE",
"1832 1280 CURVE",
"1970 1576 LINE",
"1867 1655 OFFCURVE",
"1674 1750 OFFCURVE",
"1434 1750 CURVE SMOOTH",
"1154 1750 OFFCURVE",
"994 1518 OFFCURVE",
"994 1202 CURVE SMOOTH",
"994 1024 LINE",
"634 1024 LINE",
"634 1188 LINE SMOOTH",
"634 1324 OFFCURVE",
"644 1382 OFFCURVE",
"730 1382 CURVE SMOOTH",
"775 1382 OFFCURVE",
"816 1365 OFFCURVE",
"836 1354 CURVE",
"980 1646 LINE",
"918 1694 OFFCURVE",
"802 1750 OFFCURVE",
"656 1750 CURVE SMOOTH",
"376 1750 OFFCURVE",
"218 1518 OFFCURVE",
"218 1202 CURVE SMOOTH",
"218 1024 LINE",
"58 1024 LINE",
"58 708 LINE",
"218 708 LINE",
"218 0 LINE"
);
}
);
width = 2268;
},
{
anchors = (
{
name = caret_1;
position = "{446, 0}";
},
{
name = caret_2;
position = "{892, 0}";
}
);
layerId = "0ac4930a-26e9-4cfa-a42f-96cf237e936b";
paths = (
{
closed = 1;
nodes = (
"339 0 LINE",
"339 982 LINE",
"671 982 LINE",
"671 0 LINE",
"727 0 LINE",
"727 982 LINE",
"1043 982 LINE",
"1043 0 LINE",
"1099 0 LINE",
"1099 1024 LINE",
"727 1024 LINE",
"727 1464 LINE SMOOTH",
"727 1636 OFFCURVE",
"793 1702 OFFCURVE",
"907 1702 CURVE SMOOTH",
"965 1702 OFFCURVE",
"1033 1666 OFFCURVE",
"1053 1608 CURVE",
"1099 1626 LINE",
"1063 1706 OFFCURVE",
"981 1750 OFFCURVE",
"903 1750 CURVE SMOOTH",
"767 1750 OFFCURVE",
"671 1674 OFFCURVE",
"671 1454 CURVE SMOOTH",
"671 1024 LINE",
"339 1024 LINE",
"339 1464 LINE SMOOTH",
"339 1636 OFFCURVE",
"405 1702 OFFCURVE",
"519 1702 CURVE SMOOTH",
"559 1702 OFFCURVE",
"591 1694 OFFCURVE",
"617 1680 CURVE",
"641 1720 LINE",
"613 1736 OFFCURVE",
"573 1750 OFFCURVE",
"515 1750 CURVE SMOOTH",
"379 1750 OFFCURVE",
"283 1674 OFFCURVE",
"283 1454 CURVE SMOOTH",
"283 1024 LINE",
"199 1024 LINE",
"199 982 LINE",
"283 982 LINE",
"283 0 LINE"
);
}
);
width = 1338;
}
);
rightKerningGroup = _A1;
unicode = FB03;
},
{
color = 3;
glyphname = ffl;
lastChange = "2019-12-19 20:41:41 +0000";
layers = (
{
associatedMasterId = "9d3a33de-08d4-49ee-85e3-2813f64ed4e4";
layerId = "cf2a3b8c-bb53-4d9e-827a-d6f64e11d495";
name = public.background;
width = 0;
},
{
anchors = (
{
name = caret_1;
position = "{710, 0}";
},
{
name = caret_2;
position = "{1460, 0}";
}
);
layerId = "9d3a33de-08d4-49ee-85e3-2813f64ed4e4";
paths = (
{
closed = 1;
nodes = (
"595 0 LINE",
"595 708 LINE",
"953 708 LINE",
"953 0 LINE",
"1369 0 LINE",
"1369 708 LINE",
"1597 708 LINE",
"1597 1024 LINE",
"1369 1024 LINE",
"1369 1188 LINE SMOOTH",
"1369 1324 OFFCURVE",
"1379 1382 OFFCURVE",
"1465 1382 CURVE SMOOTH",
"1509 1382 OFFCURVE",
"1550 1366 OFFCURVE",
"1573 1354 CURVE",
"1633 1696 LINE",
"1589 1720 OFFCURVE",
"1502 1750 OFFCURVE",
"1391 1750 CURVE SMOOTH",
"1111 1750 OFFCURVE",
"953 1518 OFFCURVE",
"953 1202 CURVE SMOOTH",
"953 1024 LINE",
"595 1024 LINE",
"595 1188 LINE SMOOTH",
"595 1324 OFFCURVE",
"605 1382 OFFCURVE",
"691 1382 CURVE SMOOTH",
"736 1382 OFFCURVE",
"777 1365 OFFCURVE",
"797 1354 CURVE",
"941 1646 LINE",
"879 1694 OFFCURVE",
"763 1750 OFFCURVE",
"617 1750 CURVE SMOOTH",
"337 1750 OFFCURVE",
"179 1518 OFFCURVE",
"179 1202 CURVE SMOOTH",
"179 1024 LINE",
"19 1024 LINE",
"19 708 LINE",
"179 708 LINE",
"179 0 LINE"
);
},
{
closed = 1;
nodes = (
"2111 0 LINE",
"2111 1720 LINE",
"1695 1720 LINE",
"1695 0 LINE"
);
}
);
width = 2267;
},
{
associatedMasterId = "0ac4930a-26e9-4cfa-a42f-96cf237e936b";
layerId = "925388F7-E83B-4907-9D3C-E40F6BA082CC";
name = public.background;
width = 0;
},
{
anchors = (
{
name = caret_1;
position = "{480, 0}";
},
{
name = caret_2;
position = "{960, 0}";
}
);
layerId = "0ac4930a-26e9-4cfa-a42f-96cf237e936b";
paths = (
{
closed = 1;
nodes = (
"339 0 LINE",
"339 982 LINE",
"671 982 LINE",
"671 0 LINE",
"727 0 LINE",
"727 982 LINE",
"999 982 LINE",
"999 1024 LINE",
"727 1024 LINE",
"727 1464 LINE SMOOTH",
"727 1636 OFFCURVE",
"793 1702 OFFCURVE",
"907 1702 CURVE SMOOTH",
"947 1702 OFFCURVE",
"979 1694 OFFCURVE",
"1005 1680 CURVE",
"1029 1720 LINE",
"1001 1736 OFFCURVE",
"961 1750 OFFCURVE",
"903 1750 CURVE SMOOTH",
"767 1750 OFFCURVE",
"671 1674 OFFCURVE",
"671 1454 CURVE SMOOTH",
"671 1024 LINE",
"339 1024 LINE",
"339 1464 LINE SMOOTH",
"339 1636 OFFCURVE",
"405 1702 OFFCURVE",
"519 1702 CURVE SMOOTH",
"559 1702 OFFCURVE",
"591 1694 OFFCURVE",
"617 1680 CURVE",
"641 1720 LINE",
"613 1736 OFFCURVE",
"573 1750 OFFCURVE",
"515 1750 CURVE SMOOTH",
"379 1750 OFFCURVE",
"283 1674 OFFCURVE",
"283 1454 CURVE SMOOTH",
"283 1024 LINE",
"199 1024 LINE",
"199 982 LINE",
"283 982 LINE",
"283 0 LINE"
);
},
{
closed = 1;
nodes = (
"1159 0 LINE",
"1159 1720 LINE",
"1103 1720 LINE",
"1103 0 LINE"
);
}
);
width = 1440;
}
);
rightKerningGroup = _A1;
unicode = FB04;
},
{
color = 3;
glyphname = fi;
lastChange = "2019-12-19 20:41:41 +0000";
layers = (
{
associatedMasterId = "9d3a33de-08d4-49ee-85e3-2813f64ed4e4";
layerId = "cf2a3b8c-bb53-4d9e-827a-d6f64e11d495";
name = public.background;
width = 0;
},
{
anchors = (
{
name = caret_1;
position = "{765, 0}";
}
);
layerId = "9d3a33de-08d4-49ee-85e3-2813f64ed4e4";
paths = (
{
closed = 1;
nodes = (
"634 0 LINE",
"634 708 LINE",
"970 708 LINE",
"970 0 LINE",
"1386 0 LINE",
"1386 1024 LINE",
"634 1024 LINE",
"634 1188 LINE SMOOTH",
"634 1324 OFFCURVE",
"666 1386 OFFCURVE",
"786 1386 CURVE SMOOTH",
"881 1386 OFFCURVE",
"988 1329 OFFCURVE",
"1056 1280 CURVE",
"1194 1576 LINE",
"1091 1655 OFFCURVE",
"898 1750 OFFCURVE",
"658 1750 CURVE SMOOTH",
"378 1750 OFFCURVE",
"218 1518 OFFCURVE",
"218 1202 CURVE SMOOTH",
"218 1024 LINE",
"58 1024 LINE",
"58 708 LINE",
"218 708 LINE",
"218 0 LINE"
);
}
);
width = 1492;
},
{
anchors = (
{
name = caret_1;
position = "{428.5, 0}";
}
);
layerId = "0ac4930a-26e9-4cfa-a42f-96cf237e936b";
paths = (
{
closed = 1;
nodes = (
"292 0 LINE",
"292 982 LINE",
"610 982 LINE",
"610 0 LINE",
"666 0 LINE",
"666 1024 LINE",
"292 1024 LINE",
"292 1464 LINE SMOOTH",
"292 1636 OFFCURVE",
"358 1702 OFFCURVE",
"472 1702 CURVE SMOOTH",
"530 1702 OFFCURVE",
"598 1666 OFFCURVE",
"618 1608 CURVE",
"664 1626 LINE",
"628 1706 OFFCURVE",
"546 1750 OFFCURVE",
"468 1750 CURVE SMOOTH",
"332 1750 OFFCURVE",
"236 1674 OFFCURVE",
"236 1454 CURVE SMOOTH",
"236 1024 LINE",
"152 1024 LINE",
"152 982 LINE",
"236 982 LINE",
"236 0 LINE"
);
}
);
width = 857;
}
);
rightKerningGroup = _A1;
unicode = FB01;
},
{
color = 3;
glyphname = fl;
lastChange = "2019-12-19 20:41:41 +0000";
layers = (
{
associatedMasterId = "9d3a33de-08d4-49ee-85e3-2813f64ed4e4";
layerId = "cf2a3b8c-bb53-4d9e-827a-d6f64e11d495";
name = public.background;
width = 0;
},
{
anchors = (
{
name = caret_1;
position = "{723, 0}";
}
);
layerId = "9d3a33de-08d4-49ee-85e3-2813f64ed4e4";
paths = (
{
closed = 1;
nodes = (
"595 0 LINE",
"595 708 LINE",
"823 708 LINE",
"823 1024 LINE",
"595 1024 LINE",
"595 1188 LINE SMOOTH",
"595 1324 OFFCURVE",
"605 1382 OFFCURVE",
"691 1382 CURVE SMOOTH",
"735 1382 OFFCURVE",
"776 1366 OFFCURVE",
"799 1354 CURVE",
"859 1696 LINE",
"815 1720 OFFCURVE",
"728 1750 OFFCURVE",
"617 1750 CURVE SMOOTH",
"337 1750 OFFCURVE",
"179 1518 OFFCURVE",
"179 1202 CURVE SMOOTH",
"179 1024 LINE",
"19 1024 LINE",
"19 708 LINE",
"179 708 LINE",
"179 0 LINE"
);
},
{
closed = 1;
nodes = (
"1337 0 LINE",
"1337 1720 LINE",
"921 1720 LINE",
"921 0 LINE"
);
}
);
width = 1493;
},
{
anchors = (
{
name = caret_1;
position = "{524, 0}";
}
);
layerId = "0ac4930a-26e9-4cfa-a42f-96cf237e936b";
paths = (
{
closed = 1;
nodes = (
"337 0 LINE",
"337 982 LINE",
"609 982 LINE",
"609 1024 LINE",
"337 1024 LINE",
"337 1464 LINE SMOOTH",
"337 1636 OFFCURVE",
"403 1702 OFFCURVE",
"517 1702 CURVE SMOOTH",
"557 1702 OFFCURVE",
"589 1694 OFFCURVE",
"615 1680 CURVE",
"639 1720 LINE",
"611 1736 OFFCURVE",
"571 1750 OFFCURVE",
"513 1750 CURVE SMOOTH",
"377 1750 OFFCURVE",
"283 1674 OFFCURVE",
"283 1454 CURVE SMOOTH",
"283 1024 LINE",
"197 1024 LINE",
"197 982 LINE",
"283 982 LINE",
"283 0 LINE"
);
},
{
closed = 1;
nodes = (
"767 0 LINE",
"767 1720 LINE",
"715 1720 LINE",
"715 0 LINE"
);
}
);
width = 1048;
}
);
rightKerningGroup = _A1;
unicode = FB02;
},
{
color = 0;
glyphname = ordfeminine;
lastChange = "2019-12-19 20:41:28 +0000";
layers = (
{
layerId = "9d3a33de-08d4-49ee-85e3-2813f64ed4e4";
paths = (
{
closed = 1;
nodes = (
"525 1008 OFFCURVE",
"593 1040 OFFCURVE",
"641 1078 CURVE",
"641 1028 LINE",
"899 1028 LINE",
"899 1660 LINE",
"641 1660 LINE",
"641 1620 LINE",
"589 1660 OFFCURVE",
"525 1680 OFFCURVE",
"449 1680 CURVE SMOOTH",
"263 1680 OFFCURVE",
"137 1528 OFFCURVE",
"137 1344 CURVE SMOOTH",
"137 1344 LINE",
"137 1162 OFFCURVE",
"263 1008 OFFCURVE",
"449 1008 CURVE SMOOTH"
);
},
{
closed = 1;
nodes = (
"453 1226 OFFCURVE",
"407 1276 OFFCURVE",
"407 1344 CURVE SMOOTH",
"407 1344 LINE SMOOTH",
"407 1414 OFFCURVE",
"461 1462 OFFCURVE",
"527 1462 CURVE SMOOTH",
"593 1462 OFFCURVE",
"647 1414 OFFCURVE",
"647 1344 CURVE SMOOTH",
"647 1276 OFFCURVE",
"597 1226 OFFCURVE",
"527 1226 CURVE SMOOTH"
);
}
);
width = 1094;
},
{
associatedMasterId = "0ac4930a-26e9-4cfa-a42f-96cf237e936b";
layerId = "1255107F-1D0F-4B78-A2A4-54B3D7A173C9";
name = public.background;
width = 0;
},
{
layerId = "0ac4930a-26e9-4cfa-a42f-96cf237e936b";
paths = (
{
closed = 1;
nodes = (
"622 1008 OFFCURVE",
"728 1078 OFFCURVE",
"778 1190 CURVE",
"778 1028 LINE",
"812 1028 LINE",
"812 1660 LINE",
"778 1660 LINE",
"778 1498 LINE",
"728 1610 OFFCURVE",
"622 1680 OFFCURVE",
"496 1680 CURVE SMOOTH",
"316 1680 OFFCURVE",
"178 1540 OFFCURVE",
"178 1344 CURVE SMOOTH",
"178 1344 LINE",
"178 1146 OFFCURVE",
"316 1008 OFFCURVE",
"496 1008 CURVE SMOOTH"
);
},
{
closed = 1;
nodes = (
"332 1038 OFFCURVE",
"212 1168 OFFCURVE",
"212 1344 CURVE SMOOTH",
"212 1344 LINE",
"212 1522 OFFCURVE",
"332 1650 OFFCURVE",
"496 1650 CURVE SMOOTH",
"660 1650 OFFCURVE",
"778 1522 OFFCURVE",
"778 1344 CURVE SMOOTH",
"778 1168 OFFCURVE",
"660 1038 OFFCURVE",
"496 1038 CURVE SMOOTH"
);
}
);
width = 1046;
}
);
rightKerningGroup = _A1;
unicode = 00AA;
},
{
color = 0;
glyphname = ordmasculine;
lastChange = "2019-12-19 20:41:28 +0000";
layers = (
{
associatedMasterId = "9d3a33de-08d4-49ee-85e3-2813f64ed4e4";
layerId = "cf2a3b8c-bb53-4d9e-827a-d6f64e11d495";
name = public.background;
width = 0;
},
{
layerId = "9d3a33de-08d4-49ee-85e3-2813f64ed4e4";
paths = (
{
closed = 1;
nodes = (
"680 1004 OFFCURVE",
"844 1144 OFFCURVE",
"844 1342 CURVE SMOOTH",
"844 1540 OFFCURVE",
"680 1680 OFFCURVE",
"466 1680 CURVE SMOOTH",
"252 1680 OFFCURVE",
"88 1540 OFFCURVE",
"88 1342 CURVE SMOOTH",
"88 1342 LINE SMOOTH",
"88 1144 OFFCURVE",
"252 1004 OFFCURVE",
"466 1004 CURVE SMOOTH"
);
},
{
closed = 1;
nodes = (
"406 1220 OFFCURVE",
"360 1270 OFFCURVE",
"360 1342 CURVE SMOOTH",
"360 1342 LINE SMOOTH",
"360 1414 OFFCURVE",
"406 1464 OFFCURVE",
"466 1464 CURVE SMOOTH",
"526 1464 OFFCURVE",
"572 1414 OFFCURVE",
"572 1342 CURVE SMOOTH",
"572 1270 OFFCURVE",
"526 1220 OFFCURVE",
"466 1220 CURVE SMOOTH"
);
}
);
width = 934;
},
{
layerId = "0ac4930a-26e9-4cfa-a42f-96cf237e936b";
paths = (
{
closed = 1;
nodes = (
"704 1008 OFFCURVE",
"852 1146 OFFCURVE",
"852 1344 CURVE SMOOTH",
"852 1544 OFFCURVE",
"704 1680 OFFCURVE",
"514 1680 CURVE SMOOTH",
"322 1680 OFFCURVE",
"176 1544 OFFCURVE",
"176 1344 CURVE SMOOTH",
"176 1344 LINE",
"176 1146 OFFCURVE",
"322 1008 OFFCURVE",
"514 1008 CURVE SMOOTH"
);
},
{
closed = 1;
nodes = (
"336 1040 OFFCURVE",
"208 1168 OFFCURVE",
"208 1344 CURVE SMOOTH",
"208 1344 LINE",
"208 1520 OFFCURVE",
"336 1648 OFFCURVE",
"514 1648 CURVE SMOOTH",
"690 1648 OFFCURVE",
"820 1520 OFFCURVE",
"820 1344 CURVE SMOOTH",
"820 1168 OFFCURVE",
"690 1040 OFFCURVE",
"514 1040 CURVE SMOOTH"
);
}
);
width = 1028;
}
);
rightKerningGroup = _A1;
unicode = 00BA;
},
{
color = 4;
glyphname = zero;
lastChange = "2019-12-19 21:18:24 +0000";
layers = (
{
associatedMasterId = "9d3a33de-08d4-49ee-85e3-2813f64ed4e4";
layerId = "cf2a3b8c-bb53-4d9e-827a-d6f64e11d495";
name = public.background;
width = 0;
},
{
layerId = "9d3a33de-08d4-49ee-85e3-2813f64ed4e4";
paths = (
{
closed = 1;
nodes = (
"1158 -32 OFFCURVE",
"1435 316 OFFCURVE",
"1435 824 CURVE SMOOTH",
"1435 1332 OFFCURVE",
"1158 1680 OFFCURVE",
"753 1680 CURVE SMOOTH",
"348 1680 OFFCURVE",
"71 1332 OFFCURVE",
"71 824 CURVE SMOOTH",
"71 316 OFFCURVE",
"348 -32 OFFCURVE",
"753 -32 CURVE SMOOTH"
);
},
{
closed = 1;
nodes = (
"614 354 OFFCURVE",
"535 525 OFFCURVE",
"535 824 CURVE SMOOTH",
"535 1123 OFFCURVE",
"614 1294 OFFCURVE",
"753 1294 CURVE SMOOTH",
"892 1294 OFFCURVE",
"971 1123 OFFCURVE",
"971 824 CURVE SMOOTH",
"971 525 OFFCURVE",
"892 354 OFFCURVE",
"753 354 CURVE SMOOTH"
);
}
);
width = 1506;
},
{
layerId = "0ac4930a-26e9-4cfa-a42f-96cf237e936b";
paths = (
{
closed = 1;
nodes = (
"1276 -32 OFFCURVE",
"1544 311 OFFCURVE",
"1544 824 CURVE SMOOTH",
"1544 1337 OFFCURVE",
"1276 1680 OFFCURVE",
"874 1680 CURVE SMOOTH",
"472 1680 OFFCURVE",
"204 1337 OFFCURVE",
"204 824 CURVE SMOOTH",
"204 311 OFFCURVE",
"472 -32 OFFCURVE",
"874 -32 CURVE SMOOTH"
);
},
{
closed = 1;
nodes = (
"509 22 OFFCURVE",
"264 344 OFFCURVE",
"264 824 CURVE SMOOTH",
"264 1304 OFFCURVE",
"509 1626 OFFCURVE",
"874 1626 CURVE SMOOTH",
"1239 1626 OFFCURVE",
"1484 1304 OFFCURVE",
"1484 824 CURVE SMOOTH",
"1484 344 OFFCURVE",
"1239 22 OFFCURVE",
"874 22 CURVE SMOOTH"
);
}
);
width = 1748;
}
);
rightKerningGroup = _A1;
unicode = 0030;
},
{
color = 3;
glyphname = one;
lastChange = "2019-12-19 20:41:53 +0000";
layers = (
{
layerId = "9d3a33de-08d4-49ee-85e3-2813f64ed4e4";
paths = (
{
closed = 1;
nodes = (
"736 0 LINE",
"736 1650 LINE",
"-10 1650 LINE",
"-10 1218 LINE",
"296 1218 LINE",
"296 0 LINE"
);
}
);
width = 924;
},
{
layerId = "0ac4930a-26e9-4cfa-a42f-96cf237e936b";
paths = (
{
closed = 1;
nodes = (
"345 0 LINE",
"345 1650 LINE",
"183 1650 LINE",
"183 1594 LINE",
"289 1594 LINE",
"289 0 LINE"
);
}
);
width = 627;
}
);
rightKerningGroup = _A1;
unicode = 0031;
},
{
color = 3;
glyphname = two;
lastChange = "2019-12-19 21:16:06 +0000";
layers = (
{
layerId = "9d3a33de-08d4-49ee-85e3-2813f64ed4e4";
paths = (
{
closed = 1;
nodes = (
"1345 0 LINE",
"1345 386 LINE",
"805 386 LINE",
"1146 611 OFFCURVE",
"1315 857 OFFCURVE",
"1315 1119 CURVE SMOOTH",
"1315 1436 OFFCURVE",
"1068 1682 OFFCURVE",
"682 1682 CURVE SMOOTH",
"360 1682 OFFCURVE",
"141 1510 OFFCURVE",
"29 1210 CURVE",
"393 1028 LINE",
"473 1205 OFFCURVE",
"545 1294 OFFCURVE",
"656 1294 CURVE SMOOTH",
"771 1294 OFFCURVE",
"841 1200 OFFCURVE",
"841 1104 CURVE SMOOTH",
"841 912 OFFCURVE",
"559 632 OFFCURVE",
"25 230 CURVE",
"25 0 LINE"
);
}
);
width = 1448;
},
{
layerId = "0ac4930a-26e9-4cfa-a42f-96cf237e936b";
paths = (
{
closed = 1;
nodes = (
"1279 0 LINE",
"1279 62 LINE",
"254 62 LINE",
"252 14 LINE",
"1064 660 OFFCURVE",
"1249 871 OFFCURVE",
"1249 1144 CURVE SMOOTH",
"1249 1456 OFFCURVE",
"999 1680 OFFCURVE",
"718 1680 CURVE SMOOTH",
"427 1680 OFFCURVE",
"189 1442 OFFCURVE",
"189 1150 CURVE",
"251 1150 LINE",
"251 1408 OFFCURVE",
"461 1618 OFFCURVE",
"719 1618 CURVE SMOOTH",
"971 1618 OFFCURVE",
"1187 1415 OFFCURVE",
"1187 1147 CURVE SMOOTH",
"1187 892 OFFCURVE",
"997 681 OFFCURVE",
"159 18 CURVE",
"159 0 LINE"
);
}
);
width = 1454;
}
);
rightKerningGroup = _A1;
unicode = 0032;
},
{
color = 3;
glyphname = three;
lastChange = "2019-12-19 20:41:53 +0000";
layers = (
{
layerId = "9d3a33de-08d4-49ee-85e3-2813f64ed4e4";
paths = (
{
closed = 1;
nodes = (
"997 -32 OFFCURVE",
"1275 200 OFFCURVE",
"1275 530 CURVE SMOOTH",
"1275 700 OFFCURVE",
"1201 814 OFFCURVE",
"1087 898 CURVE",
"1159 972 OFFCURVE",
"1201 1062 OFFCURVE",
"1201 1186 CURVE SMOOTH",
"1201 1474 OFFCURVE",
"965 1680 OFFCURVE",
"635 1680 CURVE SMOOTH",
"292 1680 OFFCURVE",
"123 1486 OFFCURVE",
"65 1328 CURVE",
"65 1328 LINE",
"409 1156 LINE",
"430 1236 OFFCURVE",
"496 1328 OFFCURVE",
"631 1328 CURVE SMOOTH",
"717 1328 OFFCURVE",
"803 1268 OFFCURVE",
"803 1182 CURVE SMOOTH",
"803 1082 OFFCURVE",
"721 1010 OFFCURVE",
"645 1010 CURVE SMOOTH",
"555 1010 LINE",
"555 726 LINE",
"573 733 OFFCURVE",
"602 740 OFFCURVE",
"631 740 CURVE SMOOTH",
"747 740 OFFCURVE",
"837 656 OFFCURVE",
"837 530 CURVE SMOOTH",
"837 404 OFFCURVE",
"745 344 OFFCURVE",
"633 344 CURVE SMOOTH",
"468 344 OFFCURVE",
"407 471 OFFCURVE",
"395 572 CURVE",
"-11 368 LINE",
"60 190 OFFCURVE",
"255 -32 OFFCURVE",
"635 -32 CURVE SMOOTH"
);
}
);
width = 1355;
},
{
layerId = "0ac4930a-26e9-4cfa-a42f-96cf237e936b";
paths = (
{
closed = 1;
nodes = (
"965 -32 OFFCURVE",
"1121 164 OFFCURVE",
"1121 406 CURVE SMOOTH",
"1121 606 OFFCURVE",
"999 792 OFFCURVE",
"805 836 CURVE",
"981 890 OFFCURVE",
"1109 1060 OFFCURVE",
"1109 1254 CURVE SMOOTH",
"1109 1488 OFFCURVE",
"919 1680 OFFCURVE",
"683 1680 CURVE SMOOTH",
"449 1680 OFFCURVE",
"257 1500 OFFCURVE",
"257 1256 CURVE",
"257 1256 LINE",
"313 1256 LINE",
"313 1458 OFFCURVE",
"477 1624 OFFCURVE",
"681 1624 CURVE SMOOTH",
"885 1624 OFFCURVE",
"1049 1458 OFFCURVE",
"1049 1256 CURVE SMOOTH",
"1049 1034 OFFCURVE",
"869 864 OFFCURVE",
"647 864 CURVE",
"603 864 LINE",
"603 806 LINE",
"616 809 OFFCURVE",
"636 812 OFFCURVE",
"657 812 CURVE SMOOTH",
"869 812 OFFCURVE",
"1057 634 OFFCURVE",
"1057 406 CURVE SMOOTH",
"1057 198 OFFCURVE",
"921 30 OFFCURVE",
"653 30 CURVE SMOOTH",
"385 30 OFFCURVE",
"221 196 OFFCURVE",
"221 404 CURVE",
"163 404 LINE",
"163 162 OFFCURVE",
"343 -32 OFFCURVE",
"653 -32 CURVE SMOOTH"
);
}
);
width = 1333;
}
);
rightKerningGroup = _A1;
unicode = 0033;
},
{
color = 3;
glyphname = four;
lastChange = "2019-12-19 20:41:53 +0000";
layers = (
{
layerId = "9d3a33de-08d4-49ee-85e3-2813f64ed4e4";
paths = (
{
closed = 1;
nodes = (
"1208 0 LINE",
"1208 292 LINE",
"1400 292 LINE",
"1400 678 LINE",
"1208 678 LINE",
"1208 1650 LINE",
"772 1650 LINE",
"-24 416 LINE",
"-24 292 LINE",
"796 292 LINE",
"796 0 LINE"
);
},
{
closed = 1;
nodes = (
"796 1064 LINE",
"796 678 LINE",
"580 678 LINE"
);
}
);
width = 1463;
},
{
layerId = "0ac4930a-26e9-4cfa-a42f-96cf237e936b";
paths = (
{
closed = 1;
nodes = (
"975 0 LINE",
"975 626 LINE",
"1167 626 LINE",
"1167 676 LINE",
"975 676 LINE",
"975 1650 LINE",
"919 1650 LINE",
"149 676 LINE",
"149 626 LINE",
"919 626 LINE",
"919 0 LINE"
);
},
{
closed = 1;
nodes = (
"919 1568 LINE",
"919 676 LINE",
"213 676 LINE"
);
}
);
width = 1314;
}
);
rightKerningGroup = _A1;
unicode = 0034;
},
{
color = 3;
glyphname = five;
lastChange = "2019-12-19 20:41:53 +0000";
layers = (
{
associatedMasterId = "9d3a33de-08d4-49ee-85e3-2813f64ed4e4";
layerId = "cf2a3b8c-bb53-4d9e-827a-d6f64e11d495";
name = public.background;
width = 0;
},
{
layerId = "9d3a33de-08d4-49ee-85e3-2813f64ed4e4";
paths = (
{
closed = 1;
nodes = (
"963 -30 OFFCURVE",
"1233 196 OFFCURVE",
"1233 512 CURVE SMOOTH",
"1233 742 OFFCURVE",
"1159 888 OFFCURVE",
"1046 975 CURVE SMOOTH",
"940 1058 OFFCURVE",
"791 1092 OFFCURVE",
"637 1092 CURVE",
"663 1264 LINE",
"1127 1264 LINE",
"1127 1650 LINE",
"285 1650 LINE",
"141 734 LINE",
"194 749 OFFCURVE",
"286 768 OFFCURVE",
"385 768 CURVE SMOOTH",
"583 768 OFFCURVE",
"791 722 OFFCURVE",
"791 526 CURVE SMOOTH",
"791 416 OFFCURVE",
"709 338 OFFCURVE",
"615 338 CURVE SMOOTH",
"465 338 OFFCURVE",
"395 404 OFFCURVE",
"371 496 CURVE",
"23 328 LINE",
"85 160 OFFCURVE",
"255 -30 OFFCURVE",
"615 -30 CURVE SMOOTH"
);
}
);
width = 1315;
},
{
layerId = "0ac4930a-26e9-4cfa-a42f-96cf237e936b";
paths = (
{
closed = 1;
nodes = (
"1111 -32 OFFCURVE",
"1315 194 OFFCURVE",
"1315 510 CURVE SMOOTH",
"1315 876 OFFCURVE",
"1051 1092 OFFCURVE",
"725 1092 CURVE SMOOTH",
"521 1092 OFFCURVE",
"391 1012 OFFCURVE",
"303 930 CURVE",
"407 1600 LINE",
"1209 1600 LINE",
"1209 1650 LINE",
"367 1650 LINE",
"235 798 LINE",
"339 918 OFFCURVE",
"499 1044 OFFCURVE",
"727 1044 CURVE SMOOTH",
"1023 1044 OFFCURVE",
"1265 846 OFFCURVE",
"1265 512 CURVE SMOOTH",
"1265 222 OFFCURVE",
"1081 16 OFFCURVE",
"729 16 CURVE SMOOTH",
"445 16 OFFCURVE",
"267 196 OFFCURVE",
"211 350 CURVE",
"163 326 LINE",
"225 158 OFFCURVE",
"415 -32 OFFCURVE",
"727 -32 CURVE SMOOTH"
);
}
);
width = 1498;
}
);
rightKerningGroup = _A1;
unicode = 0035;
},
{
color = 3;
glyphname = six;
lastChange = "2019-12-19 20:41:53 +0000";
layers = (
{
layerId = "9d3a33de-08d4-49ee-85e3-2813f64ed4e4";
paths = (
{
closed = 1;
nodes = (
"1010 -32 OFFCURVE",
"1340 128 OFFCURVE",
"1340 532 CURVE SMOOTH",
"1340 940 OFFCURVE",
"1081 1110 OFFCURVE",
"822 1110 CURVE SMOOTH",
"777 1110 OFFCURVE",
"745 1102 OFFCURVE",
"730 1096 CURVE",
"1208 1650 LINE",
"666 1650 LINE",
"324 1244 LINE SMOOTH",
"89 965 OFFCURVE",
"40 817 OFFCURVE",
"40 532 CURVE SMOOTH",
"40 216 OFFCURVE",
"340 -32 OFFCURVE",
"718 -32 CURVE SMOOTH"
);
},
{
closed = 1;
nodes = (
"580 332 OFFCURVE",
"498 416 OFFCURVE",
"498 530 CURVE SMOOTH",
"498 652 OFFCURVE",
"586 734 OFFCURVE",
"696 734 CURVE SMOOTH",
"810 734 OFFCURVE",
"898 648 OFFCURVE",
"898 530 CURVE SMOOTH",
"898 416 OFFCURVE",
"812 332 OFFCURVE",
"696 332 CURVE SMOOTH"
);
}
);
width = 1373;
},
{
layerId = "0ac4930a-26e9-4cfa-a42f-96cf237e936b";
paths = (
{
closed = 1;
nodes = (
"1061 -32 OFFCURVE",
"1301 204 OFFCURVE",
"1301 524 CURVE SMOOTH",
"1301 849 OFFCURVE",
"1061 1096 OFFCURVE",
"745 1096 CURVE SMOOTH",
"662 1096 OFFCURVE",
"573 1071 OFFCURVE",
"487 1024 CURVE",
"1011 1650 LINE",
"941 1650 LINE",
"321 912 LINE SMOOTH",
"238 814 OFFCURVE",
"179 654 OFFCURVE",
"179 524 CURVE SMOOTH",
"179 202 OFFCURVE",
"413 -32 OFFCURVE",
"735 -32 CURVE SMOOTH"
);
},
{
closed = 1;
nodes = (
"443 20 OFFCURVE",
"231 232 OFFCURVE",
"231 526 CURVE SMOOTH",
"231 808 OFFCURVE",
"465 1044 OFFCURVE",
"745 1044 CURVE SMOOTH",
"1032 1044 OFFCURVE",
"1249 821 OFFCURVE",
"1249 526 CURVE SMOOTH",
"1249 234 OFFCURVE",
"1031 20 OFFCURVE",
"735 20 CURVE SMOOTH"
);
}
);
width = 1480;
}
);
rightKerningGroup = _A1;
unicode = 0036;
},
{
color = 3;
glyphname = seven;
lastChange = "2019-12-19 20:41:53 +0000";
layers = (
{
layerId = "9d3a33de-08d4-49ee-85e3-2813f64ed4e4";
paths = (
{
closed = 1;
nodes = (
"526 0 LINE",
"1398 1524 LINE",
"1398 1650 LINE",
"66 1650 LINE",
"66 1264 LINE",
"746 1264 LINE",
"6 0 LINE"
);
}
);
width = 1352;
},
{
layerId = "0ac4930a-26e9-4cfa-a42f-96cf237e936b";
paths = (
{
closed = 1;
nodes = (
"219 0 LINE",
"1091 1624 LINE",
"1091 1650 LINE",
"153 1650 LINE",
"153 1600 LINE",
"1011 1600 LINE",
"153 0 LINE"
);
}
);
width = 1235;
}
);
rightKerningGroup = _A1;
unicode = 0037;
},
{
color = 3;
glyphname = eight;
lastChange = "2019-12-19 20:41:53 +0000";
layers = (
{
associatedMasterId = "9d3a33de-08d4-49ee-85e3-2813f64ed4e4";
layerId = "cf2a3b8c-bb53-4d9e-827a-d6f64e11d495";
name = public.background;
width = 0;
},
{
layerId = "9d3a33de-08d4-49ee-85e3-2813f64ed4e4";
paths = (
{
closed = 1;
nodes = (
"1048 -32 OFFCURVE",
"1362 164 OFFCURVE",
"1362 446 CURVE SMOOTH",
"1362 674 OFFCURVE",
"1242 816 OFFCURVE",
"1080 894 CURVE",
"1202 968 OFFCURVE",
"1290 1082 OFFCURVE",
"1290 1264 CURVE SMOOTH",
"1290 1512 OFFCURVE",
"998 1680 OFFCURVE",
"718 1680 CURVE SMOOTH",
"438 1680 OFFCURVE",
"146 1512 OFFCURVE",
"146 1264 CURVE SMOOTH",
"146 1264 LINE SMOOTH",
"146 1082 OFFCURVE",
"234 968 OFFCURVE",
"356 894 CURVE",
"194 816 OFFCURVE",
"74 674 OFFCURVE",
"74 446 CURVE SMOOTH",
"74 164 OFFCURVE",
"388 -32 OFFCURVE",
"718 -32 CURVE SMOOTH"
);
},
{
closed = 1;
nodes = (
"620 348 OFFCURVE",
"556 418 OFFCURVE",
"556 518 CURVE SMOOTH",
"556 518 LINE SMOOTH",
"556 618 OFFCURVE",
"624 688 OFFCURVE",
"718 688 CURVE SMOOTH",
"812 688 OFFCURVE",
"880 618 OFFCURVE",
"880 518 CURVE SMOOTH",
"880 418 OFFCURVE",
"816 348 OFFCURVE",
"718 348 CURVE SMOOTH"
);
},
{
closed = 1;
nodes = (
"638 1052 OFFCURVE",
"570 1110 OFFCURVE",
"570 1200 CURVE SMOOTH",
"570 1200 LINE SMOOTH",
"570 1282 OFFCURVE",
"632 1348 OFFCURVE",
"718 1348 CURVE SMOOTH",
"804 1348 OFFCURVE",
"866 1282 OFFCURVE",
"866 1200 CURVE SMOOTH",
"866 1110 OFFCURVE",
"798 1052 OFFCURVE",
"718 1052 CURVE SMOOTH"
);
}
);
width = 1437;
},
{
associatedMasterId = "0ac4930a-26e9-4cfa-a42f-96cf237e936b";
layerId = "DB78CC43-A7F6-4AC0-9396-6741CFBC96AA";
name = public.background;
width = 0;
},
{
layerId = "0ac4930a-26e9-4cfa-a42f-96cf237e936b";
paths = (
{
closed = 1;
nodes = (
"954 -32 OFFCURVE",
"1162 164 OFFCURVE",
"1162 434 CURVE SMOOTH",
"1162 648 OFFCURVE",
"1024 808 OFFCURVE",
"842 872 CURVE",
"992 934 OFFCURVE",
"1102 1078 OFFCURVE",
"1102 1260 CURVE SMOOTH",
"1102 1508 OFFCURVE",
"912 1680 OFFCURVE",
"678 1680 CURVE SMOOTH",
"444 1680 OFFCURVE",
"254 1508 OFFCURVE",
"254 1260 CURVE SMOOTH",
"254 1260 LINE SMOOTH",
"254 1078 OFFCURVE",
"364 934 OFFCURVE",
"514 872 CURVE",
"332 808 OFFCURVE",
"194 648 OFFCURVE",
"194 434 CURVE SMOOTH",
"194 164 OFFCURVE",
"402 -32 OFFCURVE",
"678 -32 CURVE SMOOTH"
);
},
{
closed = 1;
nodes = (
"432 16 OFFCURVE",
"248 190 OFFCURVE",
"248 432 CURVE SMOOTH",
"248 432 LINE SMOOTH",
"248 676 OFFCURVE",
"440 846 OFFCURVE",
"678 846 CURVE SMOOTH",
"916 846 OFFCURVE",
"1108 676 OFFCURVE",
"1108 432 CURVE SMOOTH",
"1108 190 OFFCURVE",
"924 16 OFFCURVE",
"678 16 CURVE SMOOTH"
);
},
{
closed = 1;
nodes = (
"464 892 OFFCURVE",
"302 1048 OFFCURVE",
"302 1264 CURVE SMOOTH",
"302 1264 LINE SMOOTH",
"302 1484 OFFCURVE",
"470 1638 OFFCURVE",
"678 1638 CURVE SMOOTH",
"886 1638 OFFCURVE",
"1054 1484 OFFCURVE",
"1054 1264 CURVE SMOOTH",
"1054 1048 OFFCURVE",
"892 892 OFFCURVE",
"678 892 CURVE SMOOTH"
);
}
);
width = 1356;
}
);
rightKerningGroup = _A1;
unicode = 0038;
},
{
color = 4;
glyphname = nine;
lastChange = "2019-12-18 16:57:23 +0000";
layers = (
{
background = {
paths = (
{
closed = 1;
nodes = (
"706 0 LINE",
"1048 404 LINE SMOOTH",
"1238 629 OFFCURVE",
"1332 773 OFFCURVE",
"1332 1116 CURVE SMOOTH",
"1332 1432 OFFCURVE",
"1032 1680 OFFCURVE",
"654 1680 CURVE SMOOTH",
"362 1680 OFFCURVE",
"32 1520 OFFCURVE",
"32 1116 CURVE SMOOTH",
"32 722 OFFCURVE",
"342 538 OFFCURVE",
"550 538 CURVE SMOOTH",
"595 538 OFFCURVE",
"627 546 OFFCURVE",
"642 552 CURVE",
"164 0 LINE"
);
},
{
closed = 1;
nodes = (
"562 914 OFFCURVE",
"474 1000 OFFCURVE",
"474 1118 CURVE SMOOTH",
"474 1232 OFFCURVE",
"560 1316 OFFCURVE",
"676 1316 CURVE SMOOTH",
"792 1316 OFFCURVE",
"874 1232 OFFCURVE",
"874 1118 CURVE SMOOTH",
"874 996 OFFCURVE",
"786 914 OFFCURVE",
"676 914 CURVE SMOOTH"
);
}
);
};
layerId = "9d3a33de-08d4-49ee-85e3-2813f64ed4e4";
paths = (
{
closed = 1;
nodes = (
"706 0 LINE",
"1048 404 LINE SMOOTH",
"1250 644 OFFCURVE",
"1332 841 OFFCURVE",
"1332 1086 CURVE SMOOTH",
"1332 1441 OFFCURVE",
"1059 1680 OFFCURVE",
"654 1680 CURVE SMOOTH",
"275 1680 OFFCURVE",
"32 1448 OFFCURVE",
"32 1086 CURVE SMOOTH",
"32 800 OFFCURVE",
"280 538 OFFCURVE",
"550 538 CURVE SMOOTH",
"613 538 OFFCURVE",
"703 566 OFFCURVE",
"703 586 CURVE",
"671 586 LINE",
"164 0 LINE"
);
},
{
closed = 1;
nodes = (
"560 914 OFFCURVE",
"474 1001 OFFCURVE",
"474 1118 CURVE SMOOTH",
"474 1233 OFFCURVE",
"558 1316 OFFCURVE",
"674 1316 CURVE SMOOTH",
"790 1316 OFFCURVE",
"874 1233 OFFCURVE",
"874 1118 CURVE SMOOTH",
"874 1001 OFFCURVE",
"788 914 OFFCURVE",
"674 914 CURVE SMOOTH"
);
}
);
width = 1373;
},
{
layerId = "0ac4930a-26e9-4cfa-a42f-96cf237e936b";
paths = (
{
closed = 1;
nodes = (
"539 0 LINE",
"1159 738 LINE SMOOTH",
"1249 846 OFFCURVE",
"1301 986 OFFCURVE",
"1301 1123 CURVE SMOOTH",
"1301 1446 OFFCURVE",
"1067 1680 OFFCURVE",
"744 1680 CURVE SMOOTH",
"419 1680 OFFCURVE",
"179 1444 OFFCURVE",
"179 1123 CURVE SMOOTH",
"179 800 OFFCURVE",
"423 554 OFFCURVE",
"744 554 CURVE SMOOTH",
"848 554 OFFCURVE",
"949 591 OFFCURVE",
"1029 658 CURVE",
"1022 658 LINE",
"469 0 LINE"
);
},
{
closed = 1;
nodes = (
"452 606 OFFCURVE",
"231 829 OFFCURVE",
"231 1123 CURVE SMOOTH",
"231 1414 OFFCURVE",
"449 1628 OFFCURVE",
"744 1628 CURVE SMOOTH",
"1037 1628 OFFCURVE",
"1249 1416 OFFCURVE",
"1249 1123 CURVE SMOOTH",
"1249 841 OFFCURVE",
"1020 606 OFFCURVE",
"744 606 CURVE SMOOTH"
);
}
);
width = 1480;
}
);
rightKerningGroup = _A1;
unicode = 0039;
},
{
color = 0;
glyphname = onesuperior;
lastChange = "2019-12-19 20:41:58 +0000";
layers = (
{
layerId = "9d3a33de-08d4-49ee-85e3-2813f64ed4e4";
paths = (
{
closed = 1;
nodes = (
"333 1026 LINE",
"333 1650 LINE",
"51 1650 LINE",
"51 1486 LINE",
"167 1486 LINE",
"167 1026 LINE"
);
}
);
width = 458;
},
{
layerId = "0ac4930a-26e9-4cfa-a42f-96cf237e936b";
paths = (
{
closed = 1;
nodes = (
"210 1026 LINE",
"210 1650 LINE",
"150 1650 LINE",
"150 1628 LINE",
"190 1628 LINE",
"190 1026 LINE"
);
}
);
width = 398;
}
);
rightKerningGroup = _A1;
unicode = 00B9;
},
{
color = 0;
glyphname = twosuperior;
lastChange = "2019-12-19 20:41:58 +0000";
layers = (
{
layerId = "9d3a33de-08d4-49ee-85e3-2813f64ed4e4";
paths = (
{
closed = 1;
nodes = (
"567 1026 LINE",
"567 1176 LINE",
"357 1176 LINE",
"445 1233 OFFCURVE",
"555 1336 OFFCURVE",
"555 1452 CURVE SMOOTH",
"555 1526 OFFCURVE",
"539 1682 OFFCURVE",
"297 1682 CURVE SMOOTH",
"159 1682 OFFCURVE",
"83 1580 OFFCURVE",
"53 1498 CURVE",
"53 1498 LINE",
"195 1426 LINE",
"215 1475 OFFCURVE",
"252 1538 OFFCURVE",
"297 1538 CURVE SMOOTH",
"345 1538 OFFCURVE",
"371 1516 OFFCURVE",
"371 1458 CURVE SMOOTH",
"371 1371 OFFCURVE",
"193 1217 OFFCURVE",
"53 1116 CURVE",
"53 1026 LINE"
);
}
);
width = 658;
},
{
layerId = "0ac4930a-26e9-4cfa-a42f-96cf237e936b";
paths = (
{
closed = 1;
nodes = (
"537 1026 LINE",
"537 1046 LINE",
"155 1046 LINE",
"279 1140 OFFCURVE",
"525 1302 OFFCURVE",
"525 1474 CURVE SMOOTH",
"525 1588 OFFCURVE",
"433 1680 OFFCURVE",
"319 1680 CURVE",
"205 1680 OFFCURVE",
"113 1588 OFFCURVE",
"113 1474 CURVE",
"113 1474 LINE",
"137 1474 LINE",
"137 1574 OFFCURVE",
"219 1656 OFFCURVE",
"319 1656 CURVE",
"419 1656 OFFCURVE",
"501 1574 OFFCURVE",
"501 1474 CURVE SMOOTH",
"501 1330 OFFCURVE",
"194 1180 OFFCURVE",
"194 1032 CURVE SMOOTH",
"194 1026 LINE"
);
}
);
width = 661;
}
);
rightKerningGroup = _A1;
unicode = 00B2;
},
{
color = 0;
glyphname = threesuperior;
lastChange = "2019-12-19 20:41:58 +0000";
layers = (
{
layerId = "9d3a33de-08d4-49ee-85e3-2813f64ed4e4";
paths = (
{
closed = 1;
nodes = (
"423 1026 OFFCURVE",
"529 1114 OFFCURVE",
"529 1240 CURVE SMOOTH",
"529 1306 OFFCURVE",
"501 1348 OFFCURVE",
"457 1382 CURVE",
"485 1410 OFFCURVE",
"501 1444 OFFCURVE",
"501 1492 CURVE SMOOTH",
"501 1602 OFFCURVE",
"411 1680 OFFCURVE",
"285 1680 CURVE SMOOTH",
"155 1680 OFFCURVE",
"90 1608 OFFCURVE",
"67 1546 CURVE",
"67 1546 LINE",
"199 1480 LINE",
"207 1511 OFFCURVE",
"233 1546 OFFCURVE",
"283 1546 CURVE SMOOTH",
"317 1546 OFFCURVE",
"349 1522 OFFCURVE",
"349 1490 CURVE SMOOTH",
"349 1452 OFFCURVE",
"317 1424 OFFCURVE",
"289 1424 CURVE SMOOTH",
"255 1424 LINE",
"255 1316 LINE",
"262 1318 OFFCURVE",
"271 1320 OFFCURVE",
"283 1320 CURVE SMOOTH",
"327 1320 OFFCURVE",
"363 1288 OFFCURVE",
"363 1240 CURVE SMOOTH",
"363 1192 OFFCURVE",
"327 1170 OFFCURVE",
"285 1170 CURVE SMOOTH",
"220 1170 OFFCURVE",
"197 1220 OFFCURVE",
"193 1256 CURVE",
"37 1178 LINE",
"65 1109 OFFCURVE",
"141 1026 OFFCURVE",
"285 1026 CURVE SMOOTH"
);
}
);
width = 611;
},
{
layerId = "0ac4930a-26e9-4cfa-a42f-96cf237e936b";
paths = (
{
closed = 1;
nodes = (
"420 1026 OFFCURVE",
"480 1100 OFFCURVE",
"480 1194 CURVE SMOOTH",
"480 1270 OFFCURVE",
"434 1340 OFFCURVE",
"360 1358 CURVE",
"426 1378 OFFCURVE",
"476 1444 OFFCURVE",
"476 1516 CURVE SMOOTH",
"476 1606 OFFCURVE",
"402 1680 OFFCURVE",
"312 1680 CURVE SMOOTH",
"222 1680 OFFCURVE",
"150 1612 OFFCURVE",
"150 1518 CURVE",
"150 1518 LINE",
"172 1518 LINE",
"172 1596 OFFCURVE",
"234 1658 OFFCURVE",
"312 1658 CURVE SMOOTH",
"390 1658 OFFCURVE",
"452 1596 OFFCURVE",
"452 1518 CURVE SMOOTH",
"452 1432 OFFCURVE",
"384 1368 OFFCURVE",
"300 1368 CURVE",
"282 1368 LINE",
"282 1346 LINE",
"286 1347 OFFCURVE",
"294 1348 OFFCURVE",
"302 1348 CURVE SMOOTH",
"384 1348 OFFCURVE",
"456 1280 OFFCURVE",
"456 1194 CURVE SMOOTH",
"456 1114 OFFCURVE",
"404 1050 OFFCURVE",
"302 1050 CURVE SMOOTH",
"198 1050 OFFCURVE",
"136 1112 OFFCURVE",
"136 1192 CURVE",
"114 1192 LINE",
"114 1100 OFFCURVE",
"184 1026 OFFCURVE",
"302 1026 CURVE SMOOTH"
);
}
);
width = 637;
}
);
rightKerningGroup = _A1;
unicode = 00B3;
},
{
color = 0;
glyphname = fraction;
lastChange = "2019-12-19 20:41:58 +0000";
layers = (
{
layerId = "9d3a33de-08d4-49ee-85e3-2813f64ed4e4";
paths = (
{
closed = 1;
nodes = (
"-78 0 LINE",
"882 1650 LINE",
"608 1650 LINE",
"-352 0 LINE"
);
}
);
width = 530;
},
{
layerId = "0ac4930a-26e9-4cfa-a42f-96cf237e936b";
paths = (
{
closed = 1;
nodes = (
"-176 0 LINE",
"784 1650 LINE",
"736 1650 LINE",
"-224 0 LINE"
);
}
);
width = 528;
}
);
rightKerningGroup = _A1;
unicode = 2044;
},
{
color = 0;
glyphname = onehalf;
lastChange = "2019-12-19 20:41:58 +0000";
layers = (
{
layerId = "9d3a33de-08d4-49ee-85e3-2813f64ed4e4";
paths = (
{
closed = 1;
nodes = (
"421 0 LINE",
"1381 1650 LINE",
"1107 1650 LINE",
"147 0 LINE"
);
},
{
closed = 1;
nodes = (
"467 690 LINE",
"467 1650 LINE",
"33 1650 LINE",
"33 1398 LINE",
"211 1398 LINE",
"211 690 LINE"
);
},
{
closed = 1;
nodes = (
"1775 0 LINE",
"1775 222 LINE",
"1467 222 LINE",
"1598 306 OFFCURVE",
"1759 457 OFFCURVE",
"1759 624 CURVE SMOOTH",
"1759 734 OFFCURVE",
"1735 964 OFFCURVE",
"1379 964 CURVE SMOOTH",
"1175 964 OFFCURVE",
"1065 813 OFFCURVE",
"1023 694 CURVE",
"1023 694 LINE",
"1231 590 LINE",
"1260 662 OFFCURVE",
"1315 754 OFFCURVE",
"1379 754 CURVE SMOOTH",
"1451 754 OFFCURVE",
"1487 718 OFFCURVE",
"1487 634 CURVE SMOOTH",
"1487 506 OFFCURVE",
"1225 281 OFFCURVE",
"1019 132 CURVE",
"1019 0 LINE"
);
}
);
width = 1825;
},
{
layerId = "0ac4930a-26e9-4cfa-a42f-96cf237e936b";
paths = (
{
closed = 1;
nodes = (
"229 0 LINE",
"1189 1650 LINE",
"1141 1650 LINE",
"181 0 LINE"
);
},
{
closed = 1;
nodes = (
"343 690 LINE",
"343 1650 LINE",
"249 1650 LINE",
"249 1618 LINE",
"309 1618 LINE",
"309 690 LINE"
);
},
{
closed = 1;
nodes = (
"1653 0 LINE",
"1653 28 LINE",
"1091 28 LINE",
"1467 320 OFFCURVE",
"1635 480 OFFCURVE",
"1635 660 CURVE SMOOTH",
"1635 828 OFFCURVE",
"1499 964 OFFCURVE",
"1331 964 CURVE",
"1163 964 OFFCURVE",
"1027 828 OFFCURVE",
"1027 660 CURVE",
"1027 660 LINE",
"1063 660 LINE",
"1063 808 OFFCURVE",
"1183 928 OFFCURVE",
"1331 928 CURVE",
"1479 928 OFFCURVE",
"1601 808 OFFCURVE",
"1601 660 CURVE SMOOTH",
"1601 448 OFFCURVE",
"1147 228 OFFCURVE",
"1147 10 CURVE SMOOTH",
"1147 0 LINE"
);
}
);
width = 1844;
}
);
rightKerningGroup = _A1;
unicode = 00BD;
},
{
color = 0;
glyphname = onequarter;
lastChange = "2019-12-19 20:41:58 +0000";
layers = (
{
layerId = "9d3a33de-08d4-49ee-85e3-2813f64ed4e4";
paths = (
{
closed = 1;
nodes = (
"421 0 LINE",
"1381 1650 LINE",
"1107 1650 LINE",
"147 0 LINE"
);
},
{
closed = 1;
nodes = (
"467 690 LINE",
"467 1650 LINE",
"33 1650 LINE",
"33 1398 LINE",
"211 1398 LINE",
"211 690 LINE"
);
},
{
closed = 1;
nodes = (
"1575 0 LINE",
"1575 170 LINE",
"1687 170 LINE",
"1687 394 LINE",
"1575 394 LINE",
"1575 960 LINE",
"1321 960 LINE",
"859 242 LINE",
"859 170 LINE",
"1335 170 LINE",
"1335 0 LINE"
);
},
{
closed = 1;
nodes = (
"1335 620 LINE",
"1335 394 LINE",
"1211 394 LINE"
);
}
);
width = 1731;
},
{
layerId = "0ac4930a-26e9-4cfa-a42f-96cf237e936b";
paths = (
{
closed = 1;
nodes = (
"230 4 LINE",
"1188 1650 LINE",
"1140 1650 LINE",
"182 4 LINE"
);
},
{
closed = 1;
nodes = (
"344 692 LINE",
"344 1650 LINE",
"250 1650 LINE",
"250 1618 LINE",
"310 1618 LINE",
"310 692 LINE"
);
},
{
closed = 1;
nodes = (
"1266 0 LINE",
"1266 364 LINE",
"1378 364 LINE",
"1378 392 LINE",
"1266 392 LINE",
"1266 958 LINE",
"1234 958 LINE",
"786 392 LINE",
"786 364 LINE",
"1234 364 LINE",
"1234 0 LINE"
);
},
{
closed = 1;
nodes = (
"1234 910 LINE",
"1234 392 LINE",
"824 392 LINE"
);
}
);
width = 1563;
}
);
rightKerningGroup = _A1;
unicode = 00BC;
},
{
color = 0;
glyphname = threequarters;
lastChange = "2019-12-19 20:41:58 +0000";
layers = (
{
layerId = "9d3a33de-08d4-49ee-85e3-2813f64ed4e4";
paths = (
{
closed = 1;
nodes = (
"601 0 LINE",
"1561 1650 LINE",
"1287 1650 LINE",
"327 0 LINE"
);
},
{
closed = 1;
nodes = (
"575 684 OFFCURVE",
"733 816 OFFCURVE",
"733 1002 CURVE SMOOTH",
"733 1100 OFFCURVE",
"691 1164 OFFCURVE",
"627 1212 CURVE",
"667 1254 OFFCURVE",
"691 1304 OFFCURVE",
"691 1376 CURVE SMOOTH",
"691 1538 OFFCURVE",
"557 1656 OFFCURVE",
"369 1656 CURVE SMOOTH",
"177 1656 OFFCURVE",
"81 1548 OFFCURVE",
"47 1456 CURVE",
"47 1456 LINE",
"241 1358 LINE",
"254 1405 OFFCURVE",
"293 1456 OFFCURVE",
"367 1456 CURVE SMOOTH",
"417 1456 OFFCURVE",
"465 1422 OFFCURVE",
"465 1374 CURVE SMOOTH",
"465 1316 OFFCURVE",
"419 1276 OFFCURVE",
"375 1276 CURVE SMOOTH",
"325 1276 LINE",
"325 1114 LINE",
"335 1118 OFFCURVE",
"350 1122 OFFCURVE",
"367 1122 CURVE SMOOTH",
"433 1122 OFFCURVE",
"485 1074 OFFCURVE",
"485 1002 CURVE SMOOTH",
"485 932 OFFCURVE",
"433 898 OFFCURVE",
"369 898 CURVE SMOOTH",
"275 898 OFFCURVE",
"240 970 OFFCURVE",
"233 1026 CURVE",
"3 910 LINE",
"44 808 OFFCURVE",
"155 684 OFFCURVE",
"369 684 CURVE SMOOTH"
);
},
{
closed = 1;
nodes = (
"1755 0 LINE",
"1755 170 LINE",
"1867 170 LINE",
"1867 394 LINE",
"1755 394 LINE",
"1755 960 LINE",
"1501 960 LINE",
"1039 242 LINE",
"1039 170 LINE",
"1515 170 LINE",
"1515 0 LINE"
);
},
{
closed = 1;
nodes = (
"1515 620 LINE",
"1515 394 LINE",
"1391 394 LINE"
);
}
);
width = 1911;
},
{
layerId = "0ac4930a-26e9-4cfa-a42f-96cf237e936b";
paths = (
{
closed = 1;
nodes = (
"611 4 LINE",
"1567 1650 LINE",
"1519 1650 LINE",
"563 4 LINE"
);
},
{
closed = 1;
nodes = (
"641 686 OFFCURVE",
"729 798 OFFCURVE",
"729 934 CURVE",
"729 1048 OFFCURVE",
"659 1152 OFFCURVE",
"549 1178 CURVE",
"649 1208 OFFCURVE",
"723 1304 OFFCURVE",
"723 1414 CURVE SMOOTH",
"723 1548 OFFCURVE",
"615 1656 OFFCURVE",
"481 1656 CURVE SMOOTH",
"347 1656 OFFCURVE",
"239 1554 OFFCURVE",
"239 1416 CURVE",
"239 1416 LINE",
"271 1416 LINE",
"271 1530 OFFCURVE",
"365 1624 OFFCURVE",
"479 1624 CURVE SMOOTH",
"595 1624 OFFCURVE",
"689 1530 OFFCURVE",
"689 1416 CURVE SMOOTH",
"689 1290 OFFCURVE",
"587 1194 OFFCURVE",
"461 1194 CURVE",
"435 1194 LINE",
"435 1162 LINE",
"443 1163 OFFCURVE",
"454 1164 OFFCURVE",
"467 1164 CURVE SMOOTH",
"587 1164 OFFCURVE",
"693 1062 OFFCURVE",
"693 934 CURVE SMOOTH",
"693 816 OFFCURVE",
"617 720 OFFCURVE",
"463 720 CURVE SMOOTH",
"311 720 OFFCURVE",
"219 816 OFFCURVE",
"219 934 CURVE",
"185 934 LINE",
"185 796 OFFCURVE",
"289 686 OFFCURVE",
"465 686 CURVE SMOOTH"
);
},
{
closed = 1;
nodes = (
"1647 0 LINE",
"1647 364 LINE",
"1759 364 LINE",
"1759 392 LINE",
"1647 392 LINE",
"1647 956 LINE",
"1615 956 LINE",
"1167 392 LINE",
"1167 364 LINE",
"1615 364 LINE",
"1615 0 LINE"
);
},
{
closed = 1;
nodes = (
"1615 910 LINE",
"1615 392 LINE",
"1205 392 LINE"
);
}
);
width = 1944;
}
);
rightKerningGroup = _A1;
unicode = 00BE;
},
{
color = 1;
glyphname = period;
lastChange = "2019-12-18 16:57:23 +0000";
layers = (
{
layerId = "9d3a33de-08d4-49ee-85e3-2813f64ed4e4";
paths = (
{
closed = 1;
nodes = (
"572 -32 OFFCURVE",
"690 86 OFFCURVE",
"690 234 CURVE SMOOTH",
"690 382 OFFCURVE",
"498 500 OFFCURVE",
"387 500 CURVE SMOOTH",
"387 500 LINE SMOOTH",
"285 444 OFFCURVE",
"158 344 OFFCURVE",
"158 234 CURVE SMOOTH",
"158 86 OFFCURVE",
"276 -32 OFFCURVE",
"424 -32 CURVE SMOOTH"
);
}
);
width = 851;
},
{
layerId = "0ac4930a-26e9-4cfa-a42f-96cf237e936b";
paths = (
{
closed = 1;
nodes = (
"393 -32 OFFCURVE",
"415 -10 OFFCURVE",
"415 16 CURVE SMOOTH",
"415 34 OFFCURVE",
"397 53 OFFCURVE",
"380 64 CURVE SMOOTH",
"380 64 LINE",
"341 64 OFFCURVE",
"319 42 OFFCURVE",
"319 16 CURVE SMOOTH",
"319 -10 OFFCURVE",
"341 -32 OFFCURVE",
"367 -32 CURVE SMOOTH"
);
}
);
width = 734;
}
);
leftKerningGroup = _comma;
rightKerningGroup = _A1;
unicode = 002E;
},
{
color = 1;
glyphname = comma;
lastChange = "2019-12-19 19:42:20 +0000";
layers = (
{
background = {
paths = (
{
closed = 1;
nodes = (
"465 -258 OFFCURVE",
"665 -36 OFFCURVE",
"665 234 CURVE SMOOTH",
"665 382 OFFCURVE",
"473 500 OFFCURVE",
"363 500 CURVE SMOOTH",
"363 500 LINE SMOOTH",
"259 443 OFFCURVE",
"135 342 OFFCURVE",
"135 234 CURVE SMOOTH",
"135 112 OFFCURVE",
"219 20 OFFCURVE",
"331 -8 CURVE",
"293 -194 OFFCURVE",
"151 -322 OFFCURVE",
"157 -316 CURVE",
"277 -414 LINE"
);
}
);
};
layerId = "9d3a33de-08d4-49ee-85e3-2813f64ed4e4";
paths = (
{
closed = 1;
nodes = (
"524 -211 OFFCURVE",
"665 19 OFFCURVE",
"665 222 CURVE SMOOTH",
"665 403 OFFCURVE",
"554 500 OFFCURVE",
"403 500 CURVE SMOOTH",
"243 500 OFFCURVE",
"135 392 OFFCURVE",
"135 240 CURVE SMOOTH",
"135 115 OFFCURVE",
"209 25 OFFCURVE",
"331 -8 CURVE",
"312 -101 OFFCURVE",
"221 -263 OFFCURVE",
"157 -316 CURVE",
"277 -414 LINE"
);
}
);
width = 777;
},
{
background = {
paths = (
{
closed = 1;
nodes = (
"369 -148 OFFCURVE",
"399 -80 OFFCURVE",
"399 16 CURVE SMOOTH",
"399 34 OFFCURVE",
"381 53 OFFCURVE",
"364 64 CURVE SMOOTH",
"364 64 LINE",
"325 64 OFFCURVE",
"303 42 OFFCURVE",
"303 16 CURVE SMOOTH",
"303 -10 OFFCURVE",
"325 -32 OFFCURVE",
"351 -32 CURVE",
"351 -96 OFFCURVE",
"339 -140 OFFCURVE",
"315 -176 CURVE",
"325 -186 LINE"
);
}
);
};
layerId = "0ac4930a-26e9-4cfa-a42f-96cf237e936b";
paths = (
{
closed = 1;
nodes = (
"363 -158 OFFCURVE",
"399 -71 OFFCURVE",
"399 -5 CURVE SMOOTH",
"399 42 OFFCURVE",
"384 64 OFFCURVE",
"352 64 CURVE SMOOTH",
"323 64 OFFCURVE",
"303 44 OFFCURVE",
"303 16 CURVE SMOOTH",
"303 -10 OFFCURVE",
"325 -32 OFFCURVE",
"351 -32 CURVE",
"351 -94 OFFCURVE",
"340 -139 OFFCURVE",
"315 -176 CURVE",
"325 -186 LINE"
);
}
);
width = 709;
}
);
leftKerningGroup = _comma;
rightKerningGroup = _A1;
unicode = 002C;
},
{
color = 1;
glyphname = colon;
lastChange = "2019-12-18 16:57:23 +0000";
layers = (
{
layerId = "9d3a33de-08d4-49ee-85e3-2813f64ed4e4";
paths = (
{
closed = 1;
nodes = (
"552 636 OFFCURVE",
"670 754 OFFCURVE",
"670 902 CURVE SMOOTH",
"670 1050 OFFCURVE",
"478 1168 OFFCURVE",
"367 1168 CURVE SMOOTH",
"367 1168 LINE SMOOTH",
"265 1112 OFFCURVE",
"138 1012 OFFCURVE",
"138 902 CURVE SMOOTH",
"138 754 OFFCURVE",
"256 636 OFFCURVE",
"404 636 CURVE SMOOTH"
);
},
{
closed = 1;
nodes = (
"552 -32 OFFCURVE",
"670 86 OFFCURVE",
"670 234 CURVE SMOOTH",
"670 382 OFFCURVE",
"478 500 OFFCURVE",
"367 500 CURVE SMOOTH",
"367 500 LINE SMOOTH",
"265 444 OFFCURVE",
"138 344 OFFCURVE",
"138 234 CURVE SMOOTH",
"138 86 OFFCURVE",
"256 -32 OFFCURVE",
"404 -32 CURVE SMOOTH"
);
}
);
width = 818;
},
{
layerId = "0ac4930a-26e9-4cfa-a42f-96cf237e936b";
paths = (
{
closed = 1;
nodes = (
"377 1012 OFFCURVE",
"399 1034 OFFCURVE",
"399 1060 CURVE SMOOTH",
"399 1078 OFFCURVE",
"381 1097 OFFCURVE",
"364 1108 CURVE SMOOTH",
"364 1108 LINE",
"325 1108 OFFCURVE",
"303 1086 OFFCURVE",
"303 1060 CURVE SMOOTH",
"303 1034 OFFCURVE",
"325 1012 OFFCURVE",
"351 1012 CURVE SMOOTH"
);
},
{
closed = 1;
nodes = (
"377 -32 OFFCURVE",
"399 -10 OFFCURVE",
"399 16 CURVE SMOOTH",
"399 34 OFFCURVE",
"381 53 OFFCURVE",
"364 64 CURVE SMOOTH",
"364 64 LINE",
"325 64 OFFCURVE",
"303 42 OFFCURVE",
"303 16 CURVE SMOOTH",
"303 -10 OFFCURVE",
"325 -32 OFFCURVE",
"351 -32 CURVE SMOOTH"
);
}
);
width = 703;
}
);
rightKerningGroup = _A1;
unicode = 003A;
},
{
color = 1;
glyphname = semicolon;
lastChange = "2019-12-18 16:57:23 +0000";
layers = (
{
layerId = "9d3a33de-08d4-49ee-85e3-2813f64ed4e4";
paths = (
{
closed = 1;
nodes = (
"465 -258 OFFCURVE",
"665 -36 OFFCURVE",
"665 234 CURVE SMOOTH",
"665 382 OFFCURVE",
"473 500 OFFCURVE",
"363 500 CURVE SMOOTH",
"363 500 LINE SMOOTH",
"259 443 OFFCURVE",
"135 342 OFFCURVE",
"135 234 CURVE SMOOTH",
"135 112 OFFCURVE",
"219 20 OFFCURVE",
"331 -8 CURVE",
"293 -194 OFFCURVE",
"151 -322 OFFCURVE",
"157 -316 CURVE",
"277 -414 LINE"
);
},
{
closed = 1;
nodes = (
"549 636 OFFCURVE",
"667 754 OFFCURVE",
"667 902 CURVE SMOOTH",
"667 1050 OFFCURVE",
"475 1168 OFFCURVE",
"364 1168 CURVE SMOOTH",
"364 1168 LINE SMOOTH",
"262 1112 OFFCURVE",
"135 1012 OFFCURVE",
"135 902 CURVE SMOOTH",
"135 754 OFFCURVE",
"253 636 OFFCURVE",
"401 636 CURVE SMOOTH"
);
}
);
width = 789;
},
{
layerId = "0ac4930a-26e9-4cfa-a42f-96cf237e936b";
paths = (
{
closed = 1;
nodes = (
"368 -148 OFFCURVE",
"398 -80 OFFCURVE",
"398 16 CURVE SMOOTH",
"398 34 OFFCURVE",
"380 53 OFFCURVE",
"363 64 CURVE SMOOTH",
"363 64 LINE",
"324 64 OFFCURVE",
"302 42 OFFCURVE",
"302 16 CURVE SMOOTH",
"302 -10 OFFCURVE",
"324 -32 OFFCURVE",
"350 -32 CURVE",
"350 -96 OFFCURVE",
"338 -140 OFFCURVE",
"314 -176 CURVE",
"324 -186 LINE"
);
},
{
closed = 1;
nodes = (
"376 1012 OFFCURVE",
"398 1034 OFFCURVE",
"398 1060 CURVE SMOOTH",
"398 1086 OFFCURVE",
"363 1108 OFFCURVE",
"344 1108 CURVE SMOOTH",
"344 1108 LINE SMOOTH",
"324 1097 OFFCURVE",
"302 1078 OFFCURVE",
"302 1060 CURVE SMOOTH",
"302 1034 OFFCURVE",
"324 1012 OFFCURVE",
"350 1012 CURVE SMOOTH"
);
}
);
width = 702;
}
);
rightKerningGroup = _A1;
unicode = 003B;
},
{
color = 1;
glyphname = ellipsis;
lastChange = "2019-12-18 16:57:23 +0000";
layers = (
{
layerId = "9d3a33de-08d4-49ee-85e3-2813f64ed4e4";
paths = (
{
closed = 1;
nodes = (
"2164 -32 OFFCURVE",
"2282 86 OFFCURVE",
"2282 234 CURVE SMOOTH",
"2282 382 OFFCURVE",
"2090 500 OFFCURVE",
"1979 500 CURVE SMOOTH",
"1979 500 LINE SMOOTH",
"1877 444 OFFCURVE",
"1750 344 OFFCURVE",
"1750 234 CURVE SMOOTH",
"1750 86 OFFCURVE",
"1868 -32 OFFCURVE",
"2016 -32 CURVE SMOOTH"
);
},
{
closed = 1;
nodes = (
"572 -32 OFFCURVE",
"690 86 OFFCURVE",
"690 234 CURVE SMOOTH",
"690 382 OFFCURVE",
"498 500 OFFCURVE",
"387 500 CURVE SMOOTH",
"387 500 LINE SMOOTH",
"285 444 OFFCURVE",
"158 344 OFFCURVE",
"158 234 CURVE SMOOTH",
"158 86 OFFCURVE",
"276 -32 OFFCURVE",
"424 -32 CURVE SMOOTH"
);
},
{
closed = 1;
nodes = (
"1368 -32 OFFCURVE",
"1486 86 OFFCURVE",
"1486 234 CURVE SMOOTH",
"1486 382 OFFCURVE",
"1294 500 OFFCURVE",
"1183 500 CURVE SMOOTH",
"1183 500 LINE SMOOTH",
"1081 444 OFFCURVE",
"954 344 OFFCURVE",
"954 234 CURVE SMOOTH",
"954 86 OFFCURVE",
"1072 -32 OFFCURVE",
"1220 -32 CURVE SMOOTH"
);
}
);
width = 2443;
},
{
layerId = "0ac4930a-26e9-4cfa-a42f-96cf237e936b";
paths = (
{
closed = 1;
nodes = (
"807 -32 OFFCURVE",
"829 -10 OFFCURVE",
"829 16 CURVE SMOOTH",
"829 34 OFFCURVE",
"811 53 OFFCURVE",
"794 64 CURVE SMOOTH",
"794 64 LINE",
"755 64 OFFCURVE",
"733 42 OFFCURVE",
"733 16 CURVE SMOOTH",
"733 -10 OFFCURVE",
"755 -32 OFFCURVE",
"781 -32 CURVE SMOOTH"
);
},
{
closed = 1;
nodes = (
"393 -32 OFFCURVE",
"415 -10 OFFCURVE",
"415 16 CURVE",
"415 34 OFFCURVE",
"397 53 OFFCURVE",
"380 64 CURVE SMOOTH",
"380 64 LINE",
"341 64 OFFCURVE",
"319 42 OFFCURVE",
"319 16 CURVE SMOOTH",
"319 -10 OFFCURVE",
"341 -32 OFFCURVE",
"367 -32 CURVE SMOOTH"
);
},
{
closed = 1;
nodes = (
"601 -32 OFFCURVE",
"621 -10 OFFCURVE",
"621 16 CURVE SMOOTH",
"621 35 OFFCURVE",
"602 54 OFFCURVE",
"587 64 CURVE SMOOTH",
"587 64 LINE",
"547 64 OFFCURVE",
"527 42 OFFCURVE",
"527 16 CURVE SMOOTH",
"527 -10 OFFCURVE",
"547 -32 OFFCURVE",
"573 -32 CURVE SMOOTH"
);
}
);
width = 1148;
}
);
leftKerningGroup = _comma;
rightKerningGroup = _A1;
unicode = 2026;
},
{
color = 1;
glyphname = exclam;
lastChange = "2019-12-18 16:57:23 +0000";
layers = (
{
layerId = "9d3a33de-08d4-49ee-85e3-2813f64ed4e4";
paths = (
{
closed = 1;
nodes = (
"553 580 LINE",
"611 1720 LINE",
"195 1720 LINE",
"253 580 LINE"
);
},
{
closed = 1;
nodes = (
"549 -32 OFFCURVE",
"667 86 OFFCURVE",
"667 234 CURVE SMOOTH",
"667 382 OFFCURVE",
"475 500 OFFCURVE",
"364 500 CURVE SMOOTH",
"364 500 LINE SMOOTH",
"262 444 OFFCURVE",
"135 344 OFFCURVE",
"135 234 CURVE SMOOTH",
"135 86 OFFCURVE",
"253 -32 OFFCURVE",
"401 -32 CURVE SMOOTH"
);
}
);
width = 806;
},
{
layerId = "0ac4930a-26e9-4cfa-a42f-96cf237e936b";
paths = (
{
closed = 1;
nodes = (
"381 336 LINE",
"381 1720 LINE",
"329 1720 LINE",
"329 336 LINE"
);
},
{
closed = 1;
nodes = (
"381 -32 OFFCURVE",
"403 -10 OFFCURVE",
"403 16 CURVE SMOOTH",
"403 42 OFFCURVE",
"381 64 OFFCURVE",
"355 64 CURVE",
"355 64 LINE",
"329 64 OFFCURVE",
"307 42 OFFCURVE",
"307 16 CURVE SMOOTH",
"307 -10 OFFCURVE",
"329 -32 OFFCURVE",
"355 -32 CURVE SMOOTH"
);
}
);
width = 710;
}
);
rightKerningGroup = _A1;
unicode = 0021;
},
{
color = 1;
glyphname = exclamdown;
lastChange = "2019-12-18 16:57:23 +0000";
layers = (
{
layerId = "9d3a33de-08d4-49ee-85e3-2813f64ed4e4";
paths = (
{
closed = 1;
nodes = (
"551 698 OFFCURVE",
"669 816 OFFCURVE",
"669 964 CURVE SMOOTH",
"669 1112 OFFCURVE",
"551 1230 OFFCURVE",
"403 1230 CURVE SMOOTH",
"255 1230 OFFCURVE",
"137 1112 OFFCURVE",
"137 964 CURVE SMOOTH",
"137 853 OFFCURVE",
"246 752 OFFCURVE",
"329 698 CURVE"
);
},
{
closed = 1;
nodes = (
"613 -522 LINE",
"555 618 LINE",
"255 618 LINE",
"197 -522 LINE"
);
}
);
width = 811;
},
{
layerId = "0ac4930a-26e9-4cfa-a42f-96cf237e936b";
paths = (
{
closed = 1;
nodes = (
"381 1134 OFFCURVE",
"403 1156 OFFCURVE",
"403 1182 CURVE SMOOTH",
"403 1208 OFFCURVE",
"381 1230 OFFCURVE",
"355 1230 CURVE SMOOTH",
"329 1230 OFFCURVE",
"307 1208 OFFCURVE",
"307 1182 CURVE SMOOTH",
"307 1156 OFFCURVE",
"329 1134 OFFCURVE",
"355 1134 CURVE SMOOTH"
);
},
{
closed = 1;
nodes = (
"381 -520 LINE",
"381 862 LINE",
"329 862 LINE",
"329 -520 LINE"
);
}
);
width = 710;
}
);
rightKerningGroup = _A1;
unicode = 00A1;
},
{
color = 1;
glyphname = question;
lastChange = "2019-12-18 16:57:23 +0000";
layers = (
{
layerId = "9d3a33de-08d4-49ee-85e3-2813f64ed4e4";
paths = (
{
closed = 1;
nodes = (
"736 574 LINE",
"736 702 LINE",
"1010 784 OFFCURVE",
"1106 1032 OFFCURVE",
"1106 1178 CURVE SMOOTH",
"1106 1360 OFFCURVE",
"966 1680 OFFCURVE",
"540 1680 CURVE SMOOTH",
"180 1680 OFFCURVE",
"28 1446 OFFCURVE",
"-16 1280 CURVE",
"-16 1280 LINE",
"324 1204 LINE",
"352 1240 OFFCURVE",
"382 1314 OFFCURVE",
"540 1314 CURVE SMOOTH",
"698 1314 OFFCURVE",
"716 1198 OFFCURVE",
"716 1178 CURVE SMOOTH",
"716 1158 OFFCURVE",
"696 1048 OFFCURVE",
"546 1048 CURVE SMOOTH",
"452 1048 OFFCURVE",
"406 1052 OFFCURVE",
"350 1066 CURVE",
"350 574 LINE"
);
},
{
closed = 1;
nodes = (
"690 -32 OFFCURVE",
"808 86 OFFCURVE",
"808 232 CURVE SMOOTH",
"808 380 OFFCURVE",
"616 498 OFFCURVE",
"506 498 CURVE SMOOTH",
"506 498 LINE SMOOTH",
"402 441 OFFCURVE",
"278 340 OFFCURVE",
"278 232 CURVE SMOOTH",
"278 86 OFFCURVE",
"396 -32 OFFCURVE",
"542 -32 CURVE SMOOTH"
);
}
);
width = 1138;
},
{
layerId = "0ac4930a-26e9-4cfa-a42f-96cf237e936b";
paths = (
{
closed = 1;
nodes = (
"666 370 LINE",
"666 690 LINE",
"1000 690 OFFCURVE",
"1178 928 OFFCURVE",
"1178 1192 CURVE SMOOTH",
"1178 1458 OFFCURVE",
"978 1680 OFFCURVE",
"690 1680 CURVE SMOOTH",
"396 1680 OFFCURVE",
"206 1484 OFFCURVE",
"206 1184 CURVE",
"206 1184 LINE",
"262 1184 LINE",
"262 1452 OFFCURVE",
"430 1624 OFFCURVE",
"690 1624 CURVE SMOOTH",
"946 1624 OFFCURVE",
"1122 1458 OFFCURVE",
"1122 1192 CURVE SMOOTH",
"1122 930 OFFCURVE",
"956 740 OFFCURVE",
"664 740 CURVE",
"646 740 OFFCURVE",
"628 742 OFFCURVE",
"616 744 CURVE",
"616 370 LINE"
);
},
{
closed = 1;
nodes = (
"666 -32 OFFCURVE",
"688 -10 OFFCURVE",
"688 16 CURVE SMOOTH",
"688 34 OFFCURVE",
"670 53 OFFCURVE",
"653 64 CURVE SMOOTH",
"653 64 LINE",
"614 64 OFFCURVE",
"592 42 OFFCURVE",
"592 16 CURVE SMOOTH",
"592 -10 OFFCURVE",
"614 -32 OFFCURVE",
"640 -32 CURVE SMOOTH"
);
}
);
width = 1399;
}
);
rightKerningGroup = _A1;
unicode = 003F;
},
{
color = 1;
glyphname = questiondown;
lastChange = "2019-12-18 16:57:23 +0000";
layers = (
{
layerId = "9d3a33de-08d4-49ee-85e3-2813f64ed4e4";
paths = (
{
closed = 1;
nodes = (
"735 689 OFFCURVE",
"859 790 OFFCURVE",
"859 898 CURVE SMOOTH",
"859 1044 OFFCURVE",
"741 1162 OFFCURVE",
"595 1162 CURVE SMOOTH",
"447 1162 OFFCURVE",
"329 1044 OFFCURVE",
"329 898 CURVE SMOOTH",
"329 750 OFFCURVE",
"521 632 OFFCURVE",
"631 632 CURVE"
);
},
{
closed = 1;
nodes = (
"957 -550 OFFCURVE",
"1109 -316 OFFCURVE",
"1153 -150 CURVE",
"813 -74 LINE",
"785 -110 OFFCURVE",
"755 -184 OFFCURVE",
"597 -184 CURVE SMOOTH",
"439 -184 OFFCURVE",
"421 -68 OFFCURVE",
"421 -48 CURVE SMOOTH",
"421 -28 OFFCURVE",
"441 82 OFFCURVE",
"591 82 CURVE SMOOTH",
"685 82 OFFCURVE",
"731 78 OFFCURVE",
"787 64 CURVE",
"787 556 LINE",
"401 556 LINE",
"401 428 LINE",
"127 346 OFFCURVE",
"31 98 OFFCURVE",
"31 -48 CURVE SMOOTH",
"31 -230 OFFCURVE",
"171 -550 OFFCURVE",
"597 -550 CURVE SMOOTH"
);
}
);
width = 1137;
},
{
layerId = "0ac4930a-26e9-4cfa-a42f-96cf237e936b";
paths = (
{
closed = 1;
nodes = (
"785 1066 OFFCURVE",
"807 1088 OFFCURVE",
"807 1114 CURVE SMOOTH",
"807 1140 OFFCURVE",
"785 1162 OFFCURVE",
"759 1162 CURVE SMOOTH",
"733 1162 OFFCURVE",
"711 1140 OFFCURVE",
"711 1114 CURVE SMOOTH",
"711 1088 OFFCURVE",
"733 1066 OFFCURVE",
"759 1066 CURVE SMOOTH"
);
},
{
closed = 1;
nodes = (
"1003 -550 OFFCURVE",
"1193 -354 OFFCURVE",
"1193 -54 CURVE",
"1137 -54 LINE",
"1137 -322 OFFCURVE",
"969 -494 OFFCURVE",
"709 -494 CURVE SMOOTH",
"453 -494 OFFCURVE",
"277 -328 OFFCURVE",
"277 -62 CURVE SMOOTH",
"277 200 OFFCURVE",
"443 390 OFFCURVE",
"735 390 CURVE SMOOTH",
"753 390 OFFCURVE",
"771 388 OFFCURVE",
"783 386 CURVE",
"783 760 LINE",
"733 760 LINE",
"733 440 LINE",
"399 440 OFFCURVE",
"221 202 OFFCURVE",
"221 -62 CURVE SMOOTH",
"221 -328 OFFCURVE",
"421 -550 OFFCURVE",
"709 -550 CURVE SMOOTH"
);
}
);
width = 1398;
}
);
rightKerningGroup = _A1;
unicode = 00BF;
},
{
color = 1;
glyphname = periodcentered;
lastChange = "2019-12-18 16:57:23 +0000";
layers = (
{
layerId = "9d3a33de-08d4-49ee-85e3-2813f64ed4e4";
paths = (
{
closed = 1;
nodes = (
"572 274 OFFCURVE",
"690 392 OFFCURVE",
"690 540 CURVE SMOOTH",
"690 688 OFFCURVE",
"498 806 OFFCURVE",
"387 806 CURVE SMOOTH",
"387 806 LINE SMOOTH",
"285 750 OFFCURVE",
"158 650 OFFCURVE",
"158 540 CURVE SMOOTH",
"158 392 OFFCURVE",
"276 274 OFFCURVE",
"424 274 CURVE SMOOTH"
);
}
);
width = 851;
},
{
layerId = "0ac4930a-26e9-4cfa-a42f-96cf237e936b";
paths = (
{
closed = 1;
nodes = (
"393 490 OFFCURVE",
"415 512 OFFCURVE",
"415 538 CURVE SMOOTH",
"415 556 OFFCURVE",
"397 575 OFFCURVE",
"380 586 CURVE SMOOTH",
"380 586 LINE",
"341 586 OFFCURVE",
"319 564 OFFCURVE",
"319 538 CURVE SMOOTH",
"319 512 OFFCURVE",
"341 490 OFFCURVE",
"367 490 CURVE SMOOTH"
);
}
);
width = 734;
}
);
rightKerningGroup = _A1;
unicode = 00B7;
},
{
color = 1;
glyphname = bullet;
lastChange = "2019-12-18 16:57:23 +0000";
layers = (
{
layerId = "9d3a33de-08d4-49ee-85e3-2813f64ed4e4";
paths = (
{
closed = 1;
nodes = (
"828 256 OFFCURVE",
"1030 458 OFFCURVE",
"1030 714 CURVE SMOOTH",
"1030 970 OFFCURVE",
"700 1172 OFFCURVE",
"508 1172 CURVE SMOOTH",
"508 1172 LINE SMOOTH",
"330 1075 OFFCURVE",
"114 902 OFFCURVE",
"114 714 CURVE SMOOTH",
"114 458 OFFCURVE",
"316 256 OFFCURVE",
"572 256 CURVE SMOOTH"
);
}
);
width = 1148;
},
{
layerId = "0ac4930a-26e9-4cfa-a42f-96cf237e936b";
paths = (
{
closed = 1;
nodes = (
"409 656 OFFCURVE",
"435 682 OFFCURVE",
"435 714 CURVE SMOOTH",
"435 738 OFFCURVE",
"411 760 OFFCURVE",
"393 772 CURVE SMOOTH",
"393 772 LINE",
"345 772 OFFCURVE",
"317 746 OFFCURVE",
"317 714 CURVE SMOOTH",
"317 682 OFFCURVE",
"345 656 OFFCURVE",
"377 656 CURVE SMOOTH"
);
}
);
width = 753;
}
);
rightKerningGroup = _A1;
unicode = 2022;
},
{
color = 1;
glyphname = asterisk;
lastChange = "2019-12-18 16:57:23 +0000";
layers = (
{
layerId = "9d3a33de-08d4-49ee-85e3-2813f64ed4e4";
paths = (
{
closed = 1;
nodes = (
"519 1146 LINE",
"669 952 LINE",
"825 1058 LINE",
"685 1270 LINE",
"927 1358 LINE",
"867 1546 LINE",
"623 1470 LINE",
"623 1720 LINE",
"415 1720 LINE",
"415 1470 LINE",
"171 1546 LINE",
"111 1358 LINE",
"353 1270 LINE",
"213 1058 LINE",
"369 952 LINE"
);
}
);
width = 1042;
},
{
layerId = "0ac4930a-26e9-4cfa-a42f-96cf237e936b";
paths = (
{
closed = 1;
nodes = (
"438 1522 LINE",
"532 1394 LINE",
"552 1410 LINE",
"460 1538 LINE",
"610 1586 LINE",
"602 1610 LINE",
"452 1562 LINE",
"452 1720 LINE",
"426 1720 LINE",
"426 1562 LINE",
"276 1610 LINE",
"268 1586 LINE",
"418 1538 LINE",
"326 1410 LINE",
"346 1394 LINE"
);
}
);
width = 878;
}
);
rightKerningGroup = _A1;
unicode = 002A;
},
{
color = 1;
glyphname = numbersign;
lastChange = "2019-12-18 16:57:23 +0000";
layers = (
{
layerId = "9d3a33de-08d4-49ee-85e3-2813f64ed4e4";
paths = (
{
closed = 1;
nodes = (
"558 0 LINE",
"608 442 LINE",
"934 442 LINE",
"884 0 LINE",
"1166 0 LINE",
"1216 442 LINE",
"1524 442 LINE",
"1524 726 LINE",
"1252 726 LINE",
"1282 982 LINE",
"1524 982 LINE",
"1524 1266 LINE",
"1314 1266 LINE",
"1368 1706 LINE",
"1084 1706 LINE",
"1032 1266 LINE",
"706 1266 LINE",
"760 1706 LINE",
"476 1706 LINE",
"424 1266 LINE",
"122 1266 LINE",
"122 982 LINE",
"390 982 LINE",
"360 726 LINE",
"122 726 LINE",
"122 442 LINE",
"326 442 LINE",
"276 0 LINE"
);
},
{
closed = 1;
nodes = (
"674 982 LINE",
"1000 982 LINE",
"968 726 LINE",
"644 726 LINE"
);
}
);
width = 1645;
},
{
layerId = "0ac4930a-26e9-4cfa-a42f-96cf237e936b";
paths = (
{
closed = 1;
nodes = (
"378 0 LINE",
"436 414 LINE",
"862 414 LINE",
"804 0 LINE",
"842 0 LINE",
"900 414 LINE",
"1154 414 LINE",
"1154 452 LINE",
"904 452 LINE",
"970 914 LINE",
"1154 914 LINE",
"1154 952 LINE",
"976 952 LINE",
"1034 1368 LINE",
"996 1368 LINE",
"938 952 LINE",
"512 952 LINE",
"570 1368 LINE",
"532 1368 LINE",
"474 952 LINE",
"220 952 LINE",
"220 914 LINE",
"470 914 LINE",
"404 452 LINE",
"220 452 LINE",
"220 414 LINE",
"398 414 LINE",
"340 0 LINE"
);
},
{
closed = 1;
nodes = (
"506 914 LINE",
"932 914 LINE",
"868 452 LINE",
"440 452 LINE"
);
}
);
width = 1374;
}
);
rightKerningGroup = _A1;
unicode = 0023;
},
{
color = 1;
glyphname = slash;
lastChange = "2019-12-18 16:57:23 +0000";
layers = (
{
layerId = "9d3a33de-08d4-49ee-85e3-2813f64ed4e4";
paths = (
{
closed = 1;
nodes = (
"265 -240 LINE",
"1089 1720 LINE",
"731 1720 LINE",
"-93 -240 LINE"
);
}
);
width = 996;
},
{
layerId = "0ac4930a-26e9-4cfa-a42f-96cf237e936b";
paths = (
{
closed = 1;
nodes = (
"136 -240 LINE",
"960 1720 LINE",
"920 1720 LINE",
"96 -240 LINE"
);
}
);
width = 1056;
}
);
rightKerningGroup = _A1;
unicode = 002F;
},
{
color = 1;
glyphname = backslash;
lastChange = "2019-12-18 16:57:23 +0000";
layers = (
{
layerId = "9d3a33de-08d4-49ee-85e3-2813f64ed4e4";
paths = (
{
closed = 1;
nodes = (
"1089 0 LINE",
"265 1720 LINE",
"-93 1720 LINE",
"731 0 LINE"
);
}
);
width = 996;
},
{
layerId = "0ac4930a-26e9-4cfa-a42f-96cf237e936b";
paths = (
{
closed = 1;
nodes = (
"960 0 LINE",
"136 1720 LINE",
"96 1720 LINE",
"920 0 LINE"
);
}
);
width = 1056;
}
);
rightKerningGroup = _A1;
unicode = 005C;
},
{
color = 1;
glyphname = parenleft;
lastChange = "2019-12-18 16:57:23 +0000";
layers = (
{
associatedMasterId = "9d3a33de-08d4-49ee-85e3-2813f64ed4e4";
layerId = "cf2a3b8c-bb53-4d9e-827a-d6f64e11d495";
name = public.background;
width = 0;
},
{
layerId = "9d3a33de-08d4-49ee-85e3-2813f64ed4e4";
paths = (
{
closed = 1;
nodes = (
"693 -406 LINE",
"586 -247 OFFCURVE",
"459 95 OFFCURVE",
"459 614 CURVE SMOOTH",
"459 614 LINE SMOOTH",
"459 1135 OFFCURVE",
"587 1478 OFFCURVE",
"693 1636 CURVE",
"425 1750 LINE",
"271 1541 OFFCURVE",
"81 1135 OFFCURVE",
"81 614 CURVE SMOOTH",
"81 96 OFFCURVE",
"269 -309 OFFCURVE",
"425 -520 CURVE"
);
}
);
width = 727;
},
{
layerId = "0ac4930a-26e9-4cfa-a42f-96cf237e936b";
paths = (
{
closed = 1;
nodes = (
"612 -504 LINE",
"454 -274 OFFCURVE",
"260 142 OFFCURVE",
"260 614 CURVE SMOOTH",
"260 614 LINE SMOOTH",
"260 1084 OFFCURVE",
"453 1502 OFFCURVE",
"612 1734 CURVE",
"574 1750 LINE",
"406 1540 OFFCURVE",
"196 1132 OFFCURVE",
"196 614 CURVE SMOOTH",
"196 96 OFFCURVE",
"406 -311 OFFCURVE",
"574 -520 CURVE"
);
}
);
width = 760;
}
);
rightKerningGroup = _A1;
unicode = 0028;
},
{
color = 1;
glyphname = parenright;
lastChange = "2019-12-18 16:57:23 +0000";
layers = (
{
associatedMasterId = "9d3a33de-08d4-49ee-85e3-2813f64ed4e4";
layerId = "cf2a3b8c-bb53-4d9e-827a-d6f64e11d495";
name = public.background;
width = 0;
},
{
layerId = "9d3a33de-08d4-49ee-85e3-2813f64ed4e4";
paths = (
{
closed = 1;
nodes = (
"513 -234 OFFCURVE",
"646 203 OFFCURVE",
"646 614 CURVE SMOOTH",
"646 1024 OFFCURVE",
"513 1464 OFFCURVE",
"302 1750 CURVE",
"34 1636 LINE",
"178 1422 OFFCURVE",
"268 1027 OFFCURVE",
"268 614 CURVE SMOOTH",
"268 201 OFFCURVE",
"178 -192 OFFCURVE",
"34 -406 CURVE",
"302 -520 LINE"
);
}
);
width = 726;
},
{
guideLines = (
{
position = "{138, -11}";
},
{
position = "{138, -41}";
}
);
layerId = "0ac4930a-26e9-4cfa-a42f-96cf237e936b";
paths = (
{
closed = 1;
nodes = (
"417 -232 OFFCURVE",
"564 208 OFFCURVE",
"564 614 CURVE SMOOTH",
"564 1020 OFFCURVE",
"418 1461 OFFCURVE",
"186 1750 CURVE",
"148 1734 LINE",
"364 1419 OFFCURVE",
"500 986 OFFCURVE",
"500 614 CURVE SMOOTH",
"500 242 OFFCURVE",
"364 -189 OFFCURVE",
"148 -504 CURVE",
"186 -520 LINE"
);
}
);
width = 760;
}
);
rightKerningGroup = _A1;
unicode = 0029;
},
{
color = 1;
glyphname = braceleft;
lastChange = "2019-12-18 16:57:23 +0000";
layers = (
{
layerId = "9d3a33de-08d4-49ee-85e3-2813f64ed4e4";
paths = (
{
closed = 1;
nodes = (
"741 -520 LINE",
"741 -224 LINE",
"651 -224 LINE SMOOTH",
"603 -224 OFFCURVE",
"553 -178 OFFCURVE",
"553 -122 CURVE SMOOTH",
"553 358 LINE SMOOTH",
"553 484 OFFCURVE",
"489 560 OFFCURVE",
"411 600 CURVE",
"489 640 OFFCURVE",
"553 712 OFFCURVE",
"553 842 CURVE SMOOTH",
"553 1322 LINE SMOOTH",
"553 1378 OFFCURVE",
"603 1424 OFFCURVE",
"651 1424 CURVE SMOOTH",
"741 1424 LINE",
"741 1720 LINE",
"515 1720 LINE SMOOTH",
"259 1720 OFFCURVE",
"197 1524 OFFCURVE",
"197 1358 CURVE SMOOTH",
"197 846 LINE SMOOTH",
"197 748 OFFCURVE",
"135 708 OFFCURVE",
"41 708 CURVE",
"41 708 LINE",
"41 492 LINE",
"135 492 OFFCURVE",
"197 452 OFFCURVE",
"197 354 CURVE SMOOTH",
"197 -158 LINE SMOOTH",
"197 -324 OFFCURVE",
"259 -520 OFFCURVE",
"515 -520 CURVE SMOOTH"
);
}
);
width = 798;
},
{
layerId = "0ac4930a-26e9-4cfa-a42f-96cf237e936b";
paths = (
{
closed = 1;
nodes = (
"620 -520 LINE",
"620 -464 LINE",
"590 -464 LINE SMOOTH",
"408 -464 OFFCURVE",
"328 -354 OFFCURVE",
"328 -158 CURVE SMOOTH",
"328 524 LINE SMOOTH",
"328 564 OFFCURVE",
"320 588 OFFCURVE",
"300 600 CURVE",
"320 612 OFFCURVE",
"328 636 OFFCURVE",
"328 676 CURVE",
"328 1358 LINE SMOOTH",
"328 1554 OFFCURVE",
"408 1664 OFFCURVE",
"590 1664 CURVE SMOOTH",
"620 1664 LINE",
"620 1720 LINE",
"590 1720 LINE SMOOTH",
"334 1720 OFFCURVE",
"272 1524 OFFCURVE",
"272 1358 CURVE SMOOTH",
"272 710 LINE SMOOTH",
"272 648 OFFCURVE",
"252 624 OFFCURVE",
"206 624 CURVE",
"206 624 LINE",
"206 576 LINE",
"252 576 OFFCURVE",
"272 552 OFFCURVE",
"272 490 CURVE SMOOTH",
"272 -158 LINE SMOOTH",
"272 -324 OFFCURVE",
"334 -520 OFFCURVE",
"590 -520 CURVE SMOOTH"
);
}
);
width = 766;
}
);
rightKerningGroup = _A1;
unicode = 007B;
},
{
color = 1;
glyphname = braceright;
lastChange = "2019-12-18 16:57:23 +0000";
layers = (
{
layerId = "9d3a33de-08d4-49ee-85e3-2813f64ed4e4";
paths = (
{
closed = 1;
nodes = (
"283 -520 LINE SMOOTH",
"539 -520 OFFCURVE",
"601 -324 OFFCURVE",
"601 -158 CURVE SMOOTH",
"601 354 LINE SMOOTH",
"601 452 OFFCURVE",
"663 492 OFFCURVE",
"757 492 CURVE",
"757 708 LINE",
"663 708 OFFCURVE",
"601 748 OFFCURVE",
"601 846 CURVE SMOOTH",
"601 1358 LINE SMOOTH",
"601 1524 OFFCURVE",
"539 1720 OFFCURVE",
"283 1720 CURVE SMOOTH",
"57 1720 LINE",
"57 1424 LINE",
"147 1424 LINE SMOOTH",
"195 1424 OFFCURVE",
"245 1378 OFFCURVE",
"245 1322 CURVE SMOOTH",
"245 842 LINE SMOOTH",
"245 712 OFFCURVE",
"309 640 OFFCURVE",
"387 600 CURVE",
"309 560 OFFCURVE",
"245 484 OFFCURVE",
"245 358 CURVE SMOOTH",
"245 -122 LINE SMOOTH",
"245 -178 OFFCURVE",
"195 -224 OFFCURVE",
"147 -224 CURVE SMOOTH",
"57 -224 LINE",
"57 -520 LINE"
);
}
);
width = 798;
},
{
layerId = "0ac4930a-26e9-4cfa-a42f-96cf237e936b";
paths = (
{
closed = 1;
nodes = (
"176 -520 LINE SMOOTH",
"432 -520 OFFCURVE",
"494 -324 OFFCURVE",
"494 -158 CURVE SMOOTH",
"494 490 LINE SMOOTH",
"494 552 OFFCURVE",
"514 576 OFFCURVE",
"560 576 CURVE",
"560 624 LINE",
"514 624 OFFCURVE",
"494 648 OFFCURVE",
"494 710 CURVE SMOOTH",
"494 1358 LINE SMOOTH",
"494 1524 OFFCURVE",
"432 1720 OFFCURVE",
"176 1720 CURVE SMOOTH",
"146 1720 LINE",
"146 1664 LINE",
"176 1664 LINE SMOOTH",
"358 1664 OFFCURVE",
"438 1554 OFFCURVE",
"438 1358 CURVE SMOOTH",
"438 676 LINE",
"438 636 OFFCURVE",
"446 612 OFFCURVE",
"466 600 CURVE",
"446 588 OFFCURVE",
"438 564 OFFCURVE",
"438 524 CURVE SMOOTH",
"438 -158 LINE SMOOTH",
"438 -354 OFFCURVE",
"358 -464 OFFCURVE",
"176 -464 CURVE SMOOTH",
"146 -464 LINE",
"146 -520 LINE"
);
}
);
width = 766;
}
);
rightKerningGroup = _A1;
unicode = 007D;
},
{
color = 1;
glyphname = bracketleft;
lastChange = "2019-12-18 16:57:23 +0000";
layers = (
{
layerId = "9d3a33de-08d4-49ee-85e3-2813f64ed4e4";
paths = (
{
closed = 1;
nodes = (
"896 -520 LINE",
"896 -250 LINE",
"544 -250 LINE",
"544 1450 LINE",
"896 1450 LINE",
"896 1720 LINE",
"188 1720 LINE",
"188 -520 LINE"
);
}
);
width = 893;
},
{
layerId = "0ac4930a-26e9-4cfa-a42f-96cf237e936b";
paths = (
{
closed = 1;
nodes = (
"606 -520 LINE",
"606 -464 LINE",
"338 -464 LINE",
"338 1664 LINE",
"606 1664 LINE",
"606 1720 LINE",
"282 1720 LINE",
"282 -520 LINE"
);
}
);
width = 752;
}
);
rightKerningGroup = _A1;
unicode = 005B;
},
{
color = 1;
glyphname = bracketright;
lastChange = "2019-12-18 16:57:23 +0000";
layers = (
{
layerId = "9d3a33de-08d4-49ee-85e3-2813f64ed4e4";
paths = (
{
closed = 1;
nodes = (
"705 -520 LINE",
"705 1720 LINE",
"-3 1720 LINE",
"-3 1450 LINE",
"349 1450 LINE",
"349 -250 LINE",
"-3 -250 LINE",
"-3 -520 LINE"
);
}
);
width = 893;
},
{
layerId = "0ac4930a-26e9-4cfa-a42f-96cf237e936b";
paths = (
{
closed = 1;
nodes = (
"470 -520 LINE",
"470 1720 LINE",
"146 1720 LINE",
"146 1664 LINE",
"414 1664 LINE",
"414 -464 LINE",
"146 -464 LINE",
"146 -520 LINE"
);
}
);
width = 752;
}
);
rightKerningGroup = _A1;
unicode = 005D;
},
{
color = 1;
glyphname = hyphen;
lastChange = "2019-12-18 16:57:23 +0000";
layers = (
{
layerId = "9d3a33de-08d4-49ee-85e3-2813f64ed4e4";
paths = (
{
closed = 1;
nodes = (
"801 400 LINE",
"801 758 LINE",
"157 758 LINE",
"157 400 LINE"
);
}
);
width = 958;
},
{
layerId = "0ac4930a-26e9-4cfa-a42f-96cf237e936b";
paths = (
{
closed = 1;
nodes = (
"879 556 LINE",
"879 604 LINE",
"235 604 LINE",
"235 556 LINE"
);
}
);
width = 1114;
}
);
rightKerningGroup = _A1;
unicode = 002D;
},
{
color = 1;
glyphname = endash;
lastChange = "2019-12-18 16:57:23 +0000";
layers = (
{
layerId = "9d3a33de-08d4-49ee-85e3-2813f64ed4e4";
paths = (
{
closed = 1;
nodes = (
"1297 400 LINE",
"1297 758 LINE",
"157 758 LINE",
"157 400 LINE"
);
}
);
width = 1454;
},
{
layerId = "0ac4930a-26e9-4cfa-a42f-96cf237e936b";
paths = (
{
closed = 1;
nodes = (
"1011 556 LINE",
"1011 602 LINE",
"235 602 LINE",
"235 556 LINE"
);
}
);
width = 1246;
}
);
rightKerningGroup = _A1;
unicode = 2013;
},
{
color = 1;
glyphname = emdash;
lastChange = "2019-12-18 16:57:23 +0000";
layers = (
{
layerId = "9d3a33de-08d4-49ee-85e3-2813f64ed4e4";
paths = (
{
closed = 1;
nodes = (
"2449 400 LINE",
"2449 758 LINE",
"157 758 LINE",
"157 400 LINE"
);
}
);
width = 2606;
},
{
layerId = "0ac4930a-26e9-4cfa-a42f-96cf237e936b";
paths = (
{
closed = 1;
nodes = (
"1737 556 LINE",
"1737 602 LINE",
"235 602 LINE",
"235 556 LINE"
);
}
);
width = 1972;
}
);
rightKerningGroup = _A1;
unicode = 2014;
},
{
color = 1;
glyphname = underscore;
lastChange = "2019-12-18 16:57:23 +0000";
layers = (
{
layerId = "9d3a33de-08d4-49ee-85e3-2813f64ed4e4";
paths = (
{
closed = 1;
nodes = (
"1183 -202 LINE",
"1183 -6 LINE",
"157 -6 LINE",
"157 -202 LINE"
);
}
);
width = 1340;
},
{
layerId = "0ac4930a-26e9-4cfa-a42f-96cf237e936b";
paths = (
{
closed = 1;
nodes = (
"1261 -200 LINE",
"1261 -160 LINE",
"235 -160 LINE",
"235 -200 LINE"
);
}
);
width = 1496;
}
);
rightKerningGroup = _A1;
unicode = 005F;
},
{
color = 1;
glyphname = quotesinglbase;
lastChange = "2019-12-18 16:57:23 +0000";
layers = (
{
layerId = "9d3a33de-08d4-49ee-85e3-2813f64ed4e4";
paths = (
{
closed = 1;
nodes = (
"411 -206 OFFCURVE",
"591 -6 OFFCURVE",
"591 236 CURVE SMOOTH",
"591 370 OFFCURVE",
"418 476 OFFCURVE",
"319 476 CURVE SMOOTH",
"319 476 LINE SMOOTH",
"231 428 OFFCURVE",
"113 337 OFFCURVE",
"113 236 CURVE SMOOTH",
"113 126 OFFCURVE",
"189 44 OFFCURVE",
"289 18 CURVE",
"255 -148 OFFCURVE",
"127 -264 OFFCURVE",
"133 -258 CURVE",
"241 -348 LINE"
);
}
);
width = 680;
},
{
layerId = "0ac4930a-26e9-4cfa-a42f-96cf237e936b";
paths = (
{
closed = 1;
nodes = (
"322 -148 OFFCURVE",
"352 -80 OFFCURVE",
"352 16 CURVE SMOOTH",
"352 42 OFFCURVE",
"317 64 OFFCURVE",
"298 64 CURVE SMOOTH",
"298 64 LINE SMOOTH",
"278 53 OFFCURVE",
"256 34 OFFCURVE",
"256 16 CURVE SMOOTH",
"256 -10 OFFCURVE",
"278 -32 OFFCURVE",
"304 -32 CURVE",
"304 -96 OFFCURVE",
"292 -140 OFFCURVE",
"268 -176 CURVE",
"278 -186 LINE"
);
}
);
width = 615;
}
);
rightKerningGroup = _A1;
unicode = 201A;
},
{
color = 1;
glyphname = quotedblbase;
lastChange = "2019-12-18 16:57:23 +0000";
layers = (
{
layerId = "9d3a33de-08d4-49ee-85e3-2813f64ed4e4";
paths = (
{
closed = 1;
nodes = (
"993 -206 OFFCURVE",
"1173 -6 OFFCURVE",
"1173 236 CURVE SMOOTH",
"1173 370 OFFCURVE",
"1000 476 OFFCURVE",
"901 476 CURVE SMOOTH",
"901 476 LINE SMOOTH",
"813 428 OFFCURVE",
"695 337 OFFCURVE",
"695 236 CURVE SMOOTH",
"695 126 OFFCURVE",
"771 44 OFFCURVE",
"871 18 CURVE",
"837 -148 OFFCURVE",
"709 -264 OFFCURVE",
"715 -258 CURVE",
"823 -348 LINE"
);
},
{
closed = 1;
nodes = (
"411 -206 OFFCURVE",
"591 -6 OFFCURVE",
"591 236 CURVE SMOOTH",
"591 370 OFFCURVE",
"418 476 OFFCURVE",
"319 476 CURVE SMOOTH",
"319 476 LINE SMOOTH",
"231 428 OFFCURVE",
"113 337 OFFCURVE",
"113 236 CURVE SMOOTH",
"113 126 OFFCURVE",
"189 44 OFFCURVE",
"289 18 CURVE",
"255 -148 OFFCURVE",
"127 -264 OFFCURVE",
"133 -258 CURVE",
"241 -348 LINE"
);
}
);
width = 1262;
},
{
layerId = "0ac4930a-26e9-4cfa-a42f-96cf237e936b";
paths = (
{
closed = 1;
nodes = (
"450 -150 OFFCURVE",
"480 -82 OFFCURVE",
"480 14 CURVE SMOOTH",
"480 40 OFFCURVE",
"458 62 OFFCURVE",
"432 62 CURVE",
"432 62 LINE",
"406 62 OFFCURVE",
"384 40 OFFCURVE",
"384 14 CURVE SMOOTH",
"384 -12 OFFCURVE",
"406 -34 OFFCURVE",
"432 -34 CURVE",
"432 -98 OFFCURVE",
"420 -142 OFFCURVE",
"396 -178 CURVE",
"406 -188 LINE"
);
},
{
closed = 1;
nodes = (
"322 -150 OFFCURVE",
"352 -82 OFFCURVE",
"352 14 CURVE SMOOTH",
"352 40 OFFCURVE",
"317 62 OFFCURVE",
"298 62 CURVE SMOOTH",
"298 62 LINE SMOOTH",
"278 51 OFFCURVE",
"256 32 OFFCURVE",
"256 14 CURVE SMOOTH",
"256 -12 OFFCURVE",
"278 -34 OFFCURVE",
"304 -34 CURVE",
"304 -98 OFFCURVE",
"292 -142 OFFCURVE",
"268 -178 CURVE",
"278 -188 LINE"
);
}
);
width = 743;
}
);
rightKerningGroup = _A1;
unicode = 201E;
},
{
color = 1;
glyphname = quotedblleft;
lastChange = "2019-12-18 16:57:23 +0000";
layers = (
{
background = {
paths = (
{
closed = 1;
nodes = (
"423 1472 OFFCURVE",
"541 1585 OFFCURVE",
"547 1590 CURVE",
"439 1680 LINE",
"269 1538 OFFCURVE",
"89 1338 OFFCURVE",
"89 1096 CURVE SMOOTH",
"89 962 OFFCURVE",
"262 856 OFFCURVE",
"362 856 CURVE",
"455 907 OFFCURVE",
"567 998 OFFCURVE",
"567 1096 CURVE SMOOTH",
"567 1206 OFFCURVE",
"491 1288 OFFCURVE",
"391 1314 CURVE"
);
},
{
closed = 1;
nodes = (
"999 1472 OFFCURVE",
"1117 1585 OFFCURVE",
"1123 1590 CURVE",
"1015 1680 LINE",
"845 1538 OFFCURVE",
"665 1338 OFFCURVE",
"665 1096 CURVE SMOOTH",
"665 962 OFFCURVE",
"838 856 OFFCURVE",
"938 856 CURVE",
"1031 907 OFFCURVE",
"1143 998 OFFCURVE",
"1143 1096 CURVE SMOOTH",
"1143 1206 OFFCURVE",
"1067 1288 OFFCURVE",
"967 1314 CURVE"
);
}
);
};
layerId = "9d3a33de-08d4-49ee-85e3-2813f64ed4e4";
width = 1257;
},
{
background = {
paths = (
{
closed = 1;
nodes = (
"337 1430 OFFCURVE",
"359 1452 OFFCURVE",
"359 1478 CURVE SMOOTH",
"359 1504 OFFCURVE",
"337 1526 OFFCURVE",
"311 1526 CURVE",
"311 1590 OFFCURVE",
"323 1632 OFFCURVE",
"347 1668 CURVE",
"337 1680 LINE",
"293 1642 OFFCURVE",
"263 1574 OFFCURVE",
"263 1478 CURVE SMOOTH",
"263 1452 OFFCURVE",
"285 1430 OFFCURVE",
"311 1430 CURVE SMOOTH"
);
},
{
closed = 1;
nodes = (
"505 1430 OFFCURVE",
"527 1452 OFFCURVE",
"527 1478 CURVE SMOOTH",
"527 1504 OFFCURVE",
"505 1526 OFFCURVE",
"479 1526 CURVE",
"479 1590 OFFCURVE",
"491 1632 OFFCURVE",
"515 1668 CURVE",
"503 1680 LINE",
"461 1642 OFFCURVE",
"431 1574 OFFCURVE",
"431 1478 CURVE SMOOTH",
"431 1452 OFFCURVE",
"453 1430 OFFCURVE",
"479 1430 CURVE SMOOTH"
);
}
);
};
layerId = "0ac4930a-26e9-4cfa-a42f-96cf237e936b";
width = 784;
}
);
leftKerningGroup = _quotesingle;
rightKerningGroup = _quotesingle;
unicode = 201C;
},
{
color = 1;
glyphname = quotedblright;
lastChange = "2019-12-18 16:57:23 +0000";
layers = (
{
layerId = "9d3a33de-08d4-49ee-85e3-2813f64ed4e4";
paths = (
{
closed = 1;
nodes = (
"983 998 OFFCURVE",
"1163 1198 OFFCURVE",
"1163 1440 CURVE SMOOTH",
"1163 1574 OFFCURVE",
"990 1680 OFFCURVE",
"891 1680 CURVE SMOOTH",
"891 1680 LINE SMOOTH",
"803 1632 OFFCURVE",
"685 1541 OFFCURVE",
"685 1440 CURVE SMOOTH",
"685 1330 OFFCURVE",
"761 1248 OFFCURVE",
"861 1222 CURVE",
"827 1056 OFFCURVE",
"699 940 OFFCURVE",
"705 946 CURVE",
"813 856 LINE"
);
},
{
closed = 1;
nodes = (
"411 998 OFFCURVE",
"591 1198 OFFCURVE",
"591 1440 CURVE SMOOTH",
"591 1574 OFFCURVE",
"418 1680 OFFCURVE",
"319 1680 CURVE SMOOTH",
"319 1680 LINE SMOOTH",
"231 1632 OFFCURVE",
"113 1541 OFFCURVE",
"113 1440 CURVE SMOOTH",
"113 1330 OFFCURVE",
"189 1248 OFFCURVE",
"289 1222 CURVE",
"255 1056 OFFCURVE",
"127 940 OFFCURVE",
"133 946 CURVE",
"241 856 LINE"
);
}
);
width = 1252;
},
{
layerId = "0ac4930a-26e9-4cfa-a42f-96cf237e936b";
paths = (
{
closed = 1;
nodes = (
"490 1468 OFFCURVE",
"520 1536 OFFCURVE",
"520 1632 CURVE",
"520 1650 OFFCURVE",
"502 1669 OFFCURVE",
"485 1680 CURVE SMOOTH",
"485 1680 LINE",
"446 1680 OFFCURVE",
"424 1658 OFFCURVE",
"424 1632 CURVE SMOOTH",
"424 1606 OFFCURVE",
"446 1584 OFFCURVE",
"472 1584 CURVE",
"472 1520 OFFCURVE",
"460 1476 OFFCURVE",
"436 1440 CURVE",
"446 1430 LINE"
);
},
{
closed = 1;
nodes = (
"322 1468 OFFCURVE",
"352 1536 OFFCURVE",
"352 1632 CURVE SMOOTH",
"352 1650 OFFCURVE",
"334 1669 OFFCURVE",
"317 1680 CURVE SMOOTH",
"317 1680 LINE",
"278 1680 OFFCURVE",
"256 1658 OFFCURVE",
"256 1632 CURVE SMOOTH",
"256 1606 OFFCURVE",
"278 1584 OFFCURVE",
"304 1584 CURVE",
"304 1520 OFFCURVE",
"292 1476 OFFCURVE",
"268 1440 CURVE",
"278 1430 LINE"
);
}
);
width = 783;
}
);
leftKerningGroup = _quotesingle;
rightKerningGroup = _quotesingle;
unicode = 201D;
},
{
color = 1;
glyphname = quoteleft;
lastChange = "2019-12-18 16:57:23 +0000";
layers = (
{
layerId = "9d3a33de-08d4-49ee-85e3-2813f64ed4e4";
paths = (
{
closed = 1;
nodes = (
"478 856 OFFCURVE",
"567 1002 OFFCURVE",
"567 1096 CURVE SMOOTH",
"567 1206 OFFCURVE",
"491 1288 OFFCURVE",
"391 1314 CURVE",
"423 1472 OFFCURVE",
"541 1585 OFFCURVE",
"547 1590 CURVE",
"439 1680 LINE",
"269 1538 OFFCURVE",
"89 1338 OFFCURVE",
"89 1096 CURVE SMOOTH",
"89 955 OFFCURVE",
"160 856 OFFCURVE",
"362 856 CURVE SMOOTH"
);
}
);
width = 681;
},
{
layerId = "0ac4930a-26e9-4cfa-a42f-96cf237e936b";
paths = (
{
closed = 1;
nodes = (
"338 1430 OFFCURVE",
"360 1452 OFFCURVE",
"360 1478 CURVE SMOOTH",
"360 1504 OFFCURVE",
"338 1526 OFFCURVE",
"312 1526 CURVE",
"312 1590 OFFCURVE",
"324 1632 OFFCURVE",
"348 1668 CURVE",
"336 1680 LINE",
"294 1642 OFFCURVE",
"264 1574 OFFCURVE",
"264 1478 CURVE SMOOTH",
"264 1452 OFFCURVE",
"286 1430 OFFCURVE",
"312 1430 CURVE SMOOTH"
);
}
);
width = 617;
}
);
leftKerningGroup = _quotesingle;
rightKerningGroup = _quotesingle;
unicode = 2018;
},
